<svg xmlns="http://www.w3.org/2000/svg" viewBox="0 0 720 716"><defs><style>.cls-1{fill:#5abc29;}.cls-2{fill:#2dbc14;}.cls-3{fill:#fff;}</style></defs><g id="Layer_2" data-name="Layer 2"><g id="Layer_1-2" data-name="Layer 1"><rect class="cls-1" width="720" height="716"/><circle class="cls-2" cx="360" cy="358" r="284.5"/><path class="cls-3" d="M594,169.81a26,26,0,0,0-22.32-4.89c-69.51,16.76-141.18,4.66-210.49-7-47.85-8.08-96.79-16.32-145.86-15.43a35.75,35.75,0,0,0-70.74,7.29v1.4c-.53.13-1.06.24-1.6.38a35.6,35.6,0,0,0-27,34.66V489.81a26.2,26.2,0,0,0,28.59,26.09v50.36a35.75,35.75,0,0,0,71.49,0V507.07c10.21-.18,48.75,2,59.71,2.65a7.15,7.15,0,1,0,.81-14.27c-38.48-2.19-100.38-1.59-131.63,5.94a11.9,11.9,0,0,1-14.67-11.58V186.18a21.33,21.33,0,0,1,16.14-20.79C216.57,148,288.88,160.17,358.81,172c45.44,7.67,91.87,15.5,138.46,15.5,25.91,0,51.89-2.43,77.76-8.66a11.9,11.9,0,0,1,14.67,11.59V494a21.33,21.33,0,0,1-16.14,20.78c-70.13,17.43-142.44,5.22-212.37-6.58-27.4-4.63-55.74-9.41-83.7-12.4A7.15,7.15,0,1,0,276,510.06c27.53,2.94,55.65,7.69,82.84,12.27,45.44,7.67,91.87,15.51,138.45,15.51,26.58,0,53.22-2.55,79.75-9.14A35.6,35.6,0,0,0,604,494V190.41a26,26,0,0,0-10-20.6ZM158.89,513a308.45,308.45,0,0,1,42.89-5.38v58.67a21.45,21.45,0,0,1-42.89,0ZM159,148.05A21.45,21.45,0,0,1,200.71,143,322.85,322.85,0,0,0,159,148.05Z"/><path class="cls-3" d="M469.09,286.18a7.16,7.16,0,0,0-1.7-10l-84.53-59.88a39.59,39.59,0,0,0-45.72,0L195.53,316.65a28.74,28.74,0,0,0,0,46.91L337.14,463.88a39.58,39.58,0,0,0,45.72,0l141.6-100.32a28.73,28.73,0,0,0,0-46.91l-67.75-47.91a7.15,7.15,0,0,0-8.26,11.67l67.74,47.9a14.45,14.45,0,0,1,0,23.59L374.6,452.22a25.31,25.31,0,0,1-29.2,0L203.8,351.9a14.45,14.45,0,0,1,0-23.59L345.4,228a25.28,25.28,0,0,1,29.2,0l84.52,59.88a7.16,7.16,0,0,0,10-1.7Z"/><path class="cls-3" d="M286.43,333.71a7,7,0,0,0-.08,1c-.13,1.78-.22,3.57-.22,5.38a73.86,73.86,0,0,0,145.13,19.42,6.59,6.59,0,0,0,.24-.87,73.86,73.86,0,1,0-145.07-25Zm73.57,66a59.64,59.64,0,0,1-59.57-59.57c0-.59,0-1.18,0-1.77a81.37,81.37,0,0,1,48.75-16.28,80.55,80.55,0,0,1,67.52,36.17A59.66,59.66,0,0,1,360,399.68Zm59.53-61.05A95.39,95.39,0,0,0,304.29,319a59.55,59.55,0,0,1,115.24,19.6Z"/></g></g></svg>