<svg xmlns="http://www.w3.org/2000/svg" viewBox="0 0 720 716"><defs><style>.cls-1{fill:#5abc29;}.cls-2{fill:#2dbc14;}.cls-3{fill:#fff;}</style></defs><g id="Layer_2" data-name="Layer 2"><g id="Layer_1-2" data-name="Layer 1"><rect class="cls-1" width="720" height="716"/><circle class="cls-2" cx="359" cy="358" r="284.5"/><path class="cls-3" d="M203,562.5a8.51,8.51,0,0,1-8.5-8.5V507.92H113a8.51,8.51,0,0,1-8.5-8.5V461.55a68.24,68.24,0,0,1,67.38-68l3,0-1.82-2.38A48.81,48.81,0,0,1,163,361.26V343.55a49.24,49.24,0,1,1,98.47,0v17.71a48.72,48.72,0,0,1-10.1,29.83l-1.84,2.41H313l-2.7-2.58A69.88,69.88,0,0,1,288.5,340V294a70.5,70.5,0,0,1,141,0V340a69.88,69.88,0,0,1-21.82,50.92L405,393.5h63.54l-1.85-2.41a48.77,48.77,0,0,1-10.09-29.83V343.55a49.24,49.24,0,1,1,98.47,0v17.71a48.77,48.77,0,0,1-10.11,29.85l-1.82,2.38,3,0a68.24,68.24,0,0,1,67.39,68v37.87a8.51,8.51,0,0,1-8.5,8.5H523.5V554a8.51,8.51,0,0,1-8.5,8.5Zm168.7-17H506.5V495.28c0-43.94-34.3-81-78.09-84.49l-1.09-.09ZM289.59,410.79c-43.79,3.44-78.09,40.55-78.09,84.49V545.5H346.3L290.68,410.7ZM359,531.72,409,410.5H367.5V436a8.5,8.5,0,0,1-17,0V410.5H309ZM481.84,413.21a101.5,101.5,0,0,1,41.49,76.29l.08,1.42H596.5V461.55a51.11,51.11,0,0,0-51-51.05h-67.3ZM172.55,410.5a51.11,51.11,0,0,0-51.05,51.05v29.37h73.09l.08-1.42a101.5,101.5,0,0,1,41.49-76.29l3.69-2.71Zm333.26-99.19a32.27,32.27,0,0,0-32.23,32.24v17.71a32.24,32.24,0,1,0,64.47,0V343.55A32.27,32.27,0,0,0,505.81,311.31ZM305.5,314.05V340a53.5,53.5,0,0,0,107,0V312.55H411A103.54,103.54,0,0,1,359.74,299l-.74-.42-.74.42A103.5,103.5,0,0,1,307,312.55h-1.5Zm-93.31-2.74A32.27,32.27,0,0,0,180,343.55v17.71a32.24,32.24,0,1,0,64.47,0V343.55A32.27,32.27,0,0,0,212.19,311.31ZM359,280.05a8.43,8.43,0,0,1,4.65,1.39A86.21,86.21,0,0,0,411,295.55h1.5l0-1.5a53.5,53.5,0,1,0-107-.1v1.5l1.5.1a86.25,86.25,0,0,0,47.35-14.11A8.43,8.43,0,0,1,359,280.05Z"/><path class="cls-2" d="M359,225a69.07,69.07,0,0,1,69,69V340a68.38,68.38,0,0,1-21.35,49.83L401.24,395h70.31l-3.68-4.82a47.21,47.21,0,0,1-9.79-28.92V343.55a47.74,47.74,0,1,1,95.47,0v17.71a47.25,47.25,0,0,1-9.8,28.93L540.1,395l6,.06A66.62,66.62,0,0,1,612,461.55v37.87a7,7,0,0,1-7,7H522V554a7,7,0,0,1-7,7H339a13,13,0,0,0,0-14h9.59l-1.71-4.14L292.48,411.14l-.83-2-2.18.17c-44.56,3.5-79.47,41.27-79.47,86V547H310a13,13,0,0,0,0,14H203a7,7,0,0,1-7-7V506.42H113a7,7,0,0,1-7-7V461.55A66.62,66.62,0,0,1,171.9,395l6-.06-3.65-4.77a47.25,47.25,0,0,1-9.8-28.93V343.55a47.74,47.74,0,1,1,95.47,0v17.71a47.23,47.23,0,0,1-9.79,28.92L246.45,395h70.3l-5.4-5.17A68.38,68.38,0,0,1,290,340V294a69.07,69.07,0,0,1,69-69m-55,72.1h3a87.67,87.67,0,0,0,48.13-14.35,7,7,0,0,1,7.66,0A87.7,87.7,0,0,0,411,297.05h3V294a55,55,0,0,0-110,0v.1l0,3M359,395a55.06,55.06,0,0,0,55-55V314.05l0-3h-3a102,102,0,0,1-50.47-13.38l-1.49-.85-1.49.85A102,102,0,0,1,307,311.05h-3V340a55.06,55.06,0,0,0,55,55m146.81,0a33.78,33.78,0,0,0,33.74-33.74V343.55a33.74,33.74,0,1,0-67.47,0v17.71A33.77,33.77,0,0,0,505.81,395m-293.62,0a33.77,33.77,0,0,0,33.73-33.74V343.55a33.74,33.74,0,1,0-67.47,0v17.71A33.77,33.77,0,0,0,212.19,395M522,492.42h76V461.55A52.6,52.6,0,0,0,545.45,409H473.58l7.37,5.42a100,100,0,0,1,40.88,75.16l.16,2.84M359,443a7,7,0,0,1-7-7V409H306.74l1.71,4.14,47.78,115.79,2.77,6.72,2.77-6.72,47.78-115.79,1.71-4.14H366v27a7,7,0,0,1-7,7M120,492.42h76l.16-2.84a100,100,0,0,1,40.88-75.16l7.37-5.42H172.55A52.6,52.6,0,0,0,120,461.55v30.87M369.46,547H508V495.28c0-44.72-34.91-82.49-79.47-86l-2.18-.17-.83,2L371.17,542.86,369.46,547M359,222a72.08,72.08,0,0,0-72,72V340a71.79,71.79,0,0,0,22.28,52H252.52a50.48,50.48,0,0,0,10.4-30.74V343.55a50.74,50.74,0,1,0-101.47,0v17.71A50.47,50.47,0,0,0,171.87,392,69.61,69.61,0,0,0,103,461.55v37.87a10,10,0,0,0,10,10h80V554a10,10,0,0,0,10,10H321a10,10,0,0,1,0-20H213V495.28a83.38,83.38,0,0,1,76.71-83L344.06,544H328a10,10,0,0,1,0,20H515a10,10,0,0,0,10-10V509.42h80a10,10,0,0,0,10-10V461.55A69.61,69.61,0,0,0,546.13,392a50.47,50.47,0,0,0,10.42-30.76V343.55a50.74,50.74,0,1,0-101.47,0v17.71A50.48,50.48,0,0,0,465.48,392H408.72A71.79,71.79,0,0,0,431,340V294a72.08,72.08,0,0,0-72-72Zm-52,72.1V294a52,52,0,0,1,104,0v.1h0a84.64,84.64,0,0,1-46.48-13.86,10,10,0,0,0-11,0A84.69,84.69,0,0,1,307,294.05ZM359,392a52.06,52.06,0,0,1-52-52V314.05h0a104.59,104.59,0,0,0,52-13.78,104.59,104.59,0,0,0,52,13.78h0V340a52.06,52.06,0,0,1-52,52Zm146.81,0a30.77,30.77,0,0,1-30.73-30.74V343.55a30.74,30.74,0,1,1,61.47,0v17.71A30.77,30.77,0,0,1,505.81,392Zm-293.62,0a30.77,30.77,0,0,1-30.74-30.74V343.55a30.74,30.74,0,1,1,61.47,0v17.71A30.77,30.77,0,0,1,212.19,392Zm312.64,97.42A103.28,103.28,0,0,0,482.73,412h62.72A49.61,49.61,0,0,1,595,461.55v27.87ZM406.78,412,359,527.78,311.22,412H349v24a10,10,0,0,0,20,0V412h37.78ZM123,489.42V461.55A49.61,49.61,0,0,1,172.55,412h62.72a103.28,103.28,0,0,0-42.1,77.42ZM373.94,544l54.35-131.72a83.38,83.38,0,0,1,76.71,83V544Z"/><path class="cls-3" d="M323.72,198.53a18.27,18.27,0,0,1-17.25-23.86l9.47-28.93-24.76-17.91A18.15,18.15,0,0,1,301.82,95h30.57l9.34-28.92a18.15,18.15,0,0,1,34.54,0L385.61,95h30.58a18.15,18.15,0,0,1,10.63,32.85l-24.76,17.91,9.47,28.93a18.27,18.27,0,0,1-17.24,23.86,18.06,18.06,0,0,1-10.7-3.56L359,177,334.41,195a18.06,18.06,0,0,1-10.69,3.56ZM359,158a8.45,8.45,0,0,1,5,1.63l32.46,23.7L384,145.13a8.5,8.5,0,0,1,3.1-9.54L419.72,112H379.43a8.48,8.48,0,0,1-8.09-5.88L359,67.93,346.66,106.1a8.48,8.48,0,0,1-8.09,5.88H298.28l32.65,23.61a8.48,8.48,0,0,1,3.09,9.54l-12.5,38.19L354,159.63A8.43,8.43,0,0,1,359,158Z"/><path class="cls-2" d="M359,55a16.4,16.4,0,0,1,15.84,11.52l9,27.88.67,2.08h31.67a16.64,16.64,0,0,1,9.75,30.13l-23.87,17.27-1.78,1.28.69,2.08,9.13,27.89a16.4,16.4,0,0,1-6,18.65,16.36,16.36,0,0,1-19.6,0l-23.7-17.31L359,175.16l-1.77,1.29-23.7,17.31a16.36,16.36,0,0,1-19.6,0,16.4,16.4,0,0,1-6-18.65L317,147.24l.69-2.08-1.78-1.28-23.87-17.27a16.64,16.64,0,0,1,9.75-30.13h31.67l.67-2.08,9-27.87A16.39,16.39,0,0,1,359,55M318.65,187.28l7.51-5.49,28.71-20.95a7,7,0,0,1,8.26,0l28.7,21,7.52,5.48-2.9-8.84L385.4,144.66a7,7,0,0,1,2.55-7.85l28.89-20.9,7.51-5.43H379.43a7,7,0,0,1-6.66-4.85L361.86,71.88,359,63.05l-2.85,8.83-10.92,33.75a7,7,0,0,1-6.66,4.85H293.65l7.51,5.43,28.89,20.9a7,7,0,0,1,2.55,7.85l-11.06,33.78-2.89,8.84M359,52a19.34,19.34,0,0,0-18.69,13.6l-9,27.88H301.81A19.65,19.65,0,0,0,290.3,129l23.87,17.27L305,174.2a19.36,19.36,0,0,0,7.13,22,19.36,19.36,0,0,0,23.13,0l23.7-17.3,23.7,17.3a19.36,19.36,0,0,0,23.13,0,19.36,19.36,0,0,0,7.13-22l-9.13-27.89L427.7,129a19.64,19.64,0,0,0-11.51-35.56H386.71l-9-27.88A19.35,19.35,0,0,0,359,52ZM324.39,179.37l11.06-33.78a10,10,0,0,0-3.64-11.21l-28.9-20.9h35.66a10,10,0,0,0,9.52-6.92L359,72.8l10.91,33.76a10,10,0,0,0,9.52,6.92h35.65l-28.89,20.9a10,10,0,0,0-3.64,11.21l11.05,33.78-28.7-21a10,10,0,0,0-11.8,0l-28.71,21Z"/></g></g></svg>