<svg id="Layer_1" data-name="Layer 1" xmlns="http://www.w3.org/2000/svg" viewBox="0 0 360 360">
  <g>
    <path d="M38.06,315.23a6.29,6.29,0,0,1-6.58-6.58V217a3.8,3.8,0,0,1,.7-2.41L72.37,107.31a6.57,6.57,0,0,1,6-4H106.6V52.58A6.3,6.3,0,0,1,113.18,46H246.94a6.3,6.3,0,0,1,6.59,6.58v51.14h28.23a6,6,0,0,1,6,4.14l40.15,106.77a3.76,3.76,0,0,1,.71,2.41v91.61a6.29,6.29,0,0,1-6.58,6.58Zm277.43-12.7V224.07H44.64v78.46Zm-2.72-91.62-35.6-94.49H253.53v60.14h4a6.58,6.58,0,0,1,0,13.16H102.55a6.58,6.58,0,0,1,.1-13.16h3.95V116.42H83l-35.6,94.49Zm-72.86-34.35V59.16H119.76v117.4Z" style="fill: #5abc29"/>
    <path d="M186,167.27a6.93,6.93,0,0,1-6.58-6.58V124a6.29,6.29,0,0,1,6.58-6.58h36.65a6.3,6.3,0,0,1,6.58,6.58v36.65a6.29,6.29,0,0,1-6.58,6.58Zm30.07-13.16V130.62H192.6v23.49Z" style="fill: #5abc29"/>
    <path d="M186,165.27h36.65a4.33,4.33,0,0,0,4.58-4.58V124a4.33,4.33,0,0,0-4.58-4.58H186a4.32,4.32,0,0,0-4.58,4.58v36.65A4.93,4.93,0,0,0,186,165.27Zm4.58-36.65h27.49v27.49H190.6Z" style="fill: #5abc29"/>
    <path d="M218.09,107.72a6.56,6.56,0,0,1-4.63-2l-11.41-11-11.44,11a6.41,6.41,0,0,1-9.21,0,7,7,0,0,1,0-9.7l11.36-11L181.42,74.18a6.4,6.4,0,0,1,0-9.27,6.43,6.43,0,0,1,9.24,0l11.44,11.44,11.41-11a6.44,6.44,0,0,1,9.22,0,6.4,6.4,0,0,1,0,9.24l-11.36,11,11.33,10.93a6.58,6.58,0,0,1-4.59,11.23Z" style="fill: #5abc29"/>
    <path d="M182.81,104.35a4.44,4.44,0,0,0,6.42,0L202.05,92l12.83,12.37a4.54,4.54,0,0,0,6.41-6.42L208.47,85.56l12.82-12.37a4.53,4.53,0,0,0-6.41-6.41L202.05,79.15,189.23,66.32a4.54,4.54,0,1,0-6.42,6.42l12.83,12.37L182.81,97.47A5,5,0,0,0,182.81,104.35Z" style="fill: #5abc29"/>
    <path d="M129.67,92.14a6.93,6.93,0,0,1-6.58-6.58A6.3,6.3,0,0,1,129.67,79h37.57a6.58,6.58,0,0,1,0,13.16Z" style="fill: #5abc29"/>
    <path d="M129.67,90.14h37.57a4.58,4.58,0,0,0,0-9.16H129.67a4.33,4.33,0,0,0-4.58,4.58A4.93,4.93,0,0,0,129.67,90.14Z" style="fill: #5abc29"/>
    <path d="M129.67,149a6.93,6.93,0,0,1-6.58-6.58,6.29,6.29,0,0,1,6.58-6.58h37.57a6.58,6.58,0,0,1,0,13.16Z" style="fill: #5abc29"/>
    <path d="M129.67,147h37.57a4.58,4.58,0,0,0,0-9.16H129.67a4.33,4.33,0,0,0-4.58,4.58A4.93,4.93,0,0,0,129.67,147Z" style="fill: #5abc29"/>
  </g>
</svg>
