<svg id="Layer_1" data-name="Layer 1" xmlns="http://www.w3.org/2000/svg" viewBox="0 0 360 360">
  <path d="M314.91,338.69a5.48,5.48,0,1,1,5.48-5.48A5.49,5.49,0,0,1,314.91,338.69Zm-17.42,0a5.48,5.48,0,1,1,5.48-5.48A5.49,5.49,0,0,1,297.49,338.69Zm-17.41,0a5.48,5.48,0,1,1,5.48-5.48A5.49,5.49,0,0,1,280.08,338.69Zm-17.41,0a5.48,5.48,0,1,1,5.48-5.48A5.49,5.49,0,0,1,262.67,338.69Zm-17.42,0a5.48,5.48,0,1,1,5.49-5.48A5.49,5.49,0,0,1,245.25,338.69Zm-142.78,0a5.48,5.48,0,1,1,5.48-5.48A5.49,5.49,0,0,1,102.47,338.69Zm-17.41,0a5.48,5.48,0,1,1,5.48-5.48A5.49,5.49,0,0,1,85.06,338.69Zm-17.42,0a5.48,5.48,0,1,1,5.49-5.48A5.49,5.49,0,0,1,67.64,338.69Zm-17.41,0a5.48,5.48,0,1,1,5.48-5.48A5.49,5.49,0,0,1,50.23,338.69Zm-17.41,0a5.48,5.48,0,1,1,5.48-5.48A5.48,5.48,0,0,1,32.82,338.69Zm267.77-16.06a5.48,5.48,0,1,1,5.48-5.48A5.49,5.49,0,0,1,300.59,322.63Zm-17.42,0a5.48,5.48,0,1,1,5.49-5.48A5.49,5.49,0,0,1,283.17,322.63Zm-17.41,0a5.48,5.48,0,1,1,5.48-5.48A5.49,5.49,0,0,1,265.76,322.63Zm-17.41,0a5.48,5.48,0,1,1,5.48-5.48A5.49,5.49,0,0,1,248.35,322.63Zm-149,0a5.48,5.48,0,1,1,5.49-5.48A5.49,5.49,0,0,1,99.37,322.63Zm-17.41,0a5.48,5.48,0,1,1,5.48-5.48A5.49,5.49,0,0,1,82,322.63Zm-17.41,0A5.48,5.48,0,1,1,70,317.15,5.49,5.49,0,0,1,64.55,322.63Zm-17.41,0a5.48,5.48,0,1,1,5.48-5.48A5.49,5.49,0,0,1,47.14,322.63Zm272-20.47a107.87,107.87,0,0,1-11.41-.54c-3-.32-5.36-.74-7.67-1.14a98.51,98.51,0,0,0-34.42,0,94.74,94.74,0,0,1-19,1.67h-.12a95.09,95.09,0,0,1-19.1-1.69,84.29,84.29,0,0,0-17.2-1.52,85.23,85.23,0,0,0-17.21,1.5,95.31,95.31,0,0,1-19,1.67,95.71,95.71,0,0,1-19.2-1.69,84.4,84.4,0,0,0-17.21-1.52,85.23,85.23,0,0,0-17.21,1.5,95.31,95.31,0,0,1-19,1.67,95.57,95.57,0,0,1-19.21-1.7,85.06,85.06,0,0,0-17.21-1.52h-.12a84.7,84.7,0,0,0-17.09,1.5c-2.36.41-4.74.83-7.73,1.14a106.68,106.68,0,0,1-11.32.53h0a5.51,5.51,0,0,1-3.94-1.6,5.42,5.42,0,0,1-1.63-3.89A5.48,5.48,0,0,1,28.58,291a85.16,85.16,0,0,0,17.21-1.5,92.86,92.86,0,0,1,16.7-1.65V33a9,9,0,0,1,9-9H87.31a9,9,0,0,1,9,9v.2h180a9,9,0,0,1,9,9V173.24a9,9,0,0,1-9,9h-180V291c1.58.07,3.23.1,5,.1a85.23,85.23,0,0,0,17.21-1.5,95.31,95.31,0,0,1,19-1.67,95.71,95.71,0,0,1,19.2,1.69,84.4,84.4,0,0,0,17.21,1.52,85.16,85.16,0,0,0,17.21-1.5,95.31,95.31,0,0,1,19-1.67,96.27,96.27,0,0,1,19.19,1.69,84,84,0,0,0,17.2,1.53l2.1,0a70.74,70.74,0,0,0,14-1.32l1.14-.21a109.74,109.74,0,0,1,38.2,0,84.29,84.29,0,0,0,17.2,1.52,5.48,5.48,0,1,1,0,11Zm-245.69-14a94.06,94.06,0,0,1,10.6,1.4l1.27.22V35H73.45ZM274.27,171.24V44.13h-178V171.24Zm-93-17.37a46.19,46.19,0,1,1,46.19-46.19A46.24,46.24,0,0,1,181.31,153.87ZM160.6,136.15A35.2,35.2,0,0,0,209.78,87Zm20.71-63.69a35.21,35.21,0,0,0-28.47,55.94L202,79.22A35.25,35.25,0,0,0,181.31,72.46Z" style="fill: #5abc29"/>
</svg>
