<svg id="Layer_1" data-name="Layer 1" xmlns="http://www.w3.org/2000/svg" viewBox="0 0 360 360">
  <g>
    <path d="M51.57,258.3a3.8,3.8,0,0,1-2.71-1.12,3.76,3.76,0,0,1-1.12-2.72v-23.9h-.82a3.84,3.84,0,0,1-3.84-3.83V188.54a3.85,3.85,0,0,1,3.84-3.84h.82v-4.45L20.27,152.79a15.16,15.16,0,0,1-4.43-10.67V112.57a9.42,9.42,0,0,1,7.86-9.32l1.49-.26v-1.17A15.08,15.08,0,0,1,50.67,90.87a14.56,14.56,0,0,1,1.53-1.8,15.06,15.06,0,0,1,21.31,0,14.71,14.71,0,0,1,2.37,3.11,15,15,0,0,1,23.31,5.54,15.06,15.06,0,0,1,19.46,1.63A14.9,14.9,0,0,1,123,110v49.16c0,3.26-2.48,6.83-6.54,12.37l0,.06,0,.06a30,30,0,0,0-4.63,7.43v5.6h.63a3.84,3.84,0,0,1,3.83,3.84v1.62h12.54A14.83,14.83,0,0,1,143,201.07h5.46a14.84,14.84,0,0,1,14.2-10.92h16.07a3.84,3.84,0,0,1,3.32,5.76l-3.16,5.45a3.84,3.84,0,0,1-3.32,1.92H167a6.53,6.53,0,0,1-.09,8.8,3.52,3.52,0,0,1,1.09.42,3.83,3.83,0,0,1,1.42,5.23l-3.12,5.46a3.85,3.85,0,0,1-3.33,1.93h-.19a14.73,14.73,0,0,1-14.31-10.93H143a14.82,14.82,0,0,1-14.18,10.91H116.22v1.63a3.84,3.84,0,0,1-3.83,3.83h-.63v23.91a3.85,3.85,0,0,1-3.84,3.83Zm52.52-7.67V230.56H55.4v20.07Zm4.47-27.74V192.37H50.75v30.52ZM124.4,212a6.56,6.56,0,0,1,0-8.7h-2.71V212ZM104.09,184.7v-6c0-3,2.24-6.24,6.2-11.66l0-.07,0-.06a29.08,29.08,0,0,0,5-8.1V136.47l-.56.3a15,15,0,0,1-18.58-4,15.08,15.08,0,0,1-4.57,3.24,14.89,14.89,0,0,1-6.25,1.37,15.1,15.1,0,0,1-12.19-6.23A14.91,14.91,0,0,1,70.92,133a26.48,26.48,0,0,1,11.7,21.87,3.83,3.83,0,1,1-7.66,0,18.77,18.77,0,0,0-18.73-18.7H43.33a3.83,3.83,0,0,1-3.83-3.83v-5.73a3.82,3.82,0,0,1,3.16-3.77l2.45-.44a18,18,0,0,0,4-1.2,18.67,18.67,0,0,0,11.43-16.62L25,110.8a1.79,1.79,0,0,0-1.5,1.76v29.55a7.47,7.47,0,0,0,2.18,5.26L54.28,176a3.84,3.84,0,0,1,1.12,2.71v6Zm3.83-82.12a7.46,7.46,0,0,0-7.44,7.44v13.31a7.44,7.44,0,1,0,14.88,0V110A7.46,7.46,0,0,0,107.92,102.58ZM85.36,96.41a7.44,7.44,0,0,0-7.42,7.45v18.45a7.44,7.44,0,0,0,14.87,0V103.83a7.44,7.44,0,0,0-7.43-7.42v-2ZM57.6,125.54a7.37,7.37,0,0,0,5.23,2.15,7.44,7.44,0,0,0,7.44-7.43V99.77a7.43,7.43,0,0,0-7.44-7.44,7.48,7.48,0,0,0-7.11,5.27l7.7-1.36a3.89,3.89,0,0,1,4.44,3.1,26.19,26.19,0,0,1-10.5,25.94ZM40.25,94.38a7.42,7.42,0,0,0-7.39,7.25l14.32-2.52a7.41,7.41,0,0,0-6.91-4.73v-2Z" style="fill: #5abc29"/>
    <path d="M254.25,258.3a3.82,3.82,0,0,1-3.84-3.84v-23.9h-.62a3.82,3.82,0,0,1-3.83-3.84V225.1H233.43a14.82,14.82,0,0,1-14.18-10.91h-5.49a14.82,14.82,0,0,1-14.16,10.93H183.52a3.84,3.84,0,0,1-3.32-5.74l3.12-5.46a3.85,3.85,0,0,1,3.33-1.93h8.58a6.55,6.55,0,0,1,.08-8.8,3.94,3.94,0,0,1-1.11-.43,3.84,3.84,0,0,1-1.39-5.24l3.16-5.46a3.83,3.83,0,0,1,3.31-1.91h.18a14.92,14.92,0,0,1,14.29,10.92h5.5a14.82,14.82,0,0,1,14.18-10.91H246v-1.62a3.83,3.83,0,0,1,3.83-3.84h.62v-5.6a30,30,0,0,0-4.63-7.43l-.05-.06,0-.06c-4.06-5.54-6.54-9.11-6.54-12.37V110A15.05,15.05,0,0,1,263,97.74a15,15,0,0,1,23.31-5.56,14.9,14.9,0,0,1,2.37-3.1A15.05,15.05,0,0,1,293,86a14.85,14.85,0,0,1,6.28-1.38,15.11,15.11,0,0,1,12.19,6.21A15.08,15.08,0,0,1,337,101.82V103l1.53.27a9.4,9.4,0,0,1,7.8,9.32v29.54a15,15,0,0,1-4.43,10.69l-27.46,27.45v4.45h.83a3.84,3.84,0,0,1,3.83,3.84v38.19a3.82,3.82,0,0,1-3.83,3.83h-.83v23.91a3.84,3.84,0,0,1-3.83,3.83Zm52.52-7.67V230.56H258.08v20.07Zm4.65-27.74V192.37h-57.8v30.52Zm-73.65-19.61a6.56,6.56,0,0,1,0,8.7h2.74v-8.7Zm69-18.58v-6a3.78,3.78,0,0,1,1.12-2.71l28.59-28.59a7.43,7.43,0,0,0,2.18-5.25V112.57a1.77,1.77,0,0,0-1.47-1.76l-35.61-6.28A18.65,18.65,0,0,0,313,121.14a18.27,18.27,0,0,0,4.05,1.2l2.47.45a3.82,3.82,0,0,1,3.16,3.77v5.73a3.84,3.84,0,0,1-3.83,3.83h-12.9a18.75,18.75,0,0,0-18.7,18.7,3.84,3.84,0,1,1-7.67,0A26.54,26.54,0,0,1,291.26,133a14.91,14.91,0,0,1-2.28-1.76,15.05,15.05,0,0,1-23,1.62,13.42,13.42,0,0,1-1.4,1.52,14.9,14.9,0,0,1-10.31,4.11,15.08,15.08,0,0,1-7.44-2V158.8a29.35,29.35,0,0,0,5,8.1l.1.13c4,5.42,6.2,8.63,6.2,11.66v6Zm-52.53-82.14a7.44,7.44,0,0,0-7.42,7.45v13.32a7.44,7.44,0,1,0,14.87,0V110a7.45,7.45,0,0,0-7.43-7.45v-2Zm22.54-6.15a7.44,7.44,0,0,0-7.42,7.45v18.45a7.44,7.44,0,0,0,14.87,0V103.83a7.44,7.44,0,0,0-7.43-7.42v-2Zm22.56-4.08a7.43,7.43,0,0,0-7.43,7.42v20.51a7.43,7.43,0,0,0,12.7,5.25l.21-.23A26.17,26.17,0,0,1,294.3,99.36a3.89,3.89,0,0,1,1.58-2.48,3.78,3.78,0,0,1,2.19-.7,3.23,3.23,0,0,1,.69.07l7.7,1.35a7.43,7.43,0,0,0-7.12-5.27Zm30,9.3A7.41,7.41,0,0,0,315,99.11Z" style="fill: #5abc29"/>
    <path d="M211.54,231.73a1.83,1.83,0,0,0-3.23,1.74l9.46,17.5L196.7,238.33a1.84,1.84,0,0,0-2.52.63,1.75,1.75,0,0,0-.26,1l.4,23.94-11.63-20.93a1.91,1.91,0,0,0-2.64-.57,1.94,1.94,0,0,0-.57.57l-11.62,20.93.4-23.94a1.83,1.83,0,0,0-1.81-1.86,1.75,1.75,0,0,0-1,.26L144.41,251l9.46-17.5a1.83,1.83,0,0,0-3.23-1.74h0L138,255.11a1.83,1.83,0,0,0,2.55,2.44l24-14.38-.46,28a1.83,1.83,0,0,0,1.36,1.8,1.81,1.81,0,0,0,2.08-.88l13.58-24.44,13.58,24.44a1.83,1.83,0,0,0,3.44-.92l-.47-28,24,14.38a1.83,1.83,0,0,0,2.55-2.44Z" style="fill: #5abc29"/>
    <path d="M208.94,180.78a1.83,1.83,0,0,0,2.53-.57h0l12.65-20a1.83,1.83,0,0,0-2.49-2.55l-24,14.38.47-28a1.83,1.83,0,0,0-3.44-.92l-13.58,24.44-13.58-24.44a1.84,1.84,0,0,0-3.44.92l.46,28-24-14.38a1.83,1.83,0,0,0-2.49,2.55l12.65,20a1.83,1.83,0,1,0,3.1-2h0l-8.5-13.42,20.18,12.1a1.84,1.84,0,0,0,2.52-.63,1.93,1.93,0,0,0,.26-1l-.4-23.94,11.62,20.93a1.83,1.83,0,0,0,2.5.71,1.73,1.73,0,0,0,.71-.71l11.63-20.93-.4,23.94a1.82,1.82,0,0,0,1.8,1.86,1.8,1.8,0,0,0,1-.26l20.18-12.1-8.5,13.42a1.84,1.84,0,0,0,.56,2.53Z" style="fill: #5abc29"/>
  </g>
</svg>
