<svg id="Layer_1" data-name="Layer 1" xmlns="http://www.w3.org/2000/svg" viewBox="0 0 360 360">
  <path d="M61.81,30A11.24,11.24,0,0,0,50.53,41.13v45A11.27,11.27,0,0,0,61.81,97.39h48.82L110.5,116c-.13,2.92,4,4.78,6.1,2.92l24.68-21.49h17.91a11.25,11.25,0,0,0,11.15-11.28v-45A11.22,11.22,0,0,0,159.19,30ZM204,30a11.21,11.21,0,0,0-11.15,11.14v45A11.25,11.25,0,0,0,204,97.39H222l24.54,21.49c2.26,1.86,6.37,0,6.24-2.92l-.27-18.57h49A11.36,11.36,0,0,0,312.7,86.11v-45A11.33,11.33,0,0,0,301.42,30ZM61.81,37.42h97.38a3.63,3.63,0,0,1,3.72,3.71v45a3.63,3.63,0,0,1-3.72,3.71H139.82a3.81,3.81,0,0,0-2.39.93l-19.37,17,.13-14.06a4,4,0,0,0-3.71-3.85H61.81a3.63,3.63,0,0,1-3.72-3.71v-45C58.75,38.34,60.35,38.34,61.81,37.42Zm142.23,0h97.38a3.62,3.62,0,0,1,3.71,3.71v45a3.62,3.62,0,0,1-3.71,3.71H248.75A3.92,3.92,0,0,0,245,93.67l.13,14.06-19.37-17a4.12,4.12,0,0,0-2.38-.93H204a3.63,3.63,0,0,1-3.72-3.71v-45C201,38.34,202.58,38.34,204,37.42ZM76.8,119.68a26.27,26.27,0,1,0,26.14,26.4A26.44,26.44,0,0,0,76.8,119.68Zm209.63,0a26.27,26.27,0,1,0,26.27,26.4A26.33,26.33,0,0,0,286.43,119.68ZM76.8,127.37a18.64,18.64,0,1,1-18.71,18.71C58.49,134.4,66.18,127.11,76.8,127.37Zm209.63,0a18.64,18.64,0,1,1-18.71,18.71C267.85,134.67,275.42,127.77,286.43,127.37ZM49.86,187.21A3.91,3.91,0,0,0,47,189.86L32,242.4a3.64,3.64,0,0,0,.93,3.58l14.2,14.2,11,73.5A3.74,3.74,0,0,0,61.81,337h78.54a3.91,3.91,0,0,0,3.85-3.71V224.62a4,4,0,0,0-3.85-3.71h-19c-2.92-11.28-6.64-20.7-11.28-31.45a3.81,3.81,0,0,0-3.45-2.25Zm205.92,0a3.51,3.51,0,0,0-2.65,2.25c-4.65,11.55-8.63,20.7-11.28,31.45H222.08a3.94,3.94,0,0,0-3.05,3.71V333.29a3.89,3.89,0,0,0,3.71,3.71h78.68a3.83,3.83,0,0,0,3.71-3.32l11-73.5L330.34,246a3.94,3.94,0,0,0,.93-3.58l-15-52.54a4,4,0,0,0-3.58-2.65ZM53.31,194.77h51c3.58,8.89,6.9,17,9.29,26.14H76a3.83,3.83,0,0,0-2.92,3.71v105h-8L54.24,257.79a2.78,2.78,0,0,0-1.06-2.12l-13.4-13.4Zm205.65,0h50.82l13.66,47.5-13.53,13.4a4,4,0,0,0-1.06,2.12L298.1,329.57h-8V224.62a3.89,3.89,0,0,0-3.71-3.71H249.68C252.06,211.89,255.91,202.2,259,194.77ZM80.51,228.47h56.13v101.1H80.51Zm146.08,0h56.12v101.1H226.59Z" style="fill: #5abc29"/>
</svg>
