<svg id="Layer_1" data-name="Layer 1" xmlns="http://www.w3.org/2000/svg" viewBox="0 0 360 360">
  <g>
    <polygon points="250.87 241.97 238.27 249.39 266.61 249.39 252.5 241.97 250.87 241.97" style="fill: #5abc29"/>
    <path d="M300.58,244.83a9.83,9.83,0,0,1,4.35,4.56H343V242H295.15Z" style="fill: #5abc29"/>
    <polygon points="162.18 241.97 153.8 249.39 159.79 249.39 165.41 241.97 162.18 241.97" style="fill: #5abc29"/>
    <path d="M129.82,242H114.36l-2.42,7.42h20.24A12.79,12.79,0,0,1,129.82,242Z" style="fill: #5abc29"/>
    <polygon points="18 241.97 18 249.39 84.56 249.39 86.98 241.97 18 241.97" style="fill: #5abc29"/>
    <path d="M123.53,200a9.39,9.39,0,0,0,.5,1.19A8.68,8.68,0,0,0,135.72,205l31.54-16.25,35.4,14.44a8.68,8.68,0,0,0,6.56-16.08l-39.11-16a8.67,8.67,0,0,0-7.25.32l-13.63,7,4.14-26.24,47.56-1.54a5.67,5.67,0,0,0-.37-11.33L149,141l-23.71-3.74L99.93,96.58l62.42-36.07-2.49-4.29L97.3,92.37A5.66,5.66,0,0,0,87.5,98l-3.13,1.81,2.49,4.3,3.24-1.88,25.8,41.46-7.08,44.9L87.2,255.06a8.76,8.76,0,0,0,16.67,5.42Z" style="fill: #5abc29"/>
    <path d="M255.46,225.91l-4.58-7.79a18.88,18.88,0,0,1-1.65-2.37,20.8,20.8,0,0,1-1.23-2.51L243.15,205l-5.83-48a5.67,5.67,0,0,0-11.26,1.36l5.53,45.53-31.26,18.4-25.69-12.94a8.69,8.69,0,0,0-9.67,1.26l-28,24.81a8.68,8.68,0,1,0,11.52,13l23.6-20.9,21.81,11,1.91,3.24-18.71-1.51a8.69,8.69,0,0,0-7.62,3.41l-23.63,31.19a8.69,8.69,0,0,0,13.85,10.49l20.75-27.4,27.39,2.22q.43,0,.87,0a5.47,5.47,0,0,0,3.93-.63l38.88-22.89,41.81,22a5.67,5.67,0,1,0,5.28-10Z" style="fill: #5abc29"/>
    <path d="M269.08,182.49a1.06,1.06,0,1,0,2.09-.38L270,175.65l5.53,5.34a1,1,0,0,0,1.75-.46l1.66-5.57,2.88,6.27a1.08,1.08,0,0,0,.82.61,1.06,1.06,0,0,0,.95-.35l6.05-6.9-.78,8.83a1.05,1.05,0,0,0,.38.91,1.07,1.07,0,0,0,1,.21L298,182.4l-5.05,7.29a1.07,1.07,0,0,0,.69,1.65l7.45,1.35-8.72,4.53a1.07,1.07,0,0,0-.3,1.65l3.71,4.19-5.48-.39a1.08,1.08,0,0,0-1.14,1,1.07,1.07,0,0,0,1,1.14l8.08.58h.08a1.06,1.06,0,0,0,.79-1.76l-4.54-5.13,10.27-5.34a1.06,1.06,0,0,0-.3-2l-8.89-1.61,5.77-8.33a1.05,1.05,0,0,0,0-1.22,1.07,1.07,0,0,0-1.15-.41l-9.14,2.5.93-10.54a1.07,1.07,0,0,0-1.86-.8l-7.11,8.11-3.38-7.35a1.07,1.07,0,0,0-1-.62,1.08,1.08,0,0,0-.95.76l-2,6.61-6.64-6.42a1.06,1.06,0,0,0-1.79.95Z" style="fill: #5abc29"/>
    <path d="M141.83,100.4a1.06,1.06,0,0,0,.23-1.49l-3.86-5.3L145.5,96a1,1,0,0,0,1-.19,1.08,1.08,0,0,0,.36-1L146,89.1l5.32,4.41A1.07,1.07,0,0,0,153,93l2.46-8.83,3.12,8.29a1.07,1.07,0,0,0,1.7.43l6.1-5.3L165,96.31a1.06,1.06,0,0,0,1.33,1.19l7.3-2-5.89,7.86a1,1,0,0,0-.17.92,1.06,1.06,0,0,0,.61.7l5.17,2.17-5.12,2a1.06,1.06,0,0,0,.39,2,1,1,0,0,0,.39-.07l7.55-3a1.07,1.07,0,0,0,0-2l-6.32-2.65,6.94-9.26A1.07,1.07,0,0,0,176,92.61L167.32,95l1.6-10a1.07,1.07,0,0,0-.54-1.1,1,1,0,0,0-1.21.13L160,90.25l-3.73-9.9a1.05,1.05,0,0,0-1-.69,1.07,1.07,0,0,0-1,.78l-2.89,10.39-6.23-5.17a1.07,1.07,0,0,0-1.73,1l1.09,6.81-8.77-2.91a1.05,1.05,0,0,0-1.19.38,1.07,1.07,0,0,0,0,1.25l5.81,8A1.07,1.07,0,0,0,141.83,100.4Z" style="fill: #5abc29"/>
    <circle cx="148.61" cy="121.14" r="15.95" transform="translate(5.8 249.07) rotate(-81.04)" style="fill: #5abc29"/>
    <circle cx="266.66" cy="205.5" r="15.95" transform="translate(-67.39 163.68) rotate(-30.48)" style="fill: #5abc29"/>
  </g>
</svg>
