<svg xmlns="http://www.w3.org/2000/svg" viewBox="0 0 276 276"><defs><style>.cls-1{fill:none;}.cls-2{fill:#fff;}</style></defs><g id="Layer_2" data-name="Layer 2"><g id="Layer_1-2" data-name="Layer 1"><rect class="cls-1" width="276" height="276"/><path class="cls-2" d="M17.94,269H258.05a12.16,12.16,0,0,0,12.14-12.15V16.75A12.16,12.16,0,0,0,258.05,4.6H17.94A12.15,12.15,0,0,0,5.8,16.75v240.1A12.15,12.15,0,0,0,17.94,269Zm240.11-8H17.94a4.14,4.14,0,0,1-4.13-4.14V79.3H262.18V256.85A4.14,4.14,0,0,1,258.05,261ZM17.94,12.61H258.05a4.14,4.14,0,0,1,4.13,4.14V71.29H13.81V16.75A4.14,4.14,0,0,1,17.94,12.61Z"/><path class="cls-2" d="M124.74,46.92H246a4,4,0,1,0,0-8H124.74a4,4,0,0,0,0,8Z"/><path class="cls-2" d="M29,46.92H42.14a4,4,0,1,0,0-8H29a4,4,0,1,0,0,8Z"/><path class="cls-2" d="M59,46.92H72.19a4,4,0,0,0,0-8H59a4,4,0,0,0,0,8Z"/><path class="cls-2" d="M89.06,46.92h13.17a4,4,0,1,0,0-8H89.06a4,4,0,1,0,0,8Z"/><path class="cls-2" d="M193.24,159H179.92V135.5a41.93,41.93,0,0,0-83.85,0V159H82.75a4,4,0,0,0-4,4v80.73a4,4,0,0,0,4,4H193.24a4,4,0,0,0,4-4V163A4,4,0,0,0,193.24,159ZM104.08,135.5a33.91,33.91,0,0,1,67.82,0V159H104.08Zm85.15,104.24H86.76V167H189.23Z"/><path class="cls-2" d="M138,180.36a17.49,17.49,0,0,0-17.25,17.69A17.89,17.89,0,0,0,126,210.78l-2.77,10.61a4,4,0,0,0,.7,3.46,4,4,0,0,0,3.17,1.56h21.75a4,4,0,0,0,3.17-1.56,4,4,0,0,0,.7-3.46L150,210.78a17.89,17.89,0,0,0,5.28-12.73A17.49,17.49,0,0,0,138,180.36Zm5.15,25.72a4,4,0,0,0-1.56,4.29l2.1,8H132.31l2.1-8a4,4,0,0,0-1.57-4.29,9.81,9.81,0,0,1-4.09-8,9.25,9.25,0,1,1,18.49,0A9.8,9.8,0,0,1,143.14,206.08Z"/></g></g></svg>