<svg xmlns="http://www.w3.org/2000/svg" viewBox="0 0 276 276"><defs><style>.cls-1{fill:none;}.cls-2{fill:#fff;}</style></defs><g id="Layer_2" data-name="Layer 2"><g id="Layer_1-2" data-name="Layer 1"><rect class="cls-1" width="276" height="276"/><path class="cls-2" d="M255.81,19.19H239.42a8.2,8.2,0,0,0-8.19,8.2H207.51a12.29,12.29,0,0,1-6.82-2.07L184.37,14.44A20.44,20.44,0,0,0,173,11H112.42a12.3,12.3,0,0,0-12.29,12.29,12.17,12.17,0,0,0,.75,4.1h-13A12.25,12.25,0,0,0,76.45,44.25a12.22,12.22,0,0,0,0,23.63,11.83,11.83,0,0,0-.15,8.67H26.39V183.06h-8.2a8.2,8.2,0,0,0-8.19,8.2v65.55A8.19,8.19,0,0,0,18.19,265H34.58a8.19,8.19,0,0,0,8.19-8.19H68.29a12.1,12.1,0,0,1,4.57.88l14.61,5.84A20.26,20.26,0,0,0,95.09,265h78.78a12.3,12.3,0,0,0,12.29-12.29,12.17,12.17,0,0,0-.75-4.1h.75a12.25,12.25,0,0,0,11.39-16.86,12.22,12.22,0,0,0,0-23.63,11.83,11.83,0,0,0,.15-8.67h49.91V101.13h8.2A8.2,8.2,0,0,0,264,92.94V27.39A8.2,8.2,0,0,0,255.81,19.19ZM83.74,72.45a4.11,4.11,0,0,1,4.1-4.1h65.55V60.16H79.65a4.1,4.1,0,1,1,0-8.19h65.54v-8.2H87.84a4.1,4.1,0,1,1,0-8.19H158.3a57.61,57.61,0,0,0,21.31,32L184.52,61a49.7,49.7,0,0,1-18.92-30.3l-.66-3.29H112.42a4.1,4.1,0,0,1,0-8.2H173a12.23,12.23,0,0,1,6.81,2.07l16.33,10.88a20.4,20.4,0,0,0,11.36,3.44h23.72v41H87.84A4.11,4.11,0,0,1,83.74,72.45ZM18.19,256.81V191.26H34.58v65.55Zm172.07-53.26a4.11,4.11,0,0,1-4.1,4.1H128.81v8.19h65.54a4.1,4.1,0,1,1,0,8.19H128.81v8.2h57.35a4.1,4.1,0,1,1,0,8.19H128.81v8.19h45.06a4.1,4.1,0,1,1,0,8.2H95.09a12.25,12.25,0,0,1-4.56-.88l-14.62-5.85a20.26,20.26,0,0,0-7.62-1.47H42.77V199.45H66.49A20.4,20.4,0,0,0,77.85,196l16.32-10.88a12.29,12.29,0,0,1,6.82-2.07h60.59a4.1,4.1,0,0,1,0,8.2H112.42v8.19h73.74A4.11,4.11,0,0,1,190.26,203.55ZM96,138a41,41,0,1,1,58.91,36.84v0H119.24A41.07,41.07,0,0,1,96,138Zm143.39,53.26h-66.3a12,12,0,0,0-5.53-14.75A49.17,49.17,0,1,0,87.84,138a49.32,49.32,0,0,0,16.66,36.87H101a20.4,20.4,0,0,0-11.36,3.44L73.31,189.19a12.19,12.19,0,0,1-6.82,2.07H42.77a8.2,8.2,0,0,0-8.19-8.2V84.74H239.42Zm16.39-98.32h-8.2V76.55h-8.19V27.39h16.39Z"/><path class="cls-2" d="M143.15,133.9h-12.3a6.15,6.15,0,0,1,0-12.29h12.3a6.16,6.16,0,0,1,6.14,6.15h8.19a14.35,14.35,0,0,0-14.33-14.34H141.1v-8.19h-8.2v8.19h-2.05a14.34,14.34,0,0,0,0,28.68h12.3a6.15,6.15,0,0,1,0,12.29h-12.3a6.16,6.16,0,0,1-6.14-6.15h-8.19a14.35,14.35,0,0,0,14.33,14.34h2.05v8.19h8.2v-8.19h2.05a14.34,14.34,0,0,0,0-28.68Z"/><polygon class="cls-2" points="42.77 113.42 50.97 113.42 50.97 101.13 63.26 101.13 63.26 92.94 42.77 92.94 42.77 113.42"/><polygon class="cls-2" points="50.97 162.58 42.77 162.58 42.77 183.06 63.26 183.06 63.26 174.87 50.97 174.87 50.97 162.58"/><polygon class="cls-2" points="223.03 113.42 231.23 113.42 231.23 92.94 210.74 92.94 210.74 101.13 223.03 101.13 223.03 113.42"/><polygon class="cls-2" points="231.23 162.58 223.03 162.58 223.03 174.87 210.74 174.87 210.74 183.06 231.23 183.06 231.23 162.58"/></g></g></svg>