<svg xmlns="http://www.w3.org/2000/svg" viewBox="0 0 276 276"><defs><style>.cls-1{fill:none;}.cls-2{fill:#fff;}</style></defs><g id="Layer_2" data-name="Layer 2"><g id="Layer_1-2" data-name="Layer 1"><rect class="cls-1" width="276" height="276"/><path class="cls-2" d="M71.68,14a4.12,4.12,0,0,0-4.1,4.1V34.58a4.12,4.12,0,0,0,4.1,4.13H186.94V236.29H170.47V174.54a4.12,4.12,0,0,0-4.1-4.1H108.52a4.14,4.14,0,0,0-3.9,4.1V234c0,5.49,8.23,5.49,8.23,0V178.68h20.58v57.61H88.15V39a4.12,4.12,0,1,0-8.24,0V71.62H18.16a4.12,4.12,0,0,0-4.1,4.13V92.22a4.12,4.12,0,0,0,4.1,4.11H82.58a4.12,4.12,0,0,0,0-8.24H22.26V79.85H79.91V236.29H30.5V94.62c0-5.49-8.24-5.49-8.24,0V236.29h-4.1a4.12,4.12,0,0,0-4.1,4.14h0v16.44a4.12,4.12,0,0,0,4.1,4.13H256.93a4.12,4.12,0,0,0,4.13-4.1V240.43a4.11,4.11,0,0,0-4.09-4.14h-4.14v-140h4.1a4.13,4.13,0,0,0,4.13-4.11V75.75a4.11,4.11,0,0,0-4.13-4.13H195.18V38.71h8.23a4.11,4.11,0,0,0,4.1-4.13V18.1a4.12,4.12,0,0,0-4.1-4.1Zm4.13,8.24h123.5v8.24H75.81Zm53.3,32.94a4.15,4.15,0,0,0-3.92,4.1V71.62H112.85a4.11,4.11,0,0,0-4.13,4.13V92.23a4.12,4.12,0,0,0,4.13,4.1h12.34v12.36a4.11,4.11,0,0,0,4.14,4.1h16.43a4.11,4.11,0,0,0,4.14-4.1V96.33h12.34a4.12,4.12,0,0,0,4.13-4.1V75.75a4.11,4.11,0,0,0-4.13-4.13H149.9V59.28a4.12,4.12,0,0,0-4.14-4.1Zm4.32,8.24h8.23V75.75a4.12,4.12,0,0,0,4.1,4.1h12.38v8.24H145.76a4.12,4.12,0,0,0-4.1,4.14v12.33h-8.23V92.23a4.12,4.12,0,0,0-4.1-4.14H117V79.85h12.38a4.12,4.12,0,0,0,4.1-4.1Zm61.75,16.43h57.65v8.24H192.51c-5.49,0-5.49,8.24,0,8.24h52.08v140H195.18ZM47,112.79a4.13,4.13,0,0,0-4.1,4.14v16.44A4.12,4.12,0,0,0,47,137.5H63.44a4.13,4.13,0,0,0,4.14-4.13V116.93a4.14,4.14,0,0,0-4.14-4.14Zm164.68,0a4.12,4.12,0,0,0-4.14,4.1v16.48a4.12,4.12,0,0,0,4.1,4.13h16.51a4.12,4.12,0,0,0,4.1-4.13V116.93a4.12,4.12,0,0,0-4.09-4.14H211.65ZM51.1,121h8.24v8.24H51.1Zm164.65,0H224v8.24h-8.24Zm-107,8.24a4.12,4.12,0,0,0-4.1,4.1v16.47a4.12,4.12,0,0,0,4.1,4.14h16.47a4.12,4.12,0,0,0,4.14-4.1V133.37a4.11,4.11,0,0,0-4.13-4.1H108.72Zm41.18,0a4.12,4.12,0,0,0-4.14,4.1v16.47a4.12,4.12,0,0,0,4.1,4.14h16.51a4.12,4.12,0,0,0,4.1-4.14V133.37a4.12,4.12,0,0,0-4.1-4.1Zm-37.05,8.23h8.24v8.24h-8.24Zm41.15,0h8.24v8.24H154ZM47,149.84a4.12,4.12,0,0,0-4.1,4.14v16.46a4.11,4.11,0,0,0,4.1,4.1H63.44a4.12,4.12,0,0,0,4.14-4.1V154a4.13,4.13,0,0,0-4.14-4.14Zm164.68,0a4.12,4.12,0,0,0-4.14,4.1v16.5a4.11,4.11,0,0,0,4.14,4.1h16.47a4.12,4.12,0,0,0,4.1-4.1V154a4.12,4.12,0,0,0-4.1-4.14ZM51.1,158.08h8.24v8.23H51.1Zm164.65,0H224v8.23h-8.24Zm-74.09,20.6h20.58v57.61H141.66Zm-94.89,8.24a4.14,4.14,0,0,0-3.9,4.1v16.47a4.11,4.11,0,0,0,4.1,4.1H63.44a4.12,4.12,0,0,0,4.14-4.1V191a4.12,4.12,0,0,0-4.14-4.1Zm164.67,0a4.15,4.15,0,0,0-3.93,4.1v16.47a4.11,4.11,0,0,0,4.14,4.1h16.47a4.11,4.11,0,0,0,4.1-4.1V191a4.12,4.12,0,0,0-4.1-4.1ZM51.1,195.12h8.24v8.23H51.1Zm164.65,0H224v8.23h-8.24ZM22.26,244.53H252.83v8.24H22.26Z"/></g></g></svg>