<?xml version="1.0" encoding="utf-8"?>
<!-- Generator: Adobe Illustrator 25.2.3, SVG Export Plug-In . SVG Version: 6.00 Build 0)  -->
<svg version="1.1" id="Camada_1" xmlns="http://www.w3.org/2000/svg" xmlns:xlink="http://www.w3.org/1999/xlink" x="0px" y="0px"
	 viewBox="0 0 720 716" style="enable-background:new 0 0 720 716;" xml:space="preserve">
<style type="text/css">
	.st0{fill:#5ABC29;}
	.st1{fill:#2DBC14;}
	.st2{fill:#2DBC14;stroke:#FFFFFF;stroke-width:6;stroke-miterlimit:10;}
</style>
<g id="Layer_2">
	<g id="Layer_1-2">
		<rect class="st0" width="720" height="716"/>
		<circle class="st1" cx="359" cy="358" r="284.5"/>
		<rect x="238.7" y="288.2" class="st2" width="38.8" height="131"/>
		<path class="st2" d="M277.5,421.6h-38.8c-1.4,0-2.5-1.1-2.5-2.5v-131c0-1.4,1.1-2.5,2.5-2.5h38.8c1.4,0,2.5,1.1,2.5,2.5v131
			C280,420.5,278.9,421.6,277.5,421.6z M241.2,416.6H275v-126h-33.8V416.6z"/>
		<rect x="305" y="288.2" class="st2" width="38.8" height="131"/>
		<path class="st2" d="M343.8,421.6H305c-1.4,0-2.5-1.1-2.5-2.5v-131c0-1.4,1.1-2.5,2.5-2.5h38.8c1.4,0,2.5,1.1,2.5,2.5v131
			C346.3,420.5,345.2,421.6,343.8,421.6z M307.5,416.6h33.8v-126h-33.8V416.6z"/>
		<rect x="371.3" y="288.2" class="st2" width="38.8" height="131"/>
		<path class="st2" d="M410.1,421.6h-38.8c-1.4,0-2.5-1.1-2.5-2.5v-131c0-1.4,1.1-2.5,2.5-2.5h38.8c1.4,0,2.5,1.1,2.5,2.5v131
			C412.6,420.5,411.4,421.6,410.1,421.6z M373.8,416.6h33.8v-126h-33.8V416.6z"/>
		<rect x="437.5" y="288.2" class="st2" width="38.8" height="131"/>
		<path class="st2" d="M476.3,421.6h-38.8c-1.4,0-2.5-1.1-2.5-2.5v-131c0-1.4,1.1-2.5,2.5-2.5h38.8c1.4,0,2.5,1.1,2.5,2.5v131
			C478.8,420.5,477.7,421.6,476.3,421.6z M440,416.6h33.8v-126H440V416.6z"/>
		<rect x="232.2" y="408.6" class="st2" width="51.7" height="21"/>
		<path class="st2" d="M284,432.2h-51.7c-1.4,0-2.5-1.1-2.5-2.5v-21c0-1.4,1.1-2.5,2.5-2.5H284c1.4,0,2.5,1.1,2.5,2.5v21
			C286.5,431,285.3,432.2,284,432.2z M234.7,427.1h46.7v-16h-46.7V427.1z"/>
		<rect x="298.5" y="408.6" class="st2" width="51.7" height="21"/>
		<path class="st2" d="M350.2,432.2h-51.7c-1.4,0-2.5-1.1-2.5-2.5v-21c0-1.4,1.1-2.5,2.5-2.5h51.7c1.4,0,2.5,1.1,2.5,2.5v21
			C352.7,431,351.6,432.2,350.2,432.2z M301,427.1h46.7v-16H301V427.1z"/>
		<rect x="364.8" y="408.6" class="st2" width="51.7" height="21"/>
		<path class="st2" d="M416.5,432.2h-51.7c-1.4,0-2.5-1.1-2.5-2.5v-21c0-1.4,1.1-2.5,2.5-2.5h51.7c1.4,0,2.5,1.1,2.5,2.5v21
			C419,431,417.9,432.2,416.5,432.2z M367.3,427.1H414v-16h-46.7V427.1z"/>
		<rect x="431.1" y="408.6" class="st2" width="51.7" height="21"/>
		<path class="st2" d="M482.8,432.2h-51.7c-1.4,0-2.5-1.1-2.5-2.5v-21c0-1.4,1.1-2.5,2.5-2.5h51.7c1.4,0,2.5,1.1,2.5,2.5v21
			C485.3,431,484.2,432.2,482.8,432.2z M433.6,427.1h46.7v-16h-46.7V427.1z"/>
		<rect x="232.2" y="270.4" class="st2" width="51.7" height="21"/>
		<path class="st2" d="M284,293.9h-51.7c-1.4,0-2.5-1.1-2.5-2.5v-21c0-1.4,1.1-2.5,2.5-2.5H284c1.4,0,2.5,1.1,2.5,2.5v21
			C286.5,292.8,285.4,293.9,284,293.9z M234.7,288.9h46.7v-16h-46.7V288.9z"/>
		<rect x="298.5" y="270.4" class="st2" width="51.7" height="21"/>
		<path class="st2" d="M350.3,293.9h-51.7c-1.4,0-2.5-1.1-2.5-2.5v-21c0-1.4,1.1-2.5,2.5-2.5h51.7c1.4,0,2.5,1.1,2.5,2.5v21
			C352.8,292.8,351.6,293.9,350.3,293.9z M301,288.9h46.7v-16H301V288.9z"/>
		<rect x="364.8" y="270.4" class="st2" width="51.7" height="21"/>
		<path class="st2" d="M416.5,293.9h-51.7c-1.4,0-2.5-1.1-2.5-2.5v-21c0-1.4,1.1-2.5,2.5-2.5h51.7c1.4,0,2.5,1.1,2.5,2.5v21
			C419,292.8,417.9,293.9,416.5,293.9z M367.3,288.9H414v-16h-46.7V288.9z"/>
		<rect x="431.1" y="270.4" class="st2" width="51.7" height="21"/>
		<path class="st2" d="M482.8,293.9h-51.7c-1.4,0-2.5-1.1-2.5-2.5v-21c0-1.4,1.1-2.5,2.5-2.5h51.7c1.4,0,2.5,1.1,2.5,2.5v21
			C485.3,292.8,484.2,293.9,482.8,293.9z M433.6,288.9h46.7v-16h-46.7V288.9z"/>
		<polygon class="st2" points="358.5,162.5 194.7,270.4 358.5,270.4 522.3,270.4 		"/>
		<path class="st2" d="M522.3,272.9H194.7c-1.1,0-2.1-0.7-2.4-1.8c-0.3-1.1,0.1-2.2,1-2.8l163.8-107.9c0.8-0.6,1.9-0.6,2.8,0
			l163.8,107.9c0.9,0.6,1.3,1.7,1,2.8C524.4,272.2,523.4,272.9,522.3,272.9z M203,267.9h311L358.5,165.5L203,267.9z"/>
		<polygon class="st2" points="358.5,162.5 194.7,270.4 220.1,270.4 358.5,183.4 496.9,270.4 522.3,270.4 		"/>
		<path class="st2" d="M522.3,272.9h-25.4c-0.5,0-0.9-0.1-1.3-0.4l-137.1-86.1l-137.1,86.1c-0.4,0.3-0.9,0.4-1.3,0.4h-25.4
			c-1.1,0-2.1-0.7-2.4-1.8c-0.3-1.1,0.1-2.2,1-2.8l163.8-107.9c0.8-0.6,1.9-0.6,2.8,0l163.8,107.9c0.9,0.6,1.3,1.7,1,2.8
			C524.4,272.2,523.4,272.9,522.3,272.9z M497.6,267.9H514L358.5,165.5L203,267.9h16.3l137.8-86.6c0.8-0.5,1.8-0.5,2.7,0
			L497.6,267.9z"/>
		<rect x="203.8" y="429.6" class="st2" width="309.4" height="22.6"/>
		<path class="st2" d="M513.2,454.8H203.8c-1.4,0-2.5-1.1-2.5-2.5v-22.6c0-1.4,1.1-2.5,2.5-2.5h309.4c1.4,0,2.5,1.1,2.5,2.5v22.6
			C515.7,453.7,514.6,454.8,513.2,454.8z M206.3,449.8h304.4v-17.6H206.3V449.8z"/>
		<rect x="187" y="452.3" class="st2" width="349.2" height="25.9"/>
		<path class="st2" d="M536.2,480.7H187c-1.4,0-2.5-1.1-2.5-2.5v-25.9c0-1.4,1.1-2.5,2.5-2.5h349.2c1.4,0,2.5,1.1,2.5,2.5v25.9
			C538.7,479.5,537.6,480.7,536.2,480.7z M189.5,475.7h344.2v-20.9H189.5V475.7z"/>
	</g>
</g>
</svg>
