<svg xmlns="http://www.w3.org/2000/svg" viewBox="0 0 720 716"><defs><style>.cls-1{fill:#5abc29;}.cls-2{fill:#2dbc14;}.cls-3{fill:none;}.cls-4{fill:#fff;}</style></defs><g id="Layer_2" data-name="Layer 2"><g id="Layer_1-2" data-name="Layer 1"><rect class="cls-1" width="720" height="716"/><circle class="cls-2" cx="360" cy="358" r="284.5"/><path class="cls-3" d="M151.72,229.24c11.37,0,13.09,13.51,14,20.89v1.16a73,73,0,0,0,2-24.63,3.44,3.44,0,0,0-1.45-3c-3.35-2.54-11.29-1.85-15.58-1a18.83,18.83,0,0,0-6.6,8.83,16.23,16.23,0,0,1,6.22-2.18Z"/><path class="cls-3" d="M232.8,308.17a20.62,20.62,0,0,1,3.22-6.61l-14.71-4.46Z"/><path class="cls-3" d="M350.48,297.14l-15.06,4.29a21.38,21.38,0,0,1,3.22,6.74Z"/><path class="cls-3" d="M180.08,357.68c5.4-.65,8.79-7.55,8.58-17.55-.39-21.45-12.31-53.62-20.16-72.54-3.61,23.59-7.81,27.67-11.67,29.17a9.84,9.84,0,0,1-3.48.64,9.58,9.58,0,0,1-2.44-.34c2,10,4,20.63,6.3,31.1C161.8,348.54,172.4,358.62,180.08,357.68Z"/><path class="cls-3" d="M158.12,263.3a24.9,24.9,0,0,1-3.35-11.71c-.73-5.92-1.5-11.5-3.82-11.5a20.23,20.23,0,0,0-3.95,2,23.94,23.94,0,0,1-6.17,2.88c4.5,26.77,9.13,38.39,12,41.31A78.76,78.76,0,0,0,158.12,263.3Z"/><path class="cls-3" d="M147.73,169.22l22.44-.86c5.06-39.17-10-61.65-21.79-72.93,3.47,20,2.06,48.18-3.48,57.44a8.58,8.58,0,0,1-8.23,4.94c-7.64-.69-10.73-9-11.93-17.55a53,53,0,0,0-.52,29.82Z"/><path class="cls-3" d="M135.38,201.44c.68,6.95,1.41,13.38,2.14,19.34a27.76,27.76,0,0,1,8.37-7.85,4.22,4.22,0,0,1,1.33-.51,47.5,47.5,0,0,1,11.14-1.17c1.48,0,3,.11,4.43.27.09-1.51.2-3,.29-4.55.15-2.19.27-4.4.27-6.61Z"/><path class="cls-3" d="M181,388.69a49.7,49.7,0,0,0,8.07-23.29,17.4,17.4,0,0,1-9.87,3c-8.92,0-19.31-6.39-26.47-20.67v.85a120.57,120.57,0,0,0,12.4,50.45A26.63,26.63,0,0,0,181,388.69Z"/><path class="cls-3" d="M176,189l-.38-9.83L122.17,181v10l53.49-1.84A3.88,3.88,0,0,0,176,189Z"/><path class="cls-3" d="M266,391l-3.86,17.16c8.79,3.3,17.59,6.52,21,7.59,3.82-1.24,10.76-2.87,23.29-5.53l-4.72-17.51a42.25,42.25,0,0,1-16,3.26l.17,0A41.92,41.92,0,0,1,266,391Z"/><path class="cls-3" d="M242.33,400.06c-2.45,19.73-11.29,47.28-23.9,62.25h17.16c14.59-11.41,15.19-40.28,15.19-48.39A56.7,56.7,0,0,1,242.33,400.06Z"/><path class="cls-3" d="M196,315.81a131.83,131.83,0,0,1,3.22,20.24c.51,2.92,6,37.84-9.7,59a37.26,37.26,0,0,1-19.48,13.6,79.86,79.86,0,0,0,14.76,19.09c3.69,3.26,9.22,7,14.42,6.26,2.57,0,5.32-3.3,7.67-8.58,11.63-26,9-87.72.78-100.17A21.85,21.85,0,0,0,196,315.81Z"/><path class="cls-3" d="M313,320.22a64.84,64.84,0,0,0-27.16-5.31c-18.19,0-37.54,6.3-37.54,18,0,35.91,19.44,52.25,37.54,52.25s37.54-16.38,37.54-52.08C323.41,327.82,319.89,323.57,313,320.22Z"/><path class="cls-3" d="M284.28,426.87c-2.57,0-7.76-1.76-22.82-7.46-.34,10.51-2.36,29.47-11.5,42.9l20.38.17c29.13-13.94,35.86-31.92,37.32-41.23L286,426.44A3.36,3.36,0,0,1,284.28,426.87Z"/><path class="cls-3" d="M328.08,318.08l.47-2a10.23,10.23,0,0,0-3-10,56.53,56.53,0,0,0-39.68-14.58A56.66,56.66,0,0,0,246,306.15a10.4,10.4,0,0,0-3,10l.64,2c8.84-9.61,25.79-13.9,42.26-13.9S319.29,308.64,328.08,318.08Z"/><path class="cls-3" d="M285.87,280.76c1.89,0,3.6.13,5.23.25l-5.4-27.32L280.29,281a38.27,38.27,0,0,1,5.41-.25Z"/><path class="cls-3" d="M326.92,263.25l-16.43,21.67a68.17,68.17,0,0,1,10.3,4.67Z"/><path class="cls-3" d="M261.07,285.05l-16.21-21.8,5.92,26.43A69.32,69.32,0,0,1,261.07,285.05Z"/><path class="cls-4" d="M158.36,211.25a47.5,47.5,0,0,0-11.14,1.17,4.22,4.22,0,0,0-1.33.51,27.76,27.76,0,0,0-8.37,7.85c-.73-6-1.46-12.39-2.14-19.34l28-1.08c0,2.21-.12,4.42-.27,6.61a153.77,153.77,0,0,1,23.41-16.71,11.27,11.27,0,0,0,.07-1.65l-.39-9.82a10.7,10.7,0,0,0-3.47-7.6,9.5,9.5,0,0,0-2-1.41c8.84-68.34-39.64-93-40.11-93.22a5.33,5.33,0,0,0-6.39,1.28,5.24,5.24,0,0,0-.43,6.48c7.21,10.85,6.86,49.29,3.05,60.66a62.09,62.09,0,0,1-1.8-20.72,5.37,5.37,0,0,0-3-5.15,5.3,5.3,0,0,0-5.88.77c-19.77,17.16-14.67,44.28-12.05,54a10.86,10.86,0,0,0-3,7.72l.38,9.87a10.87,10.87,0,0,0,10.86,10.47h2.27a447.44,447.44,0,0,0,5.87,44.82A152.29,152.29,0,0,1,158.36,211.25Zm-33.62-71c1.2,8.58,4.29,16.86,11.93,17.55a8.58,8.58,0,0,0,8.23-4.94c5.54-9.26,6.95-37.45,3.48-57.44,11.75,11.28,26.85,33.76,21.79,72.93l-22.44.86-23.51.86A53,53,0,0,1,124.74,140.26Zm-2.57,50.79V181l53.45-1.85L176,189a3.88,3.88,0,0,1-.34.21Z"/><path class="cls-4" d="M334.13,340,338,324.17l36.51-34.06a5.37,5.37,0,0,0-5.11-9.1l-37.79,10.56,11.67-50.15a5.38,5.38,0,0,0-3-6,5.27,5.27,0,0,0-6.52,1.59l-32,42.12L291.1,225a5.36,5.36,0,0,0-10.51,0L270,278.7l-31.75-41.83a5.32,5.32,0,0,0-6.56-1.59,5.39,5.39,0,0,0-3,6.05l11.67,50.24L202.82,280.8a5.36,5.36,0,0,0-5.15,9.09l36.21,33.77,3.86,16.13a68.19,68.19,0,0,0,14.41,39.81,50.32,50.32,0,0,0,4.29,4.59l-3.22,14.37a317.67,317.67,0,0,1-12.87-31.62c0-.25-.25-.43-.34-.64a91.57,91.57,0,0,0-20.42-41.14,28.63,28.63,0,0,0-2.83-5.84A31.12,31.12,0,0,0,196,304.65a9.68,9.68,0,0,1-2.92-.3,413.72,413.72,0,0,0-17.67-48.17,79.4,79.4,0,0,0,3-30,14.48,14.48,0,0,0-5-10.39c.3-5.53.55-10.89.77-15.78h2.06a10.89,10.89,0,0,0,10.27-9.72A153.77,153.77,0,0,0,163.08,207c-.09,1.52-.2,3-.29,4.55-1.47-.16-2.95-.25-4.43-.27a152.29,152.29,0,0,0-27.88,35.48q2.22,12.21,5.11,24.29c2.19,13.9,5.28,31.7,9,49.76A114.4,114.4,0,0,0,142,348.45a106.27,106.27,0,0,0,3.31,27.16v1.33a133.66,133.66,0,0,0,6.6,36.33l-1.34,11q4.59,5,9.61,9.59v-.13l.14.27a151.68,151.68,0,0,0,24.95,18.45,91.9,91.9,0,0,1-17.45-27.51,75.94,75.94,0,0,0,9.91,11A30.67,30.67,0,0,0,197.84,445a24.36,24.36,0,0,0,3,0c6.52-.94,11.88-6,15.92-15,8-17.85,10.25-50.19,8.1-75.93a92.94,92.94,0,0,1,7.3,36.42c0,23.89-15.33,64.49-28.94,70.95A151,151,0,0,0,250.3,473h24.43A150.75,150.75,0,0,0,320,462.26l-28.54.05c21-15.06,26-32.05,27-41.49,15.1,3.52,33.59,10.3,36.51,17.16.43,1.06.82,2.13,1.23,3.2q4.49-3.54,8.71-7.4c-6.25-14.27-35.78-21.76-47.09-24.15l-6-22.44C323.58,378.61,332.59,362.87,334.13,340Zm16.35-42.86-11.84,11a21.38,21.38,0,0,0-3.22-6.74Zm-117.68,11L221.31,297.1,236,301.56A20.62,20.62,0,0,0,232.8,308.17Zm-82.11-85.58c4.29-.82,12.23-1.51,15.58,1a3.44,3.44,0,0,1,1.45,3,73,73,0,0,1-2,24.63v-1.16c-.94-7.38-2.66-20.89-14-20.89h-1.41a16.23,16.23,0,0,0-6.22,2.18A18.83,18.83,0,0,1,150.69,222.59Zm-9.86,22.35a23.94,23.94,0,0,0,6.17-2.88,20.23,20.23,0,0,1,3.95-2c2.32,0,3.09,5.58,3.82,11.5a24.9,24.9,0,0,0,3.35,11.71,78.76,78.76,0,0,1-5.28,22.95C150,283.33,145.33,271.71,140.83,244.94Zm10.08,52.12a9.58,9.58,0,0,0,2.44.34,9.84,9.84,0,0,0,3.48-.64c3.86-1.5,8.06-5.58,11.67-29.17,7.85,18.92,19.77,51.09,20.16,72.54.21,10-3.18,16.9-8.58,17.55-7.68.94-18.28-9.14-22.87-29.52C154.9,317.69,152.92,307.1,150.91,297.06Zm14.2,102a120.57,120.57,0,0,1-12.4-50.45v-.85c7.16,14.28,17.55,20.67,26.47,20.67a17.4,17.4,0,0,0,9.87-3A49.7,49.7,0,0,1,181,388.69,26.63,26.63,0,0,1,165.11,399.07Zm41.82,26.34c-2.35,5.28-5.1,8.58-7.67,8.58-5.2.78-10.73-3-14.42-6.26a79.86,79.86,0,0,1-14.76-19.09A37.26,37.26,0,0,0,189.56,395c15.66-21.15,10.21-56.07,9.7-59A131.83,131.83,0,0,0,196,315.81a21.85,21.85,0,0,1,11.67,9.43C215.94,337.69,218.56,399.46,206.93,425.41Zm120-162.16-6.13,26.34a68.17,68.17,0,0,0-10.3-4.67Zm-41.22-9.56L291.1,281c-1.63-.12-3.34-.25-5.23-.25h-.17a38.27,38.27,0,0,0-5.41.25Zm-24.63,31.36a69.32,69.32,0,0,0-10.29,4.63l-5.92-26.43ZM243,316.11a10.4,10.4,0,0,1,3-10,56.66,56.66,0,0,1,39.9-14.58,56.53,56.53,0,0,1,39.68,14.58,10.23,10.23,0,0,1,3,10l-.47,2c-8.79-9.44-25.74-13.9-42.21-13.9s-33.42,4.29-42.26,13.9Zm-7.38,146.2H218.43c12.61-15,21.45-42.52,23.9-62.25a56.7,56.7,0,0,0,8.45,13.86C250.78,422,250.18,450.9,235.59,462.31Zm34.75.17L250,462.31c9.14-13.43,11.16-32.39,11.5-42.9,15.06,5.7,20.25,7.46,22.82,7.46a3.36,3.36,0,0,0,1.72-.43l21.66-5.19C306.2,430.56,299.47,448.54,270.34,462.48Zm31.4-69.8,4.72,17.51c-12.53,2.66-19.47,4.29-23.29,5.53-3.43-1.07-12.23-4.29-21-7.59L266,391a41.92,41.92,0,0,0,19.86,4.93l-.17,0A42.25,42.25,0,0,0,301.74,392.68Zm-15.87-7.51c-18.1,0-37.54-16.34-37.54-52.25,0-11.71,19.35-18,37.54-18A64.84,64.84,0,0,1,313,320.22c6.86,3.35,10.38,7.6,10.38,12.87C323.41,368.79,303.93,385.17,285.87,385.17Z"/><polygon class="cls-3" points="485.26 393.25 481.89 379.77 473.8 393.25 485.26 393.25"/><path class="cls-3" d="M457,285c11,0,11.55-1.76,11.55-5.13,0-1.82-2.09-3.58-5.56-6.24a43.48,43.48,0,0,1-6-5.26,44.12,44.12,0,0,1-6,5.26c-3.46,2.67-5.56,4.42-5.56,6.24C445.43,283.26,446,285,457,285Z"/><polygon class="cls-3" points="450.88 393.25 463.67 393.25 457.33 377.63 450.88 393.25"/><polygon class="cls-3" points="432.59 379.69 429.2 393.25 440.73 393.25 432.59 379.69"/><path class="cls-3" d="M436.33,368.39l8.92,14.86,8-19.23a4.49,4.49,0,0,1,4.16-2.79h0a4.5,4.5,0,0,1,4.16,2.81l7.77,19.15,8.89-14.81a4.09,4.09,0,0,1,.66-.72L465,312.14H449.48L435.61,367.6A4.18,4.18,0,0,1,436.33,368.39Z"/><path class="cls-3" d="M459.49,298.87V294l-2.5,0h-2v9.09h4.51Z"/><rect class="cls-3" x="351.29" y="501.49" width="49.61" height="13.53"/><path class="cls-3" d="M396.86,443.48a2.24,2.24,0,0,1-.3-.33c-.76-.59-1.52-1.16-2.27-1.77a142.31,142.31,0,0,1,2.09,21.78c0,9.93-2,21.78-3.35,28.8a65.22,65.22,0,0,0,9.42-1.39c1.27-5.14,2.95-13.2,2.95-19.73a67.77,67.77,0,0,0-1.13-11.14C403.27,455.62,400.71,446.75,396.86,443.48Z"/><path class="cls-3" d="M378.35,492.46c1.87,0,3.65,0,5.39,0,1.25-6.13,3.63-19.06,3.63-29.26,0-9.49-2.06-21.33-3.35-27.86-.5-2.6-1.55-4.71-3.59-8a1.4,1.4,0,0,1-.09-.17c-.71-1-1.39-2.05-2-3.14a35.8,35.8,0,0,1-2.11,3.32.36.36,0,0,1,0,.07,23.73,23.73,0,0,0-3.37,7.1c-1.28,6.33-3.5,18.75-3.5,28.63,0,10.2,2.37,23.13,3.63,29.26C374.7,492.45,376.48,492.46,378.35,492.46Z"/><path class="cls-3" d="M363.67,492c-1.38-7-3.36-18.87-3.36-28.8a142.17,142.17,0,0,1,2.1-21.77c-.74.59-1.47,1.15-2.21,1.72a4,4,0,0,1-.35.38c-4,3.35-6.53,12.6-7.48,16.51a66.56,66.56,0,0,0-1.08,10.85c0,6.52,1.69,14.58,2.95,19.72A65.37,65.37,0,0,0,363.67,492Z"/><path class="cls-3" d="M343.76,456.9c-3.65,4-6,8.1-6,13,0,7.57,2.07,12.65,6.22,16.05a83.38,83.38,0,0,1-1.71-15.13A79.33,79.33,0,0,1,343.76,456.9Z"/><path class="cls-3" d="M351.07,524l-1.7,34a138.87,138.87,0,0,0,55.44,39.88L401.12,524Z"/><path class="cls-3" d="M515.9,560.12H441.73c-.1,0-.18,0-.28,0s-.19,0-.28,0H412L414,601.19a138.08,138.08,0,0,0,105.93-9.85L516.68,560A4.32,4.32,0,0,1,515.9,560.12Z"/><path class="cls-3" d="M531.31,515.08l-4.37,56.43,1.54,14.87a139.37,139.37,0,0,0,39-36.69l-3.84-34.61Z"/><path class="cls-3" d="M553.78,449.17a38.32,38.32,0,0,1-4.06-5c-3.74,5.67-9.25,10.06-14.38,14.12-6.8,5.41-12.68,10.08-12.68,16.15a22,22,0,0,0,.36,4.19c5.74-4,13.35-9.62,18.91-15.18A128,128,0,0,0,553.78,449.17Z"/><rect class="cls-3" x="531.65" y="497.04" width="31.57" height="9.02"/><path class="cls-3" d="M562.58,480a111.08,111.08,0,0,1-9,7.92c17.86-.24,23.2-2.5,23.2-13.5,0-2.71-1.21-5.14-3.12-7.48A124.81,124.81,0,0,1,562.58,480Z"/><path class="cls-3" d="M528.62,485.72c2.47,1.07,5.83,1.66,10.29,2a140.19,140.19,0,0,0,17.29-14,122,122,0,0,0,10.89-12.95c-1-.8-2-1.59-3-2.41-1.21-1-2.43-1.93-3.66-2.94a132,132,0,0,1-12.13,14.48A153.88,153.88,0,0,1,528.62,485.72Z"/><path class="cls-3" d="M442,416.75a19.7,19.7,0,0,1,30.53-.05,18.9,18.9,0,0,1,15.26-7.23,21.17,21.17,0,0,1,4.52.55l-.79-7.69H423.06l-.67,7.64a21.55,21.55,0,0,1,4.35-.49A18.86,18.86,0,0,1,442,416.75Z"/><path class="cls-3" d="M440.66,471.94c3.32-4.92,9.49-8.27,16.65-8.27s13.28,3.33,16.61,8.21c3.32-4.89,9.49-8.22,16.62-8.22A22.31,22.31,0,0,1,498,465l-1.66-16h0c-1.64-2.16-4.75-3.5-8.14-3.5-5,0-9.18,2.95-9.18,6.43,0,.07.05.82.05,1.14a6.32,6.32,0,1,1-12.63,0c0-.32.06-1.07.06-1.13,0-3.49-4.21-6.43-9.19-6.43s-9.18,2.94-9.18,6.43c0,.11,0,.85,0,1.13a6.31,6.31,0,1,1-12.62,0c0-.29,0-1,0-1.13,0-3.49-4.21-6.43-9.19-6.43a10.83,10.83,0,0,0-7.26,2.55l0,0-.18,2v0c3.9,4.07,7,8.57,8.31,13.87A19.4,19.4,0,0,1,440.66,471.94Z"/><path class="cls-3" d="M436.94,528.55a4.51,4.51,0,0,1,9,0V551.1h22.58l0-22.49a4.5,4.5,0,0,1,4.5-4.51h0a4.51,4.51,0,0,1,4.51,4.5l0,22.5h38.2L511.08,506H409.91v13.44l1.59,31.66h25.44Z"/><path class="cls-3" d="M441.83,443.84a19.87,19.87,0,0,1,30.92,0,19,19,0,0,1,15.45-7.38,20.75,20.75,0,0,1,7,1.3l-1.84-17.82a11.39,11.39,0,0,0-5.54-1.4c-4.89,0-9,2.88-9,6.29,0,.15,0,.89,0,1.13a6.24,6.24,0,1,1-12.47,0V424.8c0-3.41-4.13-6.3-9-6.3s-9,2.89-9,6.3c0,.17,0,.9,0,1.11a6.23,6.23,0,1,1-12.46,0c0-.22,0-1,0-1.11,0-3.41-4.13-6.3-9-6.3a11.41,11.41,0,0,0-5.21,1.3L420,437.46a21.08,21.08,0,0,1,6.37-1A19,19,0,0,1,441.83,443.84Z"/><path class="cls-3" d="M501.32,497,499.16,476s-.08,0-.1-.06a11.76,11.76,0,0,0-8.52-3.3c-5.54,0-10.22,3.32-10.22,7.25,0,.19,0,.94,0,1.17a6.37,6.37,0,0,1-12.74,0c0-.26,0-1,0-1.15,0-3.94-4.68-7.26-10.22-7.26S447.08,476,447.08,480c0,.21-.06,1-.06,1.15a6.37,6.37,0,0,1-12.74,0c0-.21,0-1,0-1.15,0-3-2.73-5.64-6.48-6.72-.95,12.93-7.4,20-16,23.75h89.55Z"/><path class="cls-3" d="M418.94,469.92c0-4.92-2.36-9.07-6-13a80.31,80.31,0,0,1,1.5,13.94A82.51,82.51,0,0,1,412.71,486C416.87,482.56,418.94,477.48,418.94,469.92Z"/><path class="cls-4" d="M569.71,451.22c-8-6.32-15.48-12.3-15.48-21.89a1,1,0,0,0,0-.18v-17.8h9a4.51,4.51,0,0,0,0-9h-9v-9a4.51,4.51,0,0,0-9,0v9h-9a4.51,4.51,0,0,0,0,9h9v18.34c-.19,9.38-7.58,15.29-15.44,21.53S513.64,464,513.64,474.43c0,9.72,3.58,15.24,9,18.39v17.57l-.87,11.17L519.63,501a4.51,4.51,0,0,0-4.49-4h-4.76l-9.77-94.65h4a4.51,4.51,0,1,0,0-9h-8.67a3,3,0,0,0-.32-.06h-1l-21.69-86.72a4.49,4.49,0,0,0-4.37-3.41v-10.4c4.87-1.58,9.06-5.07,9.06-12.83,0-6.39-4.83-10.11-9.08-13.38s-7-5.63-7-9.12c0,0,0-.08,0-.13V244.49h8.95a4.51,4.51,0,0,0,0-9h-8.95v-9a4.51,4.51,0,0,0-9,0v9h-9.09a4.51,4.51,0,1,0,0,9h9.09v13c-.07,3.41-2.68,5.68-7,9s-9.08,7-9.08,13.39c0,8,4.46,11.49,9.55,13v10.24a4.49,4.49,0,0,0-4.37,3.41l-21.68,86.72h-1a2.84,2.84,0,0,0-.31.06h-8.75a4.51,4.51,0,0,0,0,9H414l-3.52,40.26c-1.6-1.28-3.22-2.53-4.84-3.78-11.72-9-22.79-17.53-22.79-32,0-.06,0-.1,0-.16v-8.8h9a4.51,4.51,0,0,0,0-9h-9v-9a4.51,4.51,0,0,0-9,0v9h-9a4.51,4.51,0,0,0,0,9h9v9.65c-.35,14.07-11.23,22.48-22.76,31.34-11,8.44-22.31,17.17-22.31,31.11,0,13.78,5.7,21.55,13.76,25.92a4.28,4.28,0,0,0-.23,1.13v89.54a163.81,163.81,0,0,0,82,38.79l48.36.7a164.07,164.07,0,0,0,99.61-52.13V494.8c7.89-2.55,13.57-8.12,13.57-20.37C585.8,464,577.62,457.5,569.71,451.22Zm-196.88-16.7a23.73,23.73,0,0,1,3.37-7.1.36.36,0,0,0,0-.07,35.8,35.8,0,0,0,2.11-3.32c.61,1.09,1.29,2.12,2,3.14a1.4,1.4,0,0,0,.09.17c2,3.24,3.09,5.35,3.59,8,1.29,6.53,3.35,18.37,3.35,27.86,0,10.2-2.38,23.13-3.63,29.26-1.74,0-3.52,0-5.39,0s-3.65,0-5.39,0c-1.26-6.13-3.63-19.06-3.63-29.26C369.33,453.27,371.55,440.85,372.83,434.52ZM352.37,460c.95-3.91,3.53-13.16,7.48-16.51a4,4,0,0,0,.35-.38c.74-.57,1.47-1.13,2.21-1.72a142.17,142.17,0,0,0-2.1,21.77c0,9.93,2,21.78,3.36,28.8a65.37,65.37,0,0,1-9.43-1.39c-1.26-5.14-2.95-13.2-2.95-19.72A66.56,66.56,0,0,1,352.37,460Zm-1.08,41.49h49.6V515h-49.6Zm-13.53-31.57c0-4.92,2.35-9.07,6-13a79.33,79.33,0,0,0-1.49,13.94A83.38,83.38,0,0,0,344,486C339.83,482.57,337.76,477.49,337.76,469.92ZM349.37,558l1.7-34h50.05l3.69,73.88A138.87,138.87,0,0,1,349.37,558Zm53.08-67.47A65.22,65.22,0,0,1,393,492c1.37-7,3.35-18.87,3.35-28.8a142.31,142.31,0,0,0-2.09-21.78c.75.61,1.51,1.18,2.27,1.77a2.24,2.24,0,0,0,.3.33c3.85,3.27,6.41,12.14,7.41,16.22a67.77,67.77,0,0,1,1.13,11.14C405.4,477.37,403.72,485.43,402.45,490.57Zm82.81-97.32H473.8l8.09-13.48ZM455,298.7V294h2l2.5,0v9.1H455Zm-9.55-18.81c0-1.82,2.1-3.57,5.56-6.24a44.12,44.12,0,0,0,6-5.26,43.48,43.48,0,0,0,6,5.26c3.47,2.66,5.56,4.42,5.56,6.24,0,3.37-.51,5.13-11.55,5.13S445.43,283.26,445.43,279.89Zm4.05,32.25H465l13.88,55.52a4.09,4.09,0,0,0-.66.72l-8.89,14.81L461.55,364a4.5,4.5,0,0,0-4.16-2.81h0a4.49,4.49,0,0,0-4.16,2.79l-8,19.23-8.92-14.86a4.18,4.18,0,0,0-.72-.79Zm14.19,81.11H450.88l6.45-15.62Zm-31.08-13.56,8.14,13.56H429.2Zm-9.53,22.64h68.48l.79,7.69a21.17,21.17,0,0,0-4.52-.55,18.9,18.9,0,0,0-15.26,7.23,19.7,19.7,0,0,0-30.53.05,18.86,18.86,0,0,0-15.28-7.27,21.55,21.55,0,0,0-4.35.49Zm-1.53,17.47a11.41,11.41,0,0,1,5.21-1.3c4.89,0,9,2.89,9,6.3,0,.16,0,.89,0,1.11a6.23,6.23,0,1,0,12.46,0c0-.21,0-.94,0-1.11,0-3.41,4.13-6.3,9-6.3s9,2.89,9,6.3v1.11a6.24,6.24,0,1,0,12.47,0c0-.24,0-1,0-1.13,0-3.41,4.12-6.29,9-6.29a11.39,11.39,0,0,1,5.54,1.4l1.84,17.82a20.75,20.75,0,0,0-7-1.3,19,19,0,0,0-15.45,7.38,19.87,19.87,0,0,0-30.92,0,19,19,0,0,0-15.47-7.41,21.08,21.08,0,0,0-6.37,1Zm-2.65,30.25.18-2,0,0a10.83,10.83,0,0,1,7.26-2.55c5,0,9.19,2.94,9.19,6.43,0,.1,0,.84,0,1.13a6.31,6.31,0,1,0,12.62,0c0-.28,0-1,0-1.13,0-3.49,4.2-6.43,9.18-6.43s9.19,2.94,9.19,6.43c0,.06-.06.81-.06,1.13a6.32,6.32,0,1,0,12.63,0c0-.32-.05-1.07-.05-1.14,0-3.48,4.2-6.43,9.18-6.43,3.39,0,6.5,1.34,8.14,3.5h0L498,465a22.31,22.31,0,0,0-7.47-1.33c-7.13,0-13.3,3.33-16.62,8.22-3.33-4.88-9.49-8.21-16.61-8.21S444,467,440.66,471.94a19.4,19.4,0,0,0-13.48-8c-1.35-5.3-4.41-9.8-8.31-13.87Zm-5.95,6.85c3.65,4,6,8.1,6,13,0,7.56-2.07,12.64-6.23,16.05a82.51,82.51,0,0,0,1.72-15.13A80.31,80.31,0,0,0,412.93,456.9Zm14.82,16.33c3.75,1.08,6.48,3.72,6.48,6.72,0,.19,0,.94,0,1.15a6.37,6.37,0,0,0,12.74,0c0-.19.06-.94.06-1.15,0-3.94,4.68-7.26,10.23-7.26S467.53,476,467.53,480c0,.14,0,.89,0,1.15a6.37,6.37,0,0,0,12.74,0c0-.23,0-1,0-1.17,0-3.93,4.68-7.25,10.22-7.25a11.76,11.76,0,0,1,8.52,3.3s.07,0,.1.06L501.32,497H411.77C420.35,493.19,426.8,486.16,427.75,473.23Zm-17.84,46.21V506H511.08l4.67,45.1h-38.2l0-22.5a4.51,4.51,0,0,0-4.51-4.5h0a4.5,4.5,0,0,0-4.5,4.51l0,22.49H446V528.55a4.51,4.51,0,0,0-9,0V551.1H411.5Zm45.3,88A137.58,137.58,0,0,1,414,601.19L412,560.12h29.22c.09,0,.18,0,.28,0s.18,0,.28,0H515.9a4.32,4.32,0,0,0,.78-.16l3.25,31.38A137.43,137.43,0,0,1,455.21,607.47ZM560.44,455.34c1.23,1,2.45,2,3.66,2.94,1,.82,2,1.61,3,2.41a122,122,0,0,1-10.89,12.95,140.19,140.19,0,0,1-17.29,14c-4.46-.3-7.82-.89-10.29-2a153.88,153.88,0,0,0,19.69-15.9A132,132,0,0,0,560.44,455.34Zm2.77,41.7v9H531.65v-9Zm-40.55-22.61c0-6.07,5.88-10.74,12.68-16.15,5.13-4.06,10.64-8.45,14.38-14.12a38.32,38.32,0,0,0,4.06,5,128,128,0,0,1-11.85,14.27c-5.56,5.56-13.17,11.2-18.91,15.18A22,22,0,0,1,522.66,474.43Zm5.82,112-1.54-14.87,4.37-56.43h32.38l3.84,34.61A139.37,139.37,0,0,1,528.48,586.38Zm25.1-98.45a111.08,111.08,0,0,0,9-7.92A124.81,124.81,0,0,0,573.66,467c1.91,2.34,3.12,4.77,3.12,7.48C576.78,485.43,571.44,487.69,553.58,487.93Z"/></g></g></svg>