<svg xmlns="http://www.w3.org/2000/svg" viewBox="0 0 720 716"><defs><style>.cls-1{fill:#5abc29;}.cls-2{fill:#2dbc14;}.cls-3{fill:#fff;}</style></defs><g id="Layer_2" data-name="Layer 2"><g id="Layer_1-2" data-name="Layer 1"><rect class="cls-1" width="720" height="716"/><circle class="cls-2" cx="359" cy="358" r="284.5"/><path class="cls-3" d="M590.73,225.94H227.83V212.79a43.55,43.55,0,1,0-43.55,0v347a7.26,7.26,0,0,0,7.26,7.25h29a7.26,7.26,0,0,0,7.26-7.25v-87.1h362.9a7.26,7.26,0,0,0,7.26-7.26V233.2A7.26,7.26,0,0,0,590.73,225.94ZM583.47,284H354l-49-43.55H583.47ZM346.39,296.7a7.37,7.37,0,0,0,4.82,1.83H583.47V320.3H353.92L261.8,240.46h21.33ZM227.83,322.8l25.55,24.47-25.55,22.38Zm0,66.12,41.07-36a7.25,7.25,0,0,0,.68-10.24c-.14-.16-.29-.31-.44-.46l-41.31-39.58V286l68.81,63.08-68.81,57.35ZM206.05,146.11a29,29,0,1,1-29,29A29,29,0,0,1,206.05,146.11Zm7.26,406.45H198.79V218a40.72,40.72,0,0,0,14.52,0Zm14.52-127.25,84.48-70.4a7.26,7.26,0,0,0,.89-10.23,6.5,6.5,0,0,0-.63-.66L227.83,266.3V240.46h11.81L346.46,333a7.24,7.24,0,0,0,4.75,1.78H583.47v29H351.21a7.28,7.28,0,0,0-4.75,1.77L239.64,458.2H227.83Zm34,32.89,92.12-79.84H583.47v21.78H351.21a7.27,7.27,0,0,0-4.82,1.83L283.13,458.2Zm43.18,0,49-43.55h229.5V458.2Z"/></g></g></svg>