<svg xmlns="http://www.w3.org/2000/svg" viewBox="0 0 600 600"><defs><style>.cls-1{fill:#5abc29;}.cls-2{fill:#2cbc13;}.cls-3{fill:#fff;}</style></defs><g id="Layer_2" data-name="Layer 2"><g id="Camada_1" data-name="Camada 1"><polygon class="cls-1" points="0 0 600 0 600 600 0 600 0 0"/><circle class="cls-2" cx="300" cy="300" r="264.7"/><path class="cls-3" d="M418.88,198.18l-1.9,17.2,9.7-14.1a3,3,0,0,0-1.2-4.3l-2.5-1.1A3,3,0,0,0,418.88,198.18Z"/><path class="cls-3" d="M433,214.78l-17.3-1,14.6,8.9a2.84,2.84,0,0,0,4.2-1.5l.9-2.5A2.71,2.71,0,0,0,433,214.78Z"/><path class="cls-3" d="M430.58,204.18,417,214.88l16.9-3a2.87,2.87,0,0,0,2.2-3.9l-1-2.5A2.94,2.94,0,0,0,430.58,204.18Z"/><path class="cls-3" d="M428.58,227l-11.8-12.6,4.5,16.5a2.91,2.91,0,0,0,4.1,1.9l2.4-1.2A2.94,2.94,0,0,0,428.58,227Z"/><path class="cls-3" d="M343.58,361.38c7.1-4.7,14.2-9.3,21.3-13.9,33-21.1,67.8-40.8,105.3-52.6-1.6.1-3.3.1-5.1.2-13.4.7-26.9,1.5-40.3,2.8l-8.1-79.7.6-2.7.1.2-.1-.4.1-.2.9-.6-.8.1.1-.4-.3.4h0l-2.4-15.9a3,3,0,0,0-4.2-2.2l-2.4,1.2a3,3,0,0,0-1.1,4.4l8.1,10.9-11.8-9.2a2.87,2.87,0,0,0-4.5,1.3l-.9,2.5a2.93,2.93,0,0,0,2.2,3.9l16,2.8.3.4h-.3v0l-15.1,1a2.89,2.89,0,0,0-2.5,4l1,2.5a2.93,2.93,0,0,0,4.3,1.4l12.4-7.6h0l-9.9,11.3a2.92,2.92,0,0,0,1,4.6L410,233a2.89,2.89,0,0,0,4-2l1.9-8.2-5.7,76.9c-4.3.5-8.6,1.1-13,1.7l-.9-22.5L370.08,258l-23.8,22v32q-12.75,3.75-25.2,8.7c-3.4,1.4-6.8,3-10.1,4.5-1,.5-8.7,5.4-9.3,5,6.4,3.9,12.6,8.1,18.6,12.5C328.28,348.68,336.08,354.88,343.58,361.38Zm20.5-83.1,7.1-5.7,7.9,5.4.4,9.4-15.5.1v-9.2Z"/><path class="cls-3" d="M352,368.88a462.54,462.54,0,0,1,34,34.6c.9,1.1,1.9,2.1,2.8,3.2a284.6,284.6,0,0,0,25.1-24c9-9.6,17.5-19.6,26-29.7,8.8-10.5,16.1-21.8,23.1-33.6,2.6-4.4,5.2-8.8,7.8-13.3-1.9.6-3.8,1.2-5.6,1.9C424.48,322.28,387.78,345.18,352,368.88Z"/><path class="cls-3" d="M444.68,364.28c-15.1,18-30.8,35.6-48.8,50.7,6,7.2,11.9,14.5,17.5,22a183,183,0,0,0,67.8-126.6C470.48,329.28,458.68,347.58,444.68,364.28Z"/><path class="cls-3" d="M314,349.88c-22.2-15.7-46.2-27.2-71.9-36a356.44,356.44,0,0,0-44.5-12.1v-14.9c5,.2,9.1.6,11.8,1.6a56.77,56.77,0,0,1-8.7-9.6c0-.1-.1-.1-.1-.2a37.92,37.92,0,0,1,8.8,2.1,56.77,56.77,0,0,1-8.7-9.6c-.2-.3-.4-.5-.6-.8a36.35,36.35,0,0,1,9.3,2.2,54.47,54.47,0,0,1-8.3-9.1,39.76,39.76,0,0,1,8.3,2.1,56.77,56.77,0,0,1-8.7-9.6,58.36,58.36,0,0,1-5-8.6,72.91,72.91,0,0,1-5.5,9,64.34,64.34,0,0,1-8,9.2,40.69,40.69,0,0,1,7.9-2,61.63,61.63,0,0,1-7.9,9,35.5,35.5,0,0,1,8.8-2.1,8.34,8.34,0,0,0-.8,1.2,64.34,64.34,0,0,1-8,9.2,44.24,44.24,0,0,1,8.4-2.1c-.1.2-.3.4-.4.6a64.34,64.34,0,0,1-8,9.2c2.6-1,6.7-1.4,11.8-1.6v14.2l-11.7-2.1q-11-1.8-21.9-3.3V282c7.2.2,12.9-.3,16.8,1.2a77.79,77.79,0,0,1-11.8-13.7c-.1-.1-.1-.2-.2-.3a45.9,45.9,0,0,1,12,3.1,77.79,77.79,0,0,1-11.8-13.7c-.3-.4-.5-.8-.8-1.2a51.35,51.35,0,0,1,12.6,3.1,77.84,77.84,0,0,1-11.4-13,54.39,54.39,0,0,1,11.4,3,77.79,77.79,0,0,1-11.8-13.7,84.15,84.15,0,0,1-6.9-12.4,103.06,103.06,0,0,1-7.5,13,92,92,0,0,1-10.9,13.1,53.34,53.34,0,0,1,10.7-2.9,96.19,96.19,0,0,1-10.7,12.9,55.52,55.52,0,0,1,12-3.1c-.4.6-.8,1.1-1.2,1.7a92,92,0,0,1-10.9,13.1,49.7,49.7,0,0,1,11.4-3c-.2.3-.3.5-.5.8a92,92,0,0,1-10.9,13.1c3.7-1.4,9.6-1,16.8-1.2v13.4a225.6,225.6,0,0,0-35.8-2,14.13,14.13,0,0,0-3.3.4,260.05,260.05,0,0,1,27.1,8.9c13,4.8,26.3,8.8,39.2,13.8,47.6,18.3,91.3,44.8,131.3,75.7,19.2,14.9,37,31.4,54.1,48.7,5,5,9.9,10.1,14.6,15.4a199,199,0,0,0,22.1-13.7,509,509,0,0,0-33.4-40C354.88,383.18,335.48,365.08,314,349.88Z"/><path class="cls-3" d="M355,441.88c-17-16.7-34.6-32.6-53.7-46.8a618.73,618.73,0,0,0-61.1-40.2,427.53,427.53,0,0,0-66.9-31c-11.3-4.1-22.8-7.7-34.1-11.8a212.39,212.39,0,0,0-23.7-7.9,2,2,0,0,0,.1.8c16.7,10.9,33.7,21.3,50.1,32.6,35.7,24.5,66.9,54.5,97.1,85.4,14.5,14.8,29.4,29.2,43.1,44.7,2.6,2.9,5.1,5.9,7.5,8.9a181.13,181.13,0,0,0,60.3-15.5C367.68,454.58,361.38,448.18,355,441.88Z"/><path class="cls-3" d="M141.28,362.38c-6.8-7.9-13.5-15.8-20.6-23.4a183.14,183.14,0,0,0,103.2,122.5,555.21,555.21,0,0,0-48.9-62.2C163.78,386.88,152.18,375,141.28,362.38Z"/><path class="cls-3" d="M248.18,423.88c-15-15.2-30.3-30.1-46.3-44.2a467.69,467.69,0,0,0-49.6-37.9c-11.7-7.8-23.6-15.3-35.4-22.9v.1c12.9,12.9,24.6,26.9,36.6,40.7,11.2,12.8,23.2,24.8,34.5,37.5q16.2,18.3,30.8,38c7.9,10.7,15.5,21.7,22.7,32.9a183.5,183.5,0,0,0,57.1,9.2h1.2c-2.8-3.2-5.7-6.4-8.6-9.5C277.08,453,262.58,438.48,248.18,423.88Z"/></g></g></svg>