<?xml version="1.0" encoding="utf-8"?>
<!-- Generator: Adobe Illustrator 25.0.1, SVG Export Plug-In . SVG Version: 6.00 Build 0)  -->
<svg version="1.1" id="Camada_1" xmlns="http://www.w3.org/2000/svg" xmlns:xlink="http://www.w3.org/1999/xlink" x="0px" y="0px"
	 viewBox="0 0 600 600" style="enable-background:new 0 0 600 600;" xml:space="preserve">
<style type="text/css">
	.st0{fill:#5ABC29;}
	.st1{fill:#2CBC13;}
	.st2{fill:#FFFFFF;}
</style>
<polygon class="st0" points="0,0 600,0 600,600 0,600 "/>
<circle class="st1" cx="300" cy="300" r="264.7"/>
<g>
	<path class="st2" d="M-407.6,422c-6,1.3-10.4,6.6-10.4,12.9c0,2.9,1,5.7,2.7,8l-5.5,32.6c-0.2,1.4,0.2,2.8,1.1,3.9s2.3,1.7,3.7,1.7
		h22.6c1.4,0,2.7-0.6,3.6-1.6s1.3-2.4,1.1-3.8l-4.7-34c1.2-2,1.9-4.4,1.9-6.7c0-4.8-2.5-8.9-6.3-11.2V406l29.7,12.9v73.8
		c0,9.1,7.4,16.5,16.5,16.5H-216c9.1,0,16.5-7.4,16.5-16.5v-78.3l70.8-30.7c1.8-0.8,3-2.6,2.9-4.6s-1.4-3.7-3.2-4.4l-161-55
		c-1.1-0.4-2.2-0.3-3.3,0.1c-55.1,20.9-145.6,54.1-154.1,54.6c-2.3,0-4.2,1.6-4.7,3.8c-0.5,2.2,0.7,4.5,2.8,5.4l41.9,18.1
		L-407.6,422L-407.6,422z M-410.4,471.5l5-29.4c0.3-1.7-0.4-3.4-1.7-4.5c-0.8-0.7-1.3-1.7-1.3-2.8c0-2,1.6-3.6,3.6-3.6
		s3.6,1.6,3.6,3.6c0,1.1-0.5,1.9-0.9,2.4c-0.9,1.1-1.3,2.4-1.1,3.8l4.2,30.4h-11.4L-410.4,471.5L-410.4,471.5z M-209.3,492.6
		c0,3.8-3.1,6.9-6.9,6.9h-135.6c-3.8,0-6.9-3.1-6.9-6.9V423l67.6,29.3c0.6,0.3,1.3,0.4,1.9,0.4s1.3-0.1,1.9-0.4l78-33.8
		L-209.3,492.6L-209.3,492.6z M-432.9,380.3c34.8-10.9,118.4-42.3,141.2-51l147.6,50.4l-145.1,62.9L-385,401l80.9-10.7
		c3.5,2.2,8.8,3.5,14.9,3.5c11.1,0,19.6-4.4,19.6-10.3s-8.4-10.3-19.6-10.3c-9.6,0-17.2,3.3-19.1,8l-93.8,12.4L-432.9,380.3z
		 M-303.9,383.6c0-2.2,5.8-5.5,14.8-5.5s14.8,3.3,14.8,5.5s-5.8,5.5-14.8,5.5S-303.9,385.9-303.9,383.6z"/>
</g>
<g id="XMLID_1913_">
	<path id="XMLID_1917_" class="st2" d="M-93.4,4.2c-5.7,6.7-1.7,17.6,6.5,28.5l-20.9,24.8c-16.1-2.5-33.1,3.1-44.4,16.4
		l-123.2,146.2c-8.3,9.8-12.3,22.3-11.2,35.2c0.9,10.8,5.4,20.8,12.7,28.7l-59.7,70.7c-2.1,2.5-1.8,6.3,0.7,8.4
		c1.2,1,2.5,1.4,3.8,1.4c1.7,0,3.4-0.7,4.6-2.1l59.7-70.7c8,5.2,17.2,7.9,26.3,7.9c13.8,0,27.4-5.8,36.9-17.2l123.3-146.1
		c8.3-9.8,12.3-22.3,11.2-35.2c-0.4-3.9-1.2-7.8-2.4-11.3l20.9-24.7c2.2,1.2,4.4,2.1,6.5,2.9c5.1,2.1,9.2,2.9,12.5,2.9
		c5.3,0,8.4-2.1,10.3-4.2c8.9-10.6-6.1-31.6-23.9-46.5C-61.2,4.9-84.3-6.3-93.4,4.2L-93.4,4.2z M-51.1,29
		c16.9,14.2,22.6,26.4,22.3,29.7c-1.6,0.4-5.9-0.4-12-3.2l0.7-0.9c1-1.3,1.5-2.8,1.4-4.4c-0.1-1.6-0.9-3-2.1-4l-28.9-24.5
		c-2.5-2.1-6.3-1.8-8.4,0.7l-0.7,0.8c-3.8-5.5-5.3-9.6-5.2-11.3C-81,11.3-68,14.8-51.1,29z M-79.2,102c0.8,9.6-2.1,19-8.4,26.4
		l-3,3.7l-10.6-8.9c-1.9-1.6-4.7-1.3-6.3,0.5c-1.6,1.9-1.3,4.7,0.5,6.3l10.6,8.9l-10.4,12.4l-19.2-16c-1.9-1.6-4.7-1.3-6.3,0.5
		c-1.6,1.9-1.3,4.7,0.5,6.3l19.1,16.2l-11.5,13.5l-10.6-8.9c-1.9-1.6-4.7-1.3-6.3,0.5c-1.6,1.9-1.3,4.7,0.5,6.3l10.6,8.9l-5.2,6.2
		l-5.2,6.2l-19.1-16.2c-1.9-1.6-4.7-1.3-6.3,0.5c-1.6,1.9-1.3,4.7,0.5,6.3l19.1,16.2l-8.8,10.5l-10.6-8.9c-1.9-1.6-4.7-1.3-6.3,0.5
		c-1.6,1.9-1.3,4.7,0.5,6.3l10.6,8.9l-10.5,12.3l-19.1-16.2c-1.9-1.6-4.7-1.3-6.3,0.5c-1.6,1.9-1.3,4.7,0.5,6.3l19.1,16.2
		l-11.5,13.7l-10.6-8.9c-1.9-1.6-4.7-1.3-6.3,0.5c-1.6,1.9-1.3,4.7,0.5,6.3l10.6,8.9l-10.4,12.6l-19.1-16.2
		c-1.9-1.6-4.7-1.3-6.3,0.5s-1.3,4.7,0.5,6.3l19.1,16.2l-0.5,0.6c-13,15.3-35.9,17.2-51.2,4.3c-7.4-6.3-12-15-12.8-24.7
		c-0.8-9.6,2.1-19,8.4-26.4l76-90.1l47.5-56.3c6.3-7.4,15-12,24.7-12.8c1.1-0.1,2.1-0.1,3.1-0.1c8.6,0,16.8,2.9,23.3,8.6
		C-84.5,83.6-80,92.4-79.2,102z M-84.2,68.3c-3.5-2.9-7.2-5.2-11.1-7L-73,34.9l19.8,16.7L-75.5,78C-77.9,74.4-80.8,71.1-84.2,68.3z"
		/>
	<g id="XMLID_1914_">
		<g id="XMLID_1915_">
			<path id="XMLID_1916_" class="st2" d="M-197.3,139.1c20.5,17.1,41,34.1,61.6,51.2c3.8,3.2,9.5-2.3,5.5-5.5
				c-20.5-17.1-41-34.1-61.6-51.2C-195.6,130.3-201.1,135.9-197.3,139.1L-197.3,139.1z"/>
		</g>
	</g>
</g>
<g>
	<polygon class="st2" points="250.1,297.1 250.1,297.3 251,297.7 251,304.7 250.1,305.2 250.1,305.4 252.3,305.4 252.3,305.2 
		251.3,304.7 251.3,298.1 256.5,305.4 256.7,305.4 256.7,297.7 257.7,297.3 257.7,297.1 255.5,297.1 255.5,297.3 256.5,297.7 
		256.5,303.3 252,297.1 	"/>
	<path class="st2" d="M345.2,300.6l-1.9-0.5c-0.5-0.1-0.8-0.3-1.1-0.5c-0.2-0.2-0.4-0.5-0.4-0.9c0-0.5,0.2-0.9,0.5-1.2
		c0.3-0.3,0.8-0.5,1.4-0.5c0.6,0,1.2,0.1,1.7,0.4l0.7,1.5h0.2v-2.1h-0.2l-0.8,0.3c-0.5-0.2-1.1-0.3-1.7-0.3c-0.5,0-0.9,0.1-1.3,0.3
		c-0.4,0.2-0.6,0.5-0.8,0.9c-0.2,0.4-0.3,0.8-0.3,1.3c0,0.5,0.2,1,0.5,1.4c0.3,0.4,0.8,0.7,1.4,0.8l1.7,0.4c0.6,0.1,1,0.3,1.2,0.6
		c0.3,0.2,0.4,0.6,0.4,1c0,0.6-0.2,1-0.6,1.4c-0.4,0.3-0.9,0.5-1.5,0.5c-0.7,0-1.4-0.2-2-0.6l-0.9-1.9h-0.2v2.7h0.2l0.9-0.4
		c0.6,0.4,1.3,0.6,1.9,0.6c0.8,0,1.4-0.2,1.9-0.7c0.5-0.4,0.7-1,0.7-1.8c0-0.8-0.1-1.3-0.4-1.7C346.3,301.1,345.8,300.8,345.2,300.6
		z"/>
	<path class="st2" d="M300,164.4c-53.7,0-97.2,46.4-97.2,103.6c0,57.2,93.4,184.7,101,184.7c6.7,0,93.4-127.5,93.4-184.7
		C397.2,210.8,353.7,164.4,300,164.4z M300,338.4c-0.7,0-1.4,0-2.1,0v-36.5h31.8v1.6l5.7-2.6l-5.7-2.2v1.8h-31.8v-16.2
		c0.1,0,0.1,0,0.2,0c13.5,0.3,24.7-13.8,26.7-26.2c0.8-5.1,0.8-10.4,0.1-15.6c1.3-0.3,2.8-0.2,4.1,0.5c1.4,0.8,2.4,2.1,2.9,3.5
		c0.6,1.9,0.2,4,0.9,5.8c0.5-0.4,0.8-1,1.2-1.5c1.8-2.4,2.4-5.6,2.5-8.5c0.1-2.7-0.7-5.6-2.8-7.4c-0.8-0.6-1.7-1.2-2.7-1.6
		c1.1-0.1,2.3,0,3.4,0.4c3.9,1.2,6,3.9,6.2,7.9c1.6-1.3,2.9-3.2,3.1-5.3c0.2-2.8-1.1-4.7-3.1-7c-1-1.2-3.1-2.3-4.6-2.9
		c-0.7-0.3-1.4-0.5-2.2-0.7c0.7,0.2,2-0.5,2.8-0.4c1.1,0.1,2.3,0.4,3.3,0.8c2.1,0.8,4,2,5.5,3.7c2.7,3,3.4,6.4,3.7,10.3
		c2.4-1.7,3-6.1,3.3-8.8c0.3-2.5,0.5-5.1-0.3-7.5c-0.1-0.3-0.2-0.6-0.4-0.9c-0.9-1.8-2.3-3.3-4.1-4.2c-1.7-0.9-4.2-1.9-6.2-2.2
		c-5-0.6-10.4,1.3-13.8,5c-0.9,1.1-1.8,2.2-2.5,3.5c-3.3,4.3-4.9,9.7-6.5,15c-1.1,1.8-2.2,3.6-3.7,5.1c-3.6,3.7-8.8,6.1-13.9,5.3
		c-3-0.5-5.8-2.2-7.6-4.6c-2.8-3.6-3.4-8.5-5.7-12.5c-1.4-2.3-3.7-4.4-6.5-5.8c0-0.1,0.1-0.2,0.1-0.3c0.5-1.4,0.8-2.8,2.3-3.4
		c0.2-0.1,0.4-0.3,0.2-0.4c-1.5-0.3-2.7,0-4.1,0.6c-0.6,0.2-1.1,0.5-1.6,0.8c0.1-0.2,0.2-0.4,0.2-0.6c0.2-0.5,1.2-3.2,1.6-3.2
		c-0.9,0-1.9,0.2-2.7,0.6c-0.6,0.3-1.1,1-1.8,0.9c-1.1-0.2-0.5-1.5-0.4-2.3c-2.8,0.2-4.6,2.8-5.5,5.3c-3.4,0.6-6.4,2.6-7.9,6.2
		c0,0,0,0,0,0c-1,0.6-1.9,1.1-2.9,1.7c-0.7,0.4-1.2,1.1-1.8,1.6c-0.9,1-4.4,2.5-4.1,4.3c0.2,1.3,5.7,1.5,6.9,2.2
		c1.4,0.8,2.7,1.8,4.2,2.5c-0.2,1.2-0.3,2.5-0.4,3.7c-0.3,2.9-0.5,5.7-0.8,8.6c-0.1,1.2,1.1,2.1,2.1,2.1c1.3,0.1,2.8,0,4.1-0.2
		c2.4,13.4,12.9,24.6,26.5,26.1v16.4h-30.7v-1.8l-5.7,2.2l5.7,2.6v-1.6h30.7v36.4c-40.9-2.4-73.4-36.3-73.4-77.9
		c0-43.1,34.9-78,78-78s78,34.9,78,78C378,303.5,343.1,338.4,300,338.4z"/>
</g>
</svg>
