<?xml version="1.0" encoding="utf-8"?>
<!-- Generator: Adobe Illustrator 25.0.1, SVG Export Plug-In . SVG Version: 6.00 Build 0)  -->
<svg version="1.1" id="Camada_1" xmlns="http://www.w3.org/2000/svg" xmlns:xlink="http://www.w3.org/1999/xlink" x="0px" y="0px"
	 viewBox="0 0 332.58 217.69" style="enable-background:new 0 0 332.58 217.69;" xml:space="preserve">
<style type="text/css">
	.st0{fill:#B2B3AF;}
</style>
<rect class="st0" width="332.58" height="217.69"/>
<g>
	<path d="M113.36,94.57v30.09h-3.88V94.57H113.36z"/>
	<path d="M141.18,123.68c-1.43,0.71-4.29,1.43-7.95,1.43c-8.48,0-14.87-5.36-14.87-15.22c0-9.42,6.38-15.81,15.72-15.81
		c3.75,0,6.12,0.8,7.14,1.34l-0.94,3.17c-1.47-0.71-3.57-1.25-6.07-1.25c-7.05,0-11.74,4.51-11.74,12.41
		c0,7.37,4.24,12.1,11.56,12.1c2.37,0,4.78-0.49,6.34-1.25L141.18,123.68z"/>
	<path d="M170.82,109.31c0,10.36-6.29,15.85-13.97,15.85c-7.95,0-13.53-6.16-13.53-15.27c0-9.55,5.94-15.81,13.97-15.81
		C165.51,94.08,170.82,100.38,170.82,109.31z M147.47,109.8c0,6.43,3.48,12.19,9.6,12.19c6.16,0,9.64-5.67,9.64-12.5
		c0-5.98-3.13-12.23-9.6-12.23C150.68,97.25,147.47,103.19,147.47,109.8z"/>
	<path d="M175.86,124.67V94.57h4.24l9.64,15.22c2.23,3.53,3.97,6.7,5.4,9.78l0.09-0.04c-0.36-4.02-0.45-7.68-0.45-12.37V94.57h3.66
		v30.09h-3.93l-9.55-15.27c-2.1-3.35-4.11-6.79-5.63-10.05l-0.13,0.04c0.22,3.8,0.31,7.41,0.31,12.41v12.86H175.86z"/>
	<path d="M220.81,110.56h-11.7v10.85h13.04v3.26h-16.92V94.57h16.25v3.26h-12.37v9.51h11.7V110.56z"/>
</g>
</svg>
