<svg xmlns="http://www.w3.org/2000/svg" viewBox="0 0 600 600"><defs><style>.cls-1{fill:#5abc29;}.cls-2{fill:#2cbc13;}.cls-3{fill:#fff;}</style></defs><g id="Layer_2" data-name="Layer 2"><g id="Camada_1" data-name="Camada 1"><polygon class="cls-1" points="0 0 600 0 600 600 0 600 0 0"/><circle class="cls-2" cx="300" cy="300" r="264.7"/><path class="cls-3" d="M341.66,167.62h-80.1a21,21,0,0,0-21,21v40.58a21,21,0,0,0,21,21h80.1a21,21,0,0,0,21-21V188.59A21,21,0,0,0,341.66,167.62Zm7,61.55a7.11,7.11,0,0,1-7,7h-80.1a7.12,7.12,0,0,1-7-7V188.59a7.12,7.12,0,0,1,7-7h80.1a7.11,7.11,0,0,1,7,7Z"/><path class="cls-3" d="M454.55,210.36H145.45a21,21,0,0,0-21,21V411.41a21,21,0,0,0,21,21h309.1a21,21,0,0,0,21-21V231.32A21.17,21.17,0,0,0,454.55,210.36ZM351.61,329.7H315.32V366H288.17V329.7H251.89V302.55h36.28V266.27h27.15v36.28h36.29Z"/></g></g></svg>