<?xml version="1.0" encoding="utf-8"?>
<!-- Generator: Adobe Illustrator 25.0.1, SVG Export Plug-In . SVG Version: 6.00 Build 0)  -->
<svg version="1.1" id="Camada_1" xmlns="http://www.w3.org/2000/svg" xmlns:xlink="http://www.w3.org/1999/xlink" x="0px" y="0px"
	 viewBox="0 0 600 600" style="enable-background:new 0 0 600 600;" xml:space="preserve">
<style type="text/css">
	.st0{fill:#5ABC29;}
	.st1{fill:#2CBC13;}
	.st2{fill:#FFFFFF;}
	.st3{filter:url(#Adobe_OpacityMaskFilter);}
	.st4{fill:url(#SVGID_2_);}
	.st5{mask:url(#SVGID_1_);}
	.st6{fill:#00BABA;}
	.st7{fill:#FCFCFC;}
</style>
<polygon class="st0" points="0,0 600,0 600,600 0,600 "/>
<circle class="st1" cx="300" cy="300" r="264.7"/>
<g>
	<path class="st2" d="M-407.6,422c-6,1.3-10.4,6.6-10.4,12.9c0,2.9,1,5.7,2.7,8l-5.5,32.6c-0.2,1.4,0.2,2.8,1.1,3.9s2.3,1.7,3.7,1.7
		h22.6c1.4,0,2.7-0.6,3.6-1.6s1.3-2.4,1.1-3.8l-4.7-34c1.2-2,1.9-4.4,1.9-6.7c0-4.8-2.5-8.9-6.3-11.2V406l29.7,12.9v73.8
		c0,9.1,7.4,16.5,16.5,16.5H-216c9.1,0,16.5-7.4,16.5-16.5v-78.3l70.8-30.7c1.8-0.8,3-2.6,2.9-4.6s-1.4-3.7-3.2-4.4l-161-55
		c-1.1-0.4-2.2-0.3-3.3,0.1c-55.1,20.9-145.6,54.1-154.1,54.6c-2.3,0-4.2,1.6-4.7,3.8c-0.5,2.2,0.7,4.5,2.8,5.4l41.9,18.1
		L-407.6,422L-407.6,422z M-410.4,471.5l5-29.4c0.3-1.7-0.4-3.4-1.7-4.5c-0.8-0.7-1.3-1.7-1.3-2.8c0-2,1.6-3.6,3.6-3.6
		s3.6,1.6,3.6,3.6c0,1.1-0.5,1.9-0.9,2.4c-0.9,1.1-1.3,2.4-1.1,3.8l4.2,30.4h-11.4L-410.4,471.5L-410.4,471.5z M-209.3,492.6
		c0,3.8-3.1,6.9-6.9,6.9h-135.6c-3.8,0-6.9-3.1-6.9-6.9V423l67.6,29.3c0.6,0.3,1.3,0.4,1.9,0.4s1.3-0.1,1.9-0.4l78-33.8
		L-209.3,492.6L-209.3,492.6z M-432.9,380.3c34.8-10.9,118.4-42.3,141.2-51l147.6,50.4l-145.1,62.9L-385,401l80.9-10.7
		c3.5,2.2,8.8,3.5,14.9,3.5c11.1,0,19.6-4.4,19.6-10.3s-8.4-10.3-19.6-10.3c-9.6,0-17.2,3.3-19.1,8l-93.8,12.4L-432.9,380.3z
		 M-303.9,383.6c0-2.2,5.8-5.5,14.8-5.5s14.8,3.3,14.8,5.5s-5.8,5.5-14.8,5.5S-303.9,385.9-303.9,383.6z"/>
</g>
<g id="XMLID_1913_">
	<path id="XMLID_1917_" class="st2" d="M-153.4,347.9c-5.7,6.7-1.7,17.6,6.5,28.5l-20.9,24.8c-16.1-2.5-33.1,3.1-44.4,16.4
		l-123.2,146.2c-8.3,9.8-12.3,22.3-11.2,35.2c0.9,10.8,5.4,20.8,12.7,28.7l-59.7,70.7c-2.1,2.5-1.8,6.3,0.7,8.4
		c1.2,1,2.5,1.4,3.8,1.4c1.7,0,3.4-0.7,4.6-2.1l59.7-70.7c8,5.2,17.2,7.9,26.3,7.9c13.8,0,27.4-5.8,36.9-17.2L-138.3,480
		c8.3-9.8,12.3-22.3,11.2-35.2c-0.4-3.9-1.2-7.8-2.4-11.3l20.9-24.7c2.2,1.2,4.4,2.1,6.5,2.9c5.1,2.1,9.2,2.9,12.5,2.9
		c5.3,0,8.4-2.1,10.3-4.2c8.9-10.6-6.1-31.6-23.9-46.5C-121.2,348.6-144.3,337.4-153.4,347.9L-153.4,347.9z M-111.1,372.7
		c16.9,14.2,22.6,26.4,22.3,29.7c-1.6,0.4-5.9-0.4-12-3.2l0.7-0.9c1-1.3,1.5-2.8,1.4-4.4c-0.1-1.6-0.9-3-2.1-4l-28.9-24.5
		c-2.5-2.1-6.3-1.8-8.4,0.7l-0.7,0.8c-3.8-5.5-5.3-9.6-5.2-11.3C-141,355-128,358.5-111.1,372.7z M-139.2,445.7
		c0.8,9.6-2.1,19-8.4,26.4l-3,3.7l-10.6-8.9c-1.9-1.6-4.7-1.3-6.3,0.5c-1.6,1.9-1.3,4.7,0.5,6.3l10.6,8.9l-10.4,12.4l-19.2-16
		c-1.9-1.6-4.7-1.3-6.3,0.5c-1.6,1.9-1.3,4.7,0.5,6.3l19.1,16.2l-11.5,13.5l-10.6-8.9c-1.9-1.6-4.7-1.3-6.3,0.5
		c-1.6,1.9-1.3,4.7,0.5,6.3l10.6,8.9l-5.2,6.2l-5.2,6.2l-19.1-16.2c-1.9-1.6-4.7-1.3-6.3,0.5c-1.6,1.9-1.3,4.7,0.5,6.3l19.1,16.2
		L-215,552l-10.6-8.9c-1.9-1.6-4.7-1.3-6.3,0.5c-1.6,1.9-1.3,4.7,0.5,6.3l10.6,8.9l-10.5,12.3l-19.1-16.2c-1.9-1.6-4.7-1.3-6.3,0.5
		c-1.6,1.9-1.3,4.7,0.5,6.3l19.1,16.2l-11.5,13.7l-10.6-8.9c-1.9-1.6-4.7-1.3-6.3,0.5c-1.6,1.9-1.3,4.7,0.5,6.3l10.6,8.9l-10.4,12.6
		l-19.1-16.2c-1.9-1.6-4.7-1.3-6.3,0.5s-1.3,4.7,0.5,6.3l19.1,16.2l-0.5,0.6c-13,15.3-35.9,17.2-51.2,4.3c-7.4-6.3-12-15-12.8-24.7
		c-0.8-9.6,2.1-19,8.4-26.4l76-90.1l47.5-56.3c6.3-7.4,15-12,24.7-12.8c1.1-0.1,2.1-0.1,3.1-0.1c8.6,0,16.8,2.9,23.3,8.6
		C-144.5,427.3-140,436.1-139.2,445.7z M-144.2,412c-3.5-2.9-7.2-5.2-11.1-7l22.3-26.4l19.8,16.7l-22.3,26.4
		C-137.9,418.1-140.8,414.8-144.2,412z"/>
	<g id="XMLID_1914_">
		<g id="XMLID_1915_">
			<path id="XMLID_1916_" class="st2" d="M-257.3,482.8c20.5,17.1,41,34.1,61.6,51.2c3.8,3.2,9.5-2.3,5.5-5.5
				c-20.5-17.1-41-34.1-61.6-51.2C-255.6,474-261.1,479.6-257.3,482.8L-257.3,482.8z"/>
		</g>
	</g>
</g>
<g>
	<g>
		<path class="st2" d="M-173.4,71.1h-29.8c-4.3,0-7.8,3.5-7.8,7.8V94c0,4.3,3.5,7.8,7.8,7.8h29.8c4.3,0,7.8-3.5,7.8-7.8V78.9
			C-165.6,74.6-169.1,71.1-173.4,71.1z M-170.8,94c0,1.4-1.2,2.6-2.6,2.6h-29.8c-1.4,0-2.6-1.2-2.6-2.6V78.9c0-1.4,1.2-2.6,2.6-2.6
			h29.8c1.4,0,2.6,1.2,2.6,2.6V94z"/>
		<path class="st2" d="M-131.4,87h-115c-4.3,0-7.8,3.5-7.8,7.8v67c0,4.3,3.5,7.8,7.8,7.8h115c4.3,0,7.8-3.5,7.8-7.8v-67
			C-123.7,90.5-127.1,87-131.4,87z M-169.7,131.4h-13.5v13.5h-10.1v-13.5h-13.5v-10.1h13.5v-13.5h10.1v13.5h13.5V131.4z"/>
	</g>
	<defs>
		<filter id="Adobe_OpacityMaskFilter" filterUnits="userSpaceOnUse" x="-254" y="169.5" width="130.5" height="98.5">
			<feColorMatrix  type="matrix" values="1 0 0 0 0  0 1 0 0 0  0 0 1 0 0  0 0 0 1 0"/>
		</filter>
	</defs>
	<mask maskUnits="userSpaceOnUse" x="-254" y="169.5" width="130.5" height="98.5" id="SVGID_1_">
		<g class="st3">
			<linearGradient id="SVGID_2_" gradientUnits="userSpaceOnUse" x1="-188.9232" y1="291.1706" x2="-188.9232" y2="169.3956">
				<stop  offset="0.5435" style="stop-color:#000000"/>
				<stop  offset="0.6507" style="stop-color:#030303"/>
				<stop  offset="0.7402" style="stop-color:#0E0E0E"/>
				<stop  offset="0.8232" style="stop-color:#1F1F1F"/>
				<stop  offset="0.9024" style="stop-color:#373737"/>
				<stop  offset="0.9782" style="stop-color:#575757"/>
				<stop  offset="1" style="stop-color:#616161"/>
			</linearGradient>
			<rect x="-260.4" y="169.4" class="st4" width="143" height="121.8"/>
		</g>
	</mask>
	<g class="st5">
		<path class="st6" d="M-165.4,260.2v-15.1c0-4.3-3.5-7.8-7.8-7.8H-203c-4.3,0-7.8,3.5-7.8,7.8v15.1c0,4.3,3.5,7.8,7.8,7.8h29.8
			C-168.9,268-165.4,264.5-165.4,260.2z M-170.6,260.2c0,1.4-1.2,2.6-2.6,2.6H-203c-1.4,0-2.6-1.2-2.6-2.6v-15.1
			c0-1.4,1.2-2.6,2.6-2.6h29.8c1.4,0,2.6,1.2,2.6,2.6V260.2z"/>
		<path class="st7" d="M-123.5,244.3v-67c0-4.3-3.5-7.8-7.8-7.8h-115c-4.3,0-7.8,3.5-7.8,7.8v67c0,4.3,3.5,7.8,7.8,7.8h115
			C-127,252.1-123.5,248.6-123.5,244.3z M-169.5,217.8H-183v13.5h-10.1v-13.5h-13.5v-10.1h13.5v-13.5h10.1v13.5h13.5V217.8z"/>
	</g>
</g>
<g>
	<path class="st2" d="M420.6,205.5l-1.9,17.2l9.7-14.1c1-1.5,0.4-3.6-1.2-4.3l-2.5-1.1C422.9,202.4,420.9,203.6,420.6,205.5z"/>
	<path class="st2" d="M434.7,222.1l-17.3-1l14.6,8.9c1.6,1,3.6,0.2,4.2-1.5l0.9-2.5C438,224.2,436.7,222.2,434.7,222.1z"/>
	<path class="st2" d="M432.3,211.5l-13.6,10.7l16.9-3c1.8-0.3,2.9-2.2,2.2-3.9l-1-2.5C436.1,211,433.8,210.3,432.3,211.5z"/>
	<g>
		<path class="st2" d="M430.3,234.3l-11.8-12.6l4.5,16.5c0.5,1.8,2.4,2.7,4.1,1.9l2.4-1.2C431.2,238.1,431.6,235.8,430.3,234.3z"/>
		<g>
			<path class="st2" d="M345.3,368.7c7.1-4.7,14.2-9.3,21.3-13.9c33-21.1,67.8-40.8,105.3-52.6c-1.6,0.1-3.3,0.1-5.1,0.2
				c-13.4,0.7-26.9,1.5-40.3,2.8l-8.1-79.7l0.6-2.7l0.1,0.2l-0.1-0.4l0.1-0.2l0.9-0.6l-0.8,0.1l0.1-0.4l-0.3,0.4l0,0l-2.4-15.9
				c-0.3-1.9-2.4-3-4.2-2.2l-2.4,1.2c-1.6,0.8-2.2,2.9-1.1,4.4l8.1,10.9l-11.8-9.2c-1.6-1.2-3.8-0.6-4.5,1.3l-0.9,2.5
				c-0.6,1.7,0.4,3.6,2.2,3.9l16,2.8l0.3,0.4l-0.3,0l0-0.2l0,0.2l-15.1,1c-2,0.1-3.2,2.1-2.5,4l1,2.5c0.7,1.7,2.7,2.4,4.3,1.4
				l12.4-7.6v0l-9.9,11.3c-1.3,1.5-0.8,3.8,1,4.6l2.5,1.1c1.7,0.7,3.6-0.2,4-2l1.9-8.2l-5.7,76.9c-4.3,0.5-8.6,1.1-13,1.7l-0.9-22.5
				l-26.2-20.9L348,287.3v32c-8.5,2.5-16.9,5.4-25.2,8.7c-3.4,1.4-6.8,3-10.1,4.5c-1,0.5-8.7,5.4-9.3,5c6.4,3.9,12.6,8.1,18.6,12.5
				C330,356,337.8,362.2,345.3,368.7z M365.8,285.6l7.1-5.7l7.9,5.4l0.4,9.4l-15.5,0.1V285.6z"/>
			<path class="st2" d="M353.7,376.2c11.9,10.9,23.3,22.5,34,34.6c0.9,1.1,1.9,2.1,2.8,3.2c8.9-7.4,17.2-15.6,25.1-24
				c9-9.6,17.5-19.6,26-29.7c8.8-10.5,16.1-21.8,23.1-33.6c2.6-4.4,5.2-8.8,7.8-13.3c-1.9,0.6-3.8,1.2-5.6,1.9
				C426.2,329.6,389.5,352.5,353.7,376.2z"/>
			<path class="st2" d="M446.4,371.6c-15.1,18-30.8,35.6-48.8,50.7c6,7.2,11.9,14.5,17.5,22c37.8-30.4,63.3-75.5,67.8-126.6
				C472.2,336.6,460.4,354.9,446.4,371.6z"/>
			<path class="st2" d="M315.7,357.2c-22.2-15.7-46.2-27.2-71.9-36c-14.5-5-29.4-9-44.5-12.1v-14.9c5,0.2,9.1,0.6,11.8,1.6
				c-2.6-2.3-5.7-5.4-8.7-9.6c0-0.1-0.1-0.1-0.1-0.2c3.6,0.4,6.6,1.3,8.8,2.1c-2.6-2.3-5.7-5.4-8.7-9.6c-0.2-0.3-0.4-0.5-0.6-0.8
				c3.8,0.4,7,1.3,9.3,2.2c-2.5-2.2-5.5-5.2-8.3-9.1c3.4,0.5,6.2,1.3,8.3,2.1c-2.6-2.3-5.7-5.4-8.7-9.6c-2.2-3.1-3.8-6.1-5-8.6
				c-1.4,2.7-3.2,5.8-5.5,9c-2.7,3.8-5.5,6.8-8,9.2c1.9-0.7,4.6-1.5,7.9-2c-2.7,3.7-5.4,6.7-7.9,9c2.1-0.8,5.1-1.7,8.8-2.1
				c-0.3,0.4-0.6,0.8-0.8,1.2c-2.7,3.8-5.5,6.8-8,9.2c2-0.7,4.9-1.6,8.4-2.1c-0.1,0.2-0.3,0.4-0.4,0.6c-2.7,3.8-5.5,6.8-8,9.2
				c2.6-1,6.7-1.4,11.8-1.6v14.2c-3.9-0.7-7.8-1.4-11.7-2.1c-7.3-1.2-14.6-2.3-21.9-3.3v-13.8c7.2,0.2,12.9-0.3,16.8,1.2
				c-3.6-3.3-7.8-7.8-11.8-13.7c-0.1-0.1-0.1-0.2-0.2-0.3c5,0.6,9.1,1.9,12,3.1c-3.6-3.3-7.8-7.8-11.8-13.7
				c-0.3-0.4-0.5-0.8-0.8-1.2c5.2,0.6,9.5,1.9,12.6,3.1c-3.4-3.1-7.5-7.4-11.4-13c4.7,0.7,8.5,1.9,11.4,3
				c-3.6-3.3-7.8-7.8-11.8-13.7c-3-4.4-5.2-8.7-6.9-12.4c-1.9,3.9-4.3,8.3-7.5,13c-3.7,5.4-7.5,9.7-10.9,13.1
				c2.6-1,6.3-2.2,10.7-2.9c-3.7,5.3-7.4,9.6-10.7,12.9c2.9-1.1,7-2.4,12-3.1c-0.4,0.6-0.8,1.1-1.2,1.7c-3.7,5.4-7.5,9.7-10.9,13.1
				c2.7-1.1,6.6-2.3,11.4-3c-0.2,0.3-0.3,0.5-0.5,0.8c-3.7,5.4-7.5,9.7-10.9,13.1c3.7-1.4,9.6-1,16.8-1.2v13.4
				c-11.9-1.5-23.8-2.4-35.8-2c-1.4,0-2.4,0.2-3.3,0.4c9.2,2.3,18.2,5.6,27.1,8.9c13,4.8,26.3,8.8,39.2,13.8
				C233.3,342,277,368.5,317,399.4c19.2,14.9,37,31.4,54.1,48.7c5,5,9.9,10.1,14.6,15.4c7.7-4.1,15.1-8.7,22.1-13.7
				c-10.4-13.9-21.6-27.2-33.4-40C356.6,390.5,337.2,372.4,315.7,357.2z"/>
			<path class="st2" d="M356.7,449.2c-17-16.7-34.6-32.6-53.7-46.8c-19.5-14.5-40-28.1-61.1-40.2c-21.3-12.2-43.7-22.6-66.9-31
				c-11.3-4.1-22.8-7.7-34.1-11.8c-7.7-2.9-15.6-5.9-23.7-7.9c0,0.3,0,0.6,0.1,0.8c16.7,10.9,33.7,21.3,50.1,32.6
				c35.7,24.5,66.9,54.5,97.1,85.4c14.5,14.8,29.4,29.2,43.1,44.7c2.6,2.9,5.1,5.9,7.5,8.9c21.4-1.7,41.7-7.1,60.3-15.5
				C369.4,461.9,363.1,455.5,356.7,449.2z"/>
			<path class="st2" d="M143,369.7c-6.8-7.9-13.5-15.8-20.6-23.4c9.8,38.7,32.4,73.6,63.6,98.5c12.2,9.7,25.5,17.7,39.6,24
				c-14.8-21.9-31.2-42.7-48.9-62.2C165.5,394.2,153.9,382.3,143,369.7z"/>
			<path class="st2" d="M249.9,431.2c-15-15.2-30.3-30.1-46.3-44.2c-15.7-13.8-32.2-26.3-49.6-37.9c-11.7-7.8-23.6-15.3-35.4-22.9
				c0,0,0,0.1,0,0.1c12.9,12.9,24.6,26.9,36.6,40.7c11.2,12.8,23.2,24.8,34.5,37.5c10.8,12.2,21.1,24.9,30.8,38
				c7.9,10.7,15.5,21.7,22.7,32.9c18.3,6,37.6,9.2,57.1,9.2c0.4,0,0.8,0,1.2,0c-2.8-3.2-5.7-6.4-8.6-9.5
				C278.8,460.3,264.3,445.8,249.9,431.2z"/>
		</g>
	</g>
</g>
</svg>
