<?xml version="1.0" encoding="utf-8"?>
<!-- Generator: Adobe Illustrator 25.4.1, SVG Export Plug-In . SVG Version: 6.00 Build 0)  -->
<svg version="1.1" id="Camada_1" xmlns="http://www.w3.org/2000/svg" xmlns:xlink="http://www.w3.org/1999/xlink" x="0px" y="0px"
	 viewBox="0 0 600 600" style="enable-background:new 0 0 600 600;" xml:space="preserve">
<style type="text/css">
	.st0{fill:#5ABC29;}
	.st1{fill:#2CBC13;}
	.st2{fill:#FFFFFF;}
</style>
<polygon class="st0" points="0,0 600,0 600,600 0,600 "/>
<circle class="st1" cx="300" cy="300" r="264.7"/>
<g>
	<path class="st2" d="M283.4,168.8c3.6-0.2,7.1-0.3,10.7-0.4c0.1,3.3,0.2,6.6,0.2,9.9c0,2,1.7,3.5,3.8,3.5c2.3,0,4.6,0,7,0
		c2,0,3.7-1.5,3.8-3.5c0.1-3.3,0.2-6.6,0.2-9.9c3.6,0.1,7.2,0.2,10.7,0.4c2.1,0.1,4-1.4,4.1-3.3c0.2-2.2,0.3-4.5,0.5-6.7
		c0.1-2-1.6-3.7-3.8-3.8c-3.7-0.2-7.4-0.4-11.2-0.4c0.1-3.3,0.2-6.6,0.2-9.9c0.1-2-1.8-3.6-4.1-3.6c-2.6,0-5.2,0-7.9,0
		c-2.3,0-4.2,1.7-4.1,3.6c0.1,3.3,0.2,6.6,0.2,9.9c-3.7,0.1-7.5,0.2-11.2,0.4c-2.2,0.1-3.9,1.8-3.8,3.8c0.2,2.2,0.3,4.5,0.5,6.7
		C279.4,167.4,281.3,168.9,283.4,168.8z"/>
	<path class="st2" d="M373.2,375.9l-4-1v20.4c14.3,3.4,25,16.2,25,31.6V458c0,4.1-3.3,7.4-7.4,7.4h-11c-4.1,0-7.4-3.3-7.4-7.4
		s3.3-7.4,7.4-7.4h3.6v-23.7c0-9.7-7.9-17.6-17.6-17.6s-17.6,7.9-17.6,17.6v23.7h3.6c4.1,0,7.4,3.3,7.4,7.4s-3.3,7.4-7.4,7.4h-11
		c-4.1,0-7.4-3.3-7.4-7.4v-31.1c0-15.3,10.7-28.2,25-31.6V371l-16.1-4.2v-19.5c7.9,2.8,17.9,6.3,26.8,9.4c13,4.5,27.3-0.8,34.3-12.6
		l2.1-3.5c3-5-0.6-11.4-6.5-11.4c-12,0-21.4-10.3-20.3-22.2c0.8-8.6,2.3-19.4,4.9-31.7c4.1-19.3,4.9-60.2-12.7-90l5.8-36.9
		c1.3-7.8-4-15.3-12.1-17.5c-38-10.4-79.9-10.4-117.8,0c-8.2,2.2-13.4,9.8-12.2,17.5l5.8,36.9c-17.6,29.8-16.9,70.8-12.7,90.1
		c2.7,12.3,4.1,23.1,4.9,31.7c1.1,11.9-8.3,22.2-20.3,22.2c-5.8,0-9.4,6.3-6.5,11.4l2.1,3.5c7,11.8,21.3,17.1,34.3,12.6
		c8.9-3.1,19-6.6,26.8-9.4v19.5l-16.1,4.2v32.8c7.3,3,12.4,10.1,12.4,18.4c0,11-8.9,19.9-19.9,19.9s-19.9-8.9-19.9-19.9
		c0-8.3,5.2-15.5,12.4-18.4V375l-4.1,1.1c-34.2,8.9-58.1,39.8-58.1,75.2V472c0,6.4,5.2,11.7,11.7,11.7h236c6.4,0,11.7-5.2,11.7-11.7
		v-20.9C431.3,415.7,407.4,384.8,373.2,375.9z M253.6,284c0-2.8-1.6-5.4-4.1-6.6c-3.3-1.6-3.9-5-4.6-13.5l-0.1-1.3
		c0-0.5,0.2-0.8,0.3-1c0.2-0.2,0.5-0.5,1-0.5c4.1,0,7.4-3.3,7.4-7.4v-2.3c7.8-4.4,16.1-14.6,16.4-26.9c0,0,22,26.9,80.4,29.1v0.2
		c0,4.1,3.3,7.4,7.4,7.4c0.5,0,0.8,0.2,1,0.5c0.2,0.2,0.4,0.5,0.3,1l-0.1,1.3c-0.8,8.5-1.4,11.8-4.6,13.5c-2.5,1.3-4.1,3.8-4.1,6.6
		c0,19.2-25.4,48.7-47.4,48.7h-2C279,332.7,253.6,303.2,253.6,284z M246.6,145.2c35.5-9.7,74.5-9.7,110,0c1,0.3,1.3,0.8,1.4,0.8
		l-7.2,45.4c0,0.2-0.2,0.4-0.4,0.6c-0.2,0.1-0.4,0.2-0.7,0.1c-31-8.8-65.1-8.8-96.1,0c-0.3,0.1-0.6,0-0.7-0.1
		c-0.2-0.1-0.4-0.3-0.4-0.5l-7.2-45.3C245.3,146,245.6,145.4,246.6,145.2z M280,372.6v-29.8c0-0.2,0-0.5-0.1-0.7
		c6.9,3.5,14.1,5.5,21,5.5h2c6.7,0,13.6-1.9,20.4-5.2c0,0.1,0,0.3,0,0.4v29.8L301.6,391L280,372.6z"/>
</g>
</svg>
