<?xml version="1.0" encoding="utf-8"?>
<!-- Generator: Adobe Illustrator 25.0.1, SVG Export Plug-In . SVG Version: 6.00 Build 0)  -->
<svg version="1.1" id="Camada_1" xmlns="http://www.w3.org/2000/svg" xmlns:xlink="http://www.w3.org/1999/xlink" x="0px" y="0px"
	 viewBox="0 0 600 600" style="enable-background:new 0 0 600 600;" xml:space="preserve">
<style type="text/css">
	.st0{fill:#5ABC29;}
	.st1{fill:#2CBC13;}
	.st2{fill:#FFFFFF;}
</style>
<polygon class="st0" points="0,0 600,0 600,600 0,600 "/>
<circle class="st1" cx="300" cy="300" r="264.7"/>
<g>
	<path class="st2" d="M-407.6,422c-6,1.3-10.4,6.6-10.4,12.9c0,2.9,1,5.7,2.7,8l-5.5,32.6c-0.2,1.4,0.2,2.8,1.1,3.9s2.3,1.7,3.7,1.7
		h22.6c1.4,0,2.7-0.6,3.6-1.6s1.3-2.4,1.1-3.8l-4.7-34c1.2-2,1.9-4.4,1.9-6.7c0-4.8-2.5-8.9-6.3-11.2V406l29.7,12.9v73.8
		c0,9.1,7.4,16.5,16.5,16.5H-216c9.1,0,16.5-7.4,16.5-16.5v-78.3l70.8-30.7c1.8-0.8,3-2.6,2.9-4.6s-1.4-3.7-3.2-4.4l-161-55
		c-1.1-0.4-2.2-0.3-3.3,0.1c-55.1,20.9-145.6,54.1-154.1,54.6c-2.3,0-4.2,1.6-4.7,3.8c-0.5,2.2,0.7,4.5,2.8,5.4l41.9,18.1
		L-407.6,422L-407.6,422z M-410.4,471.5l5-29.4c0.3-1.7-0.4-3.4-1.7-4.5c-0.8-0.7-1.3-1.7-1.3-2.8c0-2,1.6-3.6,3.6-3.6
		s3.6,1.6,3.6,3.6c0,1.1-0.5,1.9-0.9,2.4c-0.9,1.1-1.3,2.4-1.1,3.8l4.2,30.4h-11.4L-410.4,471.5L-410.4,471.5z M-209.3,492.6
		c0,3.8-3.1,6.9-6.9,6.9h-135.6c-3.8,0-6.9-3.1-6.9-6.9V423l67.6,29.3c0.6,0.3,1.3,0.4,1.9,0.4s1.3-0.1,1.9-0.4l78-33.8
		L-209.3,492.6L-209.3,492.6z M-432.9,380.3c34.8-10.9,118.4-42.3,141.2-51l147.6,50.4l-145.1,62.9L-385,401l80.9-10.7
		c3.5,2.2,8.8,3.5,14.9,3.5c11.1,0,19.6-4.4,19.6-10.3s-8.4-10.3-19.6-10.3c-9.6,0-17.2,3.3-19.1,8l-93.8,12.4L-432.9,380.3z
		 M-303.9,383.6c0-2.2,5.8-5.5,14.8-5.5s14.8,3.3,14.8,5.5s-5.8,5.5-14.8,5.5S-303.9,385.9-303.9,383.6z"/>
</g>
<g>
	<rect x="261.7" y="393.3" class="st2" width="81.9" height="7.8"/>
	<rect x="261.7" y="369.9" class="st2" width="81.9" height="7.8"/>
	<rect x="261.7" y="346.4" class="st2" width="81.9" height="7.8"/>
	<path class="st2" d="M218.9,194.2v42.5l5.7,0.5c2.8,0.2,5,2.6,5,5.4c0,2.8-2.2,5.2-5,5.4l-5.7,0.5v54.9l5.7,0.5
		c2.8,0.2,5,2.6,5,5.4c0,2.8-2.2,5.2-5,5.4l-5.7,0.5v54.9l5.7,0.5c2.8,0.2,5,2.6,5,5.4s-2.2,5.2-5,5.4l-5.7,0.5v49.5h162.2V194.2
		H218.9z M368.6,419.1H231.4v-26.5c6.3-2.8,10.7-9.2,10.7-16.4s-4.4-13.6-10.7-16.4v-33.9c6.3-2.8,10.7-9.2,10.7-16.4
		s-4.4-13.6-10.7-16.4v-33.9c6.3-2.8,10.7-9.2,10.7-16.4c0-7.2-4.4-13.6-10.7-16.4v-19.5h137.2V419.1z"/>
	<path class="st2" d="M347.5,238.7h-89.7v89.7h89.7V238.7z M339.7,320.7h-74.1v-74.1h74.1V320.7z"/>
	<g>
		<path class="st2" d="M299.2,261.7c0.7,0,1.3-0.1,2-0.1c0,0.6,0,1.2,0,1.9c0,0.4,0.3,0.7,0.7,0.7c0.4,0,0.9,0,1.3,0
			c0.4,0,0.7-0.3,0.7-0.7c0-0.6,0-1.2,0-1.9c0.7,0,1.3,0,2,0.1c0.4,0,0.7-0.3,0.8-0.6c0-0.4,0.1-0.8,0.1-1.3c0-0.4-0.3-0.7-0.7-0.7
			c-0.7,0-1.4-0.1-2.1-0.1c0-0.6,0-1.2,0-1.9c0-0.4-0.3-0.7-0.8-0.7c-0.5,0-1,0-1.5,0c-0.4,0-0.8,0.3-0.8,0.7c0,0.6,0,1.2,0,1.9
			c-0.7,0-1.4,0-2.1,0.1c-0.4,0-0.7,0.3-0.7,0.7c0,0.4,0.1,0.8,0.1,1.3C298.5,261.5,298.8,261.7,299.2,261.7z"/>
		<path class="st2" d="M316,300.5l-0.8-0.2v3.8c2.7,0.6,4.7,3,4.7,5.9v5.8c0,0.8-0.6,1.4-1.4,1.4h-2.1c-0.8,0-1.4-0.6-1.4-1.4
			c0-0.8,0.6-1.4,1.4-1.4h0.7V310c0-1.8-1.5-3.3-3.3-3.3c-1.8,0-3.3,1.5-3.3,3.3v4.4h0.7c0.8,0,1.4,0.6,1.4,1.4
			c0,0.8-0.6,1.4-1.4,1.4h-2.1c-0.8,0-1.4-0.6-1.4-1.4V310c0-2.9,2-5.3,4.7-5.9v-4.5l-3-0.8v-3.7c1.5,0.5,3.4,1.2,5,1.8
			c2.4,0.8,5.1-0.1,6.4-2.4l0.4-0.7c0.6-0.9-0.1-2.1-1.2-2.1c-2.2,0-4-1.9-3.8-4.1c0.1-1.6,0.4-3.6,0.9-5.9
			c0.8-3.6,0.9-11.3-2.4-16.9l1.1-6.9c0.2-1.5-0.7-2.9-2.3-3.3c-7.1-1.9-15-1.9-22.1,0c-1.5,0.4-2.5,1.8-2.3,3.3l1.1,6.9
			c-3.3,5.6-3.2,13.3-2.4,16.9c0.5,2.3,0.8,4.3,0.9,5.9c0.2,2.2-1.6,4.1-3.8,4.1c-1.1,0-1.8,1.2-1.2,2.1l0.4,0.7
			c1.3,2.2,4,3.2,6.4,2.4c1.7-0.6,3.5-1.2,5-1.8v3.7l-3,0.8v6.1c1.4,0.6,2.3,1.9,2.3,3.4c0,2.1-1.7,3.7-3.7,3.7
			c-2.1,0-3.7-1.7-3.7-3.7c0-1.6,1-2.9,2.3-3.4v-5.4l-0.8,0.2c-6.4,1.7-10.9,7.5-10.9,14.1v3.9c0,1.2,1,2.2,2.2,2.2h44.2
			c1.2,0,2.2-1,2.2-2.2v-3.9C326.9,307.9,322.4,302.1,316,300.5z M293.6,283.3c0-0.5-0.3-1-0.8-1.2c-0.6-0.3-0.7-0.9-0.9-2.5l0-0.2
			c0-0.1,0-0.1,0.1-0.2c0,0,0.1-0.1,0.2-0.1c0.8,0,1.4-0.6,1.4-1.4v-0.4c1.5-0.8,3-2.7,3.1-5c0,0,4.1,5,15,5.4v0
			c0,0.8,0.6,1.4,1.4,1.4c0.1,0,0.2,0,0.2,0.1c0,0,0.1,0.1,0.1,0.2l0,0.2c-0.1,1.6-0.3,2.2-0.9,2.5c-0.5,0.2-0.8,0.7-0.8,1.2
			c0,3.6-4.8,9.1-8.9,9.1h-0.4C298.4,292.4,293.6,286.9,293.6,283.3z M292.3,257.3c6.6-1.8,14-1.8,20.6,0c0.2,0,0.2,0.2,0.3,0.2
			l-1.3,8.5c0,0,0,0.1-0.1,0.1c0,0-0.1,0-0.1,0c-5.8-1.6-12.2-1.6-18,0c-0.1,0-0.1,0-0.1,0c0,0-0.1-0.1-0.1-0.1l-1.3-8.5
			C292.1,257.4,292.1,257.3,292.3,257.3z M298.6,299.9v-5.6c0,0,0-0.1,0-0.1c1.3,0.6,2.6,1,3.9,1h0.4c1.2,0,2.6-0.4,3.8-1
			c0,0,0,0,0,0.1v5.6l-4.1,3.4L298.6,299.9z"/>
	</g>
</g>
</svg>
