<?xml version="1.0" encoding="utf-8"?>
<!-- Generator: Adobe Illustrator 25.4.1, SVG Export Plug-In . SVG Version: 6.00 Build 0)  -->
<svg version="1.1" id="Camada_1" xmlns="http://www.w3.org/2000/svg" xmlns:xlink="http://www.w3.org/1999/xlink" x="0px" y="0px"
	 viewBox="0 0 600 600" style="enable-background:new 0 0 600 600;" xml:space="preserve">
<style type="text/css">
	.st0{fill:#5ABC29;}
	.st1{fill:#2CBC13;}
	.st2{fill:#FFFFFF;}
</style>
<polygon class="st0" points="0,0 600,0 600,600 0,600 "/>
<circle class="st1" cx="300" cy="300" r="264.7"/>
<g>
	<rect x="240.6" y="424.9" class="st2" width="127.1" height="12.1"/>
	<rect x="240.6" y="388.6" class="st2" width="127.1" height="12.1"/>
	<rect x="240.6" y="352.1" class="st2" width="127.1" height="12.1"/>
	<path class="st2" d="M174.2,116v65.9l8.8,0.8c4.3,0.3,7.8,4,7.8,8.4c0,4.3-3.4,8.1-7.8,8.4l-8.8,0.8v85.2l8.8,0.8
		c4.3,0.3,7.8,4,7.8,8.4c0,4.3-3.4,8.1-7.8,8.4l-8.8,0.8v85.2l8.8,0.8c4.3,0.3,7.8,4,7.8,8.4c0,4.3-3.4,8.1-7.8,8.4l-8.8,0.8V484
		h251.7V116H174.2z M406.4,464.9H193.6v-41.1c9.8-4.3,16.6-14.3,16.6-25.4c0-11.2-6.8-21.1-16.6-25.4v-52.6
		c9.8-4.3,16.6-14.3,16.6-25.4c0-11.2-6.8-21.1-16.6-25.4v-52.6c9.8-4.3,16.6-14.3,16.6-25.4s-6.8-21.1-16.6-25.4v-30.3h212.9
		L406.4,464.9L406.4,464.9z"/>
	<path class="st2" d="M373.7,185H234.5v139.2h139.2V185z M361.6,312.3h-115v-115h115V312.3z"/>
	<g>
		<path class="st2" d="M298.8,220.7c1.1,0,2-0.2,3.1-0.2c0,0.9,0,1.9,0,2.9c0,0.6,0.5,1.1,1.1,1.1c0.6,0,1.4,0,2,0s1.1-0.5,1.1-1.1
			c0-0.9,0-1.9,0-2.9c1.1,0,2,0,3.1,0.2c0.6,0,1.1-0.5,1.2-0.9c0-0.6,0.2-1.2,0.2-2c0-0.6-0.5-1.1-1.1-1.1c-1.1,0-2.2-0.2-3.3-0.2
			c0-0.9,0-1.9,0-2.9c0-0.6-0.5-1.1-1.2-1.1s-1.6,0-2.3,0c-0.6,0-1.2,0.5-1.2,1.1c0,0.9,0,1.9,0,2.9c-1.1,0-2.2,0-3.3,0.2
			c-0.6,0-1.1,0.5-1.1,1.1c0,0.6,0.2,1.2,0.2,2C297.7,220.4,298.1,220.7,298.8,220.7z"/>
		<path class="st2" d="M324.8,280.9l-1.2-0.3v5.9c4.2,0.9,7.3,4.7,7.3,9.2v9c0,1.2-0.9,2.2-2.2,2.2h-3.3c-1.2,0-2.2-0.9-2.2-2.2
			s0.9-2.2,2.2-2.2h1.1v-6.8c0-2.8-2.3-5.1-5.1-5.1c-2.8,0-5.1,2.3-5.1,5.1v6.8h1.1c1.2,0,2.2,0.9,2.2,2.2s-0.9,2.2-2.2,2.2h-3.3
			c-1.2,0-2.2-0.9-2.2-2.2v-9c0-4.5,3.1-8.2,7.3-9.2v-7l-4.7-1.2v-5.7c2.3,0.8,5.3,1.9,7.8,2.8c3.7,1.2,7.9-0.2,9.9-3.7l0.6-1.1
			c0.9-1.4-0.2-3.3-1.9-3.3c-3.4,0-6.2-2.9-5.9-6.4c0.2-2.5,0.6-5.6,1.4-9.2c1.2-5.6,1.4-17.5-3.7-26.2l1.7-10.7
			c0.3-2.3-1.1-4.5-3.6-5.1c-11-2.9-23.3-2.9-34.3,0c-2.3,0.6-3.9,2.8-3.6,5.1l1.7,10.7c-5.1,8.7-5,20.6-3.7,26.2
			c0.8,3.6,1.2,6.7,1.4,9.2c0.3,3.4-2.5,6.4-5.9,6.4c-1.7,0-2.8,1.9-1.9,3.3l0.6,1.1c2,3.4,6.2,5,9.9,3.7c2.6-0.9,5.4-1.9,7.8-2.8
			v5.7l-4.7,1.2v9.5c2.2,0.9,3.6,2.9,3.6,5.3c0,3.3-2.6,5.7-5.7,5.7c-3.3,0-5.7-2.6-5.7-5.7c0-2.5,1.6-4.5,3.6-5.3v-8.4l-1.2,0.3
			c-9.9,2.6-16.9,11.6-16.9,21.9v6.1c0,1.9,1.6,3.4,3.4,3.4h68.6c1.9,0,3.4-1.6,3.4-3.4v-6.1C341.7,292.4,334.8,283.4,324.8,280.9z
			 M290.1,254.2c0-0.8-0.5-1.6-1.2-1.9c-0.9-0.5-1.1-1.4-1.4-3.9v-0.3c0-0.2,0-0.2,0.2-0.3c0,0,0.2-0.2,0.3-0.2
			c1.2,0,2.2-0.9,2.2-2.2v-0.6c2.3-1.2,4.7-4.2,4.8-7.8c0,0,6.4,7.8,23.3,8.4l0,0c0,1.2,0.9,2.2,2.2,2.2c0.2,0,0.3,0,0.3,0.2
			c0,0,0.2,0.2,0.2,0.3v0.3c-0.2,2.5-0.5,3.4-1.4,3.9c-0.8,0.3-1.2,1.1-1.2,1.9c0,5.6-7.4,14.1-13.8,14.1h-0.6
			C297.5,268.3,290.1,259.8,290.1,254.2z M288.1,213.9c10.2-2.8,21.7-2.8,32,0c0.3,0,0.3,0.3,0.5,0.3l-2,13.2c0,0,0,0.2-0.2,0.2
			h-0.2c-9-2.5-18.9-2.5-27.9,0c-0.2,0-0.2,0-0.2,0l-0.2-0.2l-2-13.2C287.7,214,287.7,213.9,288.1,213.9z M297.8,280v-8.7v-0.2
			c2,0.9,4,1.6,6.1,1.6h0.6c1.9,0,4-0.6,5.9-1.6c0,0,0,0,0,0.2v8.7l-6.4,5.3L297.8,280z"/>
	</g>
</g>
</svg>
