<?xml version="1.0" encoding="utf-8"?>
<!-- Generator: Adobe Illustrator 25.2.3, SVG Export Plug-In . SVG Version: 6.00 Build 0)  -->
<svg version="1.1" id="Camada_1" xmlns="http://www.w3.org/2000/svg" xmlns:xlink="http://www.w3.org/1999/xlink" x="0px" y="0px"
	 viewBox="0 0 720 716" style="enable-background:new 0 0 720 716;" xml:space="preserve">
<style type="text/css">
	.st0{fill:#5ABC29;}
	.st1{fill:#2DBC14;}
	.st2{fill:#2DBC14;stroke:#FFFFFF;stroke-width:16;stroke-miterlimit:10;}
	.st3{opacity:0.2;fill:#424242;}
	.st4{fill:#2DBC14;stroke:#FFFFFF;stroke-width:10;stroke-miterlimit:10;}
</style>
<g id="Layer_2_1_">
	<g id="Layer_1-2_1_">
		<rect class="st0" width="720" height="716"/>
		<circle class="st1" cx="359" cy="358" r="284.5"/>
		<g id="XMLID_206_">
			<g id="XMLID_523_">
				<path id="XMLID_560_" class="st2" d="M467.3,528.4H250.9c-10.7,0-19.3-8.7-19.3-19.3v-7.2c0-10.7,8.7-19.3,19.3-19.3h235.8v19.3
					v7.2C486.6,519.8,478,528.4,467.3,528.4z"/>
				<path id="XMLID_557_" class="st3" d="M231.5,509.1v-36.4h19.3h226.7c5,0,9.1,5.9,9.1,13.1v1.6c0,7.3-4.1,13.1-9.1,13.1
					L249,500.8c-2.7,0-5.4,0.8-7.8,2.2L231.5,509.1z"/>
				<path id="XMLID_542_" class="st2" d="M474.3,494.9H253.3c-6.1,0-12,2.2-16.5,6.2l-5.2,4.5V177.3c0-6.8,5.5-12.3,12.3-12.3h230.5
					c6.8,0,12.3,5.5,12.3,12.3v305.3C486.6,489.4,481.1,494.9,474.3,494.9z"/>
			</g>
			<path class="st4" d="M458.6,330c-4.7,0-8.4,3.8-8.4,8.4v58.8c-2-0.6-4.1-0.9-6.2-0.9h-0.3v-70.6c0-4.7-3.8-8.4-8.4-8.4
				c-4.7,0-8.4,3.8-8.4,8.4v70.6h-6.5v-81.3c0-4.7-3.8-8.4-8.4-8.4c-3.3,0-6.1,1.9-7.5,4.6c0,0,0,0.1,0,0.1
				c-0.1,0.2-0.2,0.4-0.3,0.6c0,0.1-0.1,0.1-0.1,0.2c-0.1,0.2-0.1,0.3-0.2,0.5c0,0.1-0.1,0.2-0.1,0.3c0,0.1-0.1,0.3-0.1,0.4
				c0,0.2-0.1,0.3-0.1,0.5c0,0.1,0,0.2,0,0.3c0,0.3,0,0.6,0,0.8v81.3H397v-72.8c0-4.7-3.8-8.4-8.4-8.4s-8.4,3.8-8.4,8.4v72.8h-2
				c-1.1,0-2.2,0.1-3.2,0.3v-38.4c0-5.4-4.3-9.7-9.7-9.7h-0.4c-2,0-9.7,0-9.7,0s0,6.4,0,9.7v61.3v5.2v24.7
				c0,12.7,10.3,23.1,23.1,23.1h-2.7V595h35.6h35.6V472.4h-2.7c12.7,0,23.1-10.3,23.1-23.1V426v-6.5v-81
				C467,333.8,463.2,330,458.6,330z"/>
		</g>
	</g>
</g>
</svg>
