<?xml version="1.0" encoding="utf-8"?>
<!-- Generator: Adobe Illustrator 25.2.3, SVG Export Plug-In . SVG Version: 6.00 Build 0)  -->
<svg version="1.1" id="Camada_1" xmlns="http://www.w3.org/2000/svg" xmlns:xlink="http://www.w3.org/1999/xlink" x="0px" y="0px"
	 viewBox="0 0 720 716" style="enable-background:new 0 0 720 716;" xml:space="preserve">
<style type="text/css">
	.st0{fill:#5ABC29;}
	.st1{fill:#2DBC14;}
	.st2{fill:none;stroke:#FFFFFF;stroke-width:8;stroke-miterlimit:10;}
	.st3{fill:none;stroke:#FFFFFF;stroke-width:14;stroke-miterlimit:10;}
	.st4{fill:#2DBC14;stroke:#FFFFFF;stroke-width:14;stroke-miterlimit:10;}
</style>
<g id="Layer_2">
	<g id="Layer_1-2">
		<rect class="st0" width="720" height="716"/>
		<circle class="st1" cx="359" cy="358" r="284.5"/>
		<g>
			<g>
				<g>
					<g>
						<rect x="312.6" y="444.4" class="st2" width="180.6" height="18.6"/>
						<path class="st2" d="M493.2,466H312.6c-1.7,0-3-1.3-3-3v-18.6c0-1.7,1.3-3,3-3h180.6c1.7,0,3,1.3,3,3V463
							C496.2,464.7,494.9,466,493.2,466z M315.6,460h174.6v-12.6H315.6V460z"/>
					</g>
				</g>
				<g>
					<g>
						<rect x="297.4" y="465.2" class="st2" width="211.1" height="35.1"/>
						<path class="st2" d="M508.5,503.3H297.4c-1.7,0-3-1.3-3-3v-35.1c0-1.7,1.3-3,3-3h211.1c1.7,0,3,1.3,3,3v35.1
							C511.5,502,510.1,503.3,508.5,503.3z M300.4,497.3h205v-29.1h-205V497.3z"/>
					</g>
					<g>
						<path class="st2" d="M510.6,502.5H295.3v-39.4h215.3V502.5z"/>
						<path class="st2" d="M510.6,505.5H295.3c-1.7,0-3-1.3-3-3v-39.4c0-1.7,1.3-3,3-3h215.3c1.7,0,3,1.3,3,3v39.4
							C513.6,504.1,512.2,505.5,510.6,505.5z M298.3,499.4h209.3v-33.3H298.3V499.4z"/>
					</g>
				</g>
			</g>
			<g>
				<path class="st3" d="M486.5,331.7l-113.7-139c-0.5-0.6-1.2-1-2-1.1c-0.8-0.1-1.6,0.2-2.2,0.7l-82.4,67.4c-0.6,0.5-1,1.2-1.1,2
					c-0.1,0.8,0.2,1.6,0.7,2.2l47.4,57.9c-45.6,34.8-159,121.2-170.6,130.7c-8.6,7.1-8.9,15.1-7.7,20.6c1.3,5.7,4.6,9.8,4.8,10
					c0.3,0.3,7,8.5,17,8.5c4.7,0,9.2-1.8,13.5-5.3C201.8,476.8,309,382.8,352.1,345l47.4,57.9c0.5,0.6,1.2,1,2,1.1
					c0.1,0,0.2,0,0.3,0c0.7,0,1.4-0.2,1.9-0.7l82.4-67.4c0.6-0.5,1-1.2,1.1-2C487.3,333.1,487,332.3,486.5,331.7z"/>
				<g>
					<g>
						<g>
							<path class="st4" d="M408.8,411.6c-6.6,5.4-16.3,4.4-21.7-2.2l0,0c-5.4-6.6-4.4-16.3,2.2-21.7l84.7-69.3
								c6.6-5.4,16.3-4.4,21.7,2.2l0,0c5.4,6.6,4.4,16.3-2.2,21.7L408.8,411.6z"/>
						</g>
					</g>
					<g>
						<g>
							<path class="st4" d="M298.6,276.9c-6.6,5.4-16.3,4.4-21.7-2.2l0,0c-5.4-6.6-4.4-16.3,2.2-21.6l84.7-69.3
								c6.6-5.4,16.3-4.4,21.7,2.2l0,0c5.4,6.6,4.4,16.3-2.2,21.7L298.6,276.9z"/>
							<path class="st4" d="M288.9,283.4c-5.6,0-10.7-2.5-14.2-6.8c-3.1-3.8-4.6-8.6-4.1-13.5c0.5-4.9,2.9-9.3,6.7-12.4l84.7-69.3
								c7.6-6.2,19.7-5,25.9,2.6c6.4,7.9,5.3,19.5-2.6,25.9l-84.7,69.3C297.3,281.9,293.1,283.4,288.9,283.4z"/>
						</g>
					</g>
				</g>
			</g>
		</g>
	</g>
</g>
</svg>
