<?xml version="1.0" encoding="utf-8"?>
<!-- Generator: Adobe Illustrator 25.2.3, SVG Export Plug-In . SVG Version: 6.00 Build 0)  -->
<svg version="1.1" id="Camada_1" xmlns="http://www.w3.org/2000/svg" xmlns:xlink="http://www.w3.org/1999/xlink" x="0px" y="0px"
	 viewBox="0 0 720 716" style="enable-background:new 0 0 720 716;" xml:space="preserve">
<style type="text/css">
	.st0{fill:#5ABC29;}
	.st1{fill:#2DBC14;}
	.st2{fill:#FFFFFF;}
</style>
<g id="Layer_2">
	<g id="Layer_1-2">
		<rect class="st0" width="720" height="716"/>
		<circle class="st1" cx="359" cy="358" r="284.5"/>
		<g>
			<path class="st2" d="M504.3,379.1L504.3,379.1l-8.3-3.4c8.7-11.7,6.4-30.6-3-35.5c-4.9-2.6-6-4.5-6-7.5v-3.4
				c4.2-3,7.2-7.5,7.2-13.2c0-5.7-3-10.6-7.2-13.2v-10.2c0-40.8-47.2-63-78.5-37.7c-1.9-1.5-2.3-3-2.3-4.9v-3.4
				c4.2-3,7.2-7.5,7.2-13.2c0-5.7-3-10.6-7.2-13.2V210c0-27.2-21.5-48.7-48.3-48.7c-0.4,0-0.4,0-0.8,0
				c-26.4,0.4-47.6,22.3-47.6,49.1v9.4c-4.5,2.6-7.5,7.9-7.5,13.6c0,5.7,3,10.6,7.5,13.6v3.4c0,2.3-0.8,4.2-4.2,6.4
				c-2.3-7.9-8.3-12.1-17.7-12.1h-33.2c-15.1,0-27.6,12.5-27.6,27.6v24.2c0,1.9,0.4,4.2,1.1,5.7c-4.2,3-6.8,7.9-6.8,13.2
				c0,9.1,7.2,16.6,15.9,16.6h3c1.1,10.2,6.4,18.9,14,24.9v6l-42.6,16.6l0,0c-9.8,4.2-20.4,15.9-20.4,31.7v31.3
				c0,6,4.9,11.3,11.3,11.3h111.7l-21.5,8.3l0,0c-9.8,4.2-20.4,15.9-20.4,31.7v31.3c0,6,4.9,11.3,11.3,11.3h62.3
				c3,0,5.7-2.6,5.7-5.7c0-3-2.3-5.7-5.7-5.7h-33.2c0-10.2,0-17.4,0-28.3c0-3-2.3-5.7-5.7-5.7s-5.7,2.6-5.7,5.7v7.5h-18.9v-10.6
				c0-11.7,8.3-19.2,13.6-21.5l28.7-11.3c6.4,12.5,18.9,20,33.6,20c14,0,26.4-7.9,32.5-20l28.7,10.9c6.8,2.6,13.6,10.9,13.6,21.5
				V504h-18.9v-7.5c0-3-2.3-5.7-5.7-5.7c-3,0-5.7,2.6-5.7,5.7v28.3h-32.5c-3,0-5.7,2.6-5.7,5.7c0,3,2.3,5.7,5.7,5.7h62.3
				c6,0,11.3-4.9,11.3-11.3c0-23,0-5.7,0-31.3c0-13.6-8.3-26.8-20.4-31.7l0,0l-21.5-8.3h111.7c6,0,11.3-4.9,11.3-11.3
				c0-3,0-27.9,0-31.3C524.7,397.2,516.4,384,504.3,379.1L504.3,379.1z M282.7,523.6v-9.1h18.9v10.2h-18.9c0,0-0.4,0-0.4-0.4
				L282.7,523.6z M414.1,524.4v-10.2H433v9.8c0,0,0,0.4-0.4,0.4H414.1z M513.7,410.8v10.6h-18.9v-7.5c0-3-2.3-5.7-5.7-5.7
				c-3,0-5.7,2.6-5.7,5.7v28.3H380.9c0-1.5,0-1.1,0-3c7.9-6,12.8-15.1,14-24.9h3c8.7,0,15.9-7.5,15.9-16.6l0,0
				c0-6.8-4.2-12.8-10.2-15.5c0-0.4,0-1.1,0-3l2.6-1.1c3.8,7.2,9.8,13.2,17,16.6c2.6,1.1,6,0,7.2-2.6c1.1-2.6,0-6-2.6-7.2
				c-4.9-2.3-8.7-6-11.3-10.6l2.6-1.1c2.3-0.8,7.9-2.6,7.9-9.1v-1.9c8.3,2.6,17.7,2.3,24.2,0v1.9c0,3.4,2.3,6.8,5.7,7.9l4.9,1.9
				c-2.6,4.9-7.2,8.7-12.5,10.9c-2.6,1.1-4.2,4.5-3,7.2c1.1,2.6,4.5,4.2,7.2,3c7.9-3.4,14.3-9.4,18.1-17c3.8,1.5,25.3,9.8,29.1,11.3
				C506.9,391.9,513.7,400.2,513.7,410.8L513.7,410.8z M331.8,408.5V393h28.3c6.8,0,13.2-2.6,18.1-6.8c1.5,2.3,3.4,3.8,5.7,4.9v17.4
				c0,17-12.5,27.2-25.7,27.2C343.5,435.7,331.8,425.1,331.8,408.5L331.8,408.5z M317.8,402.8c-2.6,0-4.9-2.3-4.9-5.3
				c0-2.6,1.9-4.9,3.8-5.3c1.1,0.4,2.6,0.8,3.8,0.8v9.8H317.8L317.8,402.8z M308.4,347.3c-0.8,2.3-0.8,4.9-0.8,6.8v11.3
				c0,0-5.3-1.9-7.5-3v-6C303.1,354.1,306.1,350.7,308.4,347.3L308.4,347.3z M316,261.7c3.4-3.8,4.5-7.9,4.5-12.5h1.1
				c1.1,10.2,6,18.5,13.2,24.2v6c-1.5,0.4-6.4,2.6-12.5,4.9v-10.2C322.4,268.8,320.1,264.3,316,261.7z M312.9,233
				c0-2.6,2.3-4.9,4.9-4.9h3.4v9.8h-3.4C315.2,237.9,312.9,236,312.9,233z M357.9,219.4c3.8,4.5,9.4,7.9,15.9,8.3
				c6.8,0.8,5.3,0.4,9.8,0.4v15.5c0,17-12.8,26.8-25.3,26.8c-14.3,0-26-10.2-26-26.8v-15.5C342.8,228.1,351.1,227.7,357.9,219.4
				L357.9,219.4z M397.5,228.1c2.6,0,4.9,2.3,4.9,4.9c0,2.6-2.3,4.9-4.9,4.9h-3v-9.8C394.5,228.1,397.5,228.1,397.5,228.1z
				 M438.6,302.4c1.9,2.3,4.2,4.2,6.8,5.7c4.5,2.6,8.3,2.6,11.3,3c4.2,0.4,3,0.4,7.5,0.4V327c0,23-23.4,33.2-40,22.3
				c0,0-11.3-6.8-11.3-20.8c0-6.8,0-10.2,0-17C423.5,311.1,431.8,310.7,438.6,302.4L438.6,302.4z M478.3,311.1
				c2.6,0,4.9,2.3,4.9,4.9c0,2.6-2.3,4.9-4.9,4.9h-3v-9.8H478.3L478.3,311.1z M374.5,373.4c-3,5.3-8.3,8.7-14.7,8.7
				c-17.4,0-26.4,0-37.7,0c-1.9,0-3.8-1.5-3.8-3.8l0,0c0-11.7,0-13.6,0-24.2c0-9.1,7.5-16.6,16.6-16.6H368c6,0,6.8,2.3,7.5,5.3
				c1.1,5.7,6.4,9.4,12.1,9.1l0,0c1.9,0,4.5,1.5,4.5,4.5v18.9v6.4l0,0c0,0.4-0.4,0.4-0.4,0.4c-3.4,0-6-2.6-6-6c0-2.6-1.9-5.3-4.5-6
				C378.6,369.6,376,370.7,374.5,373.4z M403.1,367.4v-10.9c0-4.9-2.3-9.4-6-12.1c3-3.8,4.2-7.5,4.2-12.1h1.1
				c0.8,6.8,3.4,12.8,7.2,17.7c1.9,2.3,3.8,4.5,6.4,6.4v6C414.1,363.2,409.2,365.1,403.1,367.4L403.1,367.4z M382.8,316
				c0,5.7,3,10.6,7.5,13.6v3.4c0,3-1.5,4.9-4.2,6.4c-2.3-9.1-9.1-12.8-18.1-12.8h-32.8l0,0c-2.6,0-5.7,0.4-8.3,1.1
				c9.8-7.9,7.2-23.8-4.5-28.3c0-0.4,0-3.4,0-3.8l2.6-1.1c12.8,25.7,51,27.6,65.3,0.4v7.2C385.8,305.5,382.8,310.7,382.8,316
				L382.8,316z M312.6,338.3c0.8-2.3,1.1-4.9,1.5-6.8h3c0.8,0,1.9,0,3-0.4C317.1,333,314.4,335.6,312.6,338.3z M369.9,279.4v1.9
				c0,3.8,2.3,6.8,5.7,7.9c1.9,0.8,3,1.1,4.9,1.9c-10.2,18.1-35.9,16.6-44.9,0c4.5-1.9,10.6-3,10.6-9.8v-1.9
				C353.3,281.7,362.4,282.1,369.9,279.4z M316,309.6h1.1c2.6,0,4.9,2.3,4.9,5.3c0,3-2.3,5.3-4.9,5.3h-2.6V310
				C314.4,310,315.6,310,316,309.6z M394.8,392.6c0.4,0,1.5-0.4,1.9-0.8h1.1c2.6,0,4.9,2.3,4.9,5.3c0,3-2.3,5.3-4.9,5.3h-2.6
				L394.8,392.6z M402,320.9h-3.4c-2.6,0-4.9-2.3-4.9-4.9c0-2.6,2.3-4.9,4.9-4.9h3.4V320.9z M391.1,283.6l-10.6-4.2V273
				c7.5-6,12.1-14.7,13.2-24.2h1.1c0,5.3,1.1,9.8,5.7,14C396,269.2,392.6,276.4,391.1,283.6L391.1,283.6z M488.1,350
				c3,1.5,4.9,15.1-3,21.5c-13.2-5.3-9.1-3.4-23.4-9.1V356c7.5-6,12.1-14.7,13.2-24.2h1.1C476,340.9,479.8,345.8,488.1,350z
				 M465,266.2c7.2,7.2,10.9,16.6,10.9,26.4v7.5h-6.4h-8.3c-0.8,0-0.8,0-6-0.4c-4.9-0.4-9.4-4.5-10.9-9.4c-1.5-6-10.2-6-11.7,0
				c-1.1,4.9-5.7,9.1-10.9,9.4c-7.5,0.8-3,0.4-20.8,0.4v-6.8C401.3,259.8,441.3,242.8,465,266.2z M320.5,210.3
				c0-20.8,16.6-37.7,37-38.1c20.8-0.4,37.7,16.6,37.7,37.4v7.5c-18.1,0-14,0-20.8-0.4c-4.9-0.4-9.4-4.5-10.9-9.4
				c-0.4-2.6-3-4.5-5.7-4.5c-2.6,0-5.3,1.9-5.7,4.5c-1.1,4.5-5.3,9.1-10.9,9.4c-6.8,0.8-4.2,0.4-20.4,0.4L320.5,210.3L320.5,210.3z
				 M237.8,271.9c0-9.1,7.5-16.6,16.6-16.6h33.2c6,0,6.8,2.3,7.5,5.3c1.1,5.7,6.4,9.4,12.1,9.1c1.9,0,4.5,1.9,4.5,4.5v18.1v7.2
				c0,0.4-0.4,0.4-0.4,0.4c-3.4,0-6-2.6-6-6c0-2.3-1.5-4.5-3.8-5.7c-3-1.1-6.4,0-7.9,2.6l0,0c-3,5.3-8.3,8.7-14.7,8.7
				c-17.4,0-26.4,0-37.7,0c-1.9,0-3.8-1.5-3.8-3.8L237.8,271.9L237.8,271.9z M232.2,314.9c0-2.6,1.9-4.9,3.8-5.3
				c1.1,0.4,2.6,0.8,3.8,0.8v9.8h-2.6C234.4,320.6,232.2,317.9,232.2,314.9z M251,325.8v-15.5h28.3c6.8,0,13.2-2.3,18.1-6.8
				c1.5,2.3,3.4,3.8,5.7,4.9v17.4c0,16.6-11.3,27.2-25.7,27.2C263.1,353.4,251,343.2,251,325.8L251,325.8z M289.2,362.4v1.9
				c0,3.8,2.3,6.8,5.7,7.9c2.3,0.8,1.1,0.4,5.3,1.9c-4.5,7.9-12.8,12.8-22.3,12.8c-10.2,0-18.5-4.9-23.4-12.8l6-2.3
				c2.6-1.1,4.9-3.8,4.9-7.5v-1.9C272.6,364.7,281.2,365.1,289.2,362.4L289.2,362.4z M215.6,389.2l28.7-11.3
				c6.4,12.5,18.9,20,33.6,20c12.5,0,23.8-6.4,30.6-16.2c0,0.8,0.4,1.1,0.8,2.3c-4.2,3-6.8,7.9-6.8,13.2c0,9.1,7.2,16.6,15.9,16.6h3
				c1.1,10.2,6.4,19.2,14,24.9v3.4H231.8c0-10.2,0-17.4,0-28.3c0-3-2.3-5.7-5.7-5.7c-3,0-5.7,2.6-5.7,5.7v7.5h-18.9v-10.6
				C202,399.1,209.9,391.5,215.6,389.2L215.6,389.2z M202,441.7V441v-9.1h18.9v10.2L202,441.7C202,442.1,202,442.1,202,441.7
				L202,441.7z M358.2,469.3c-10.2,0-18.5-4.9-23.4-12.8l6-2.3c2.6-1.1,4.9-4.2,4.9-7.5v-1.9c7.5,2.6,16.2,2.6,24.2,0
				c0,1.5-0.4,6.4,4.2,9.1c0.8,0.4,0.8,0.4,6.4,2.6C376,464.4,367.7,469.3,358.2,469.3L358.2,469.3z M513.7,441.7
				C513.7,442.1,513.7,442.1,513.7,441.7l-18.9,0.4v-10.2h18.9V441.7z"/>
		</g>
	</g>
</g>
</svg>
