<?xml version="1.0" encoding="utf-8"?>
<!-- Generator: Adobe Illustrator 25.2.1, SVG Export Plug-In . SVG Version: 6.00 Build 0)  -->
<svg version="1.1" id="Layer_1" xmlns="http://www.w3.org/2000/svg" xmlns:xlink="http://www.w3.org/1999/xlink" x="0px" y="0px"
	 viewBox="0 0 250 250" style="enable-background:new 0 0 250 250;" xml:space="preserve">
<style type="text/css">
	.st0{fill:#FFFFFF;}
</style>
<g>
	<path class="st0" d="M202.9,48.2h-11.4V36.8c0-2-1.6-3.6-3.6-3.6l0,0h-57.2V21.7c-0.4-6.3-5.8-11.1-12.1-10.7
		c-5.8,0.3-10.4,4.9-10.7,10.7v11.6H50.7c-2,0-3.6,1.6-3.6,3.6v182.9c0,2,1.6,3.6,3.6,3.6h11.4v11.4c0,0.4,0,0.7,0,1.1
		c0.5,1.5,1.9,2.5,3.5,2.5h137.3c2,0,3.6-1.6,3.6-3.6v-183C206.5,49.8,204.9,48.2,202.9,48.2z M115.1,21.7c0-1.1,0.5-2.2,1.2-2.9
		c0.8-0.8,1.8-1.2,2.9-1.2c2.3,0,4.1,1.9,4.1,4.1v11.6h-8.3L115.1,21.7z M54.3,40.4h53.5v11.6c-0.4,6.3,4.4,11.7,10.7,12.1
		c6.3,0.4,11.7-4.4,12.1-10.7c0-0.5,0-0.9,0-1.4v-3.6c-0.2-2-2-3.4-4-3.2c-1.7,0.2-3.1,1.5-3.2,3.2v3.6c0,2.3-1.9,4.1-4.1,4.1
		s-4.1-1.9-4.1-4.1V40.4h69.1v175.7H54.3V40.4z M69.3,231.1v-7.7h118.5c2,0,3.6-1.6,3.6-3.6c0,0,0,0,0,0V55.5h7.7v175.6H69.3z
		 M115.7,82.6c0-2,1.6-3.6,3.6-3.6h45.5c2,0.2,3.4,2,3.2,4c-0.2,1.7-1.5,3.1-3.2,3.2h-45.5C117.3,86.2,115.7,84.6,115.7,82.6
		C115.7,82.6,115.7,82.6,115.7,82.6z M70.1,82.6c0-2,1.6-3.6,3.6-3.6h22.8c2-0.2,3.8,1.2,4,3.2c0.2,2-1.2,3.8-3.2,4
		c-0.3,0-0.5,0-0.8,0h-23c-2,0-3.6-1.6-3.6-3.6c0,0,0,0,0,0L70.1,82.6z M73.9,101.8h68.3c2-0.2,3.8,1.2,4,3.2c0.2,2-1.2,3.8-3.2,4
		c-0.3,0-0.5,0-0.8,0H73.7c-2,0.2-3.8-1.2-4-3.2c-0.2-2,1.2-3.8,3.2-4c0.3,0,0.5,0,0.8,0H73.9z M169,105.4c0,2-1.6,3.6-3.6,3.6
		h-10.2c-2-0.2-3.4-2-3.2-4c0.2-1.7,1.5-3.1,3.2-3.2h9.8c2,0,3.6,1.6,3.6,3.6c0,0,0,0,0,0L169,105.4z M169,150.9
		c0,2-1.6,3.6-3.6,3.6c0,0,0,0,0,0h-23.3c-2-0.2-3.4-2-3.2-4c0.2-1.7,1.5-3.1,3.2-3.2H165c2,0,3.6,1.6,3.6,3.6c0,0,0,0.1,0,0.1
		L169,150.9z M69.9,128.5c0-2,1.6-3.6,3.6-3.6c0,0,0,0,0,0h91.4c2,0.2,3.4,2,3.2,4c-0.2,1.7-1.5,3.1-3.2,3.2H73.6
		C71.6,132.1,70,130.6,69.9,128.5C69.9,128.5,69.9,128.5,69.9,128.5z M69.9,151.3c0-2,1.6-3.6,3.6-3.6c0,0,0,0,0,0h54.1
		c2-0.2,3.8,1.2,4,3.2c0.2,2-1.2,3.8-3.2,4c-0.3,0-0.5,0-0.8,0H73.6C71.6,154.9,70,153.4,69.9,151.3c0,0,0-0.1,0-0.2V151.3z
		 M69.9,174.1c0-2,1.6-3.6,3.6-3.6c0,0,0.1,0,0.1,0h91.4c2,0.2,3.4,2,3.2,4c-0.2,1.7-1.5,3.1-3.2,3.2H73.6
		C71.6,177.7,70,176.2,69.9,174.1c0,0,0-0.1,0-0.1V174.1z M69.9,196.9c0-2,1.6-3.6,3.6-3.6c0,0,0,0,0,0h57.1c2-0.2,3.8,1.2,4,3.2
		c0.2,2-1.2,3.8-3.2,4c-0.3,0-0.5,0-0.8,0H73.6C71.6,200.6,69.9,198.9,69.9,196.9c0-0.1,0-0.1,0-0.2V196.9z"/>
</g>
<g>
</g>
<g>
</g>
<g>
</g>
<g>
</g>
<g>
</g>
<g>
</g>
<g>
</g>
<g>
</g>
<g>
</g>
<g>
</g>
<g>
</g>
<g>
</g>
<g>
</g>
<g>
</g>
<g>
</g>
</svg>
