<?xml version="1.0" encoding="utf-8"?>
<!-- Generator: Adobe Illustrator 25.2.3, SVG Export Plug-In . SVG Version: 6.00 Build 0)  -->
<svg version="1.1" id="Camada_1" xmlns="http://www.w3.org/2000/svg" xmlns:xlink="http://www.w3.org/1999/xlink" x="0px" y="0px"
	 viewBox="0 0 720 716" style="enable-background:new 0 0 720 716;" xml:space="preserve">
<style type="text/css">
	.st0{fill:#5ABC29;}
	.st1{fill:#2DBC14;}
	.st2{fill:none;stroke:#FFFFFF;stroke-width:12;stroke-miterlimit:10;}
</style>
<g id="Layer_2_1_">
	<g id="Layer_1-2_1_">
		<rect class="st0" width="720" height="716"/>
		<circle class="st1" cx="359" cy="358" r="284.5"/>
		<path class="st2" d="M489.4,459.3c-0.5-0.3-0.8-0.4-1.4-0.4c-0.5,0-0.7-0.3-1,0.2c-0.3,0.5-0.3,0.7-0.3,0.7s-0.4,0.1-0.6,0.2
			c-0.2,0-0.6,0-1.3,0c-0.7,0-1.6-0.1-2-0.2c-0.4-0.1-1-0.2-0.9-0.3c0.1-0.1,0.3-0.3,0.3-0.9c0-0.7,0.1-0.7-0.3-0.9
			c-0.4-0.2-0.5-0.4-0.9-0.1c-0.4,0.3-0.9,0.4-0.9,0.8c0,0.4,0.2,0.8-0.1,1.2c-0.3,0.4,0.1,1.1-1,0.7c-1.1-0.4-2.2-0.7-2.7-0.6
			c-0.4,0.1-1.1,0.1-1.2,0.1c-0.1,0,0.1-0.5-0.6,0c-0.6,0.5-1.4,0.8-1.7,1c-0.2,0.2-1,0.6-1.1,0.4c-0.1-0.2-0.4-0.7-0.2-0.6
			c0.2,0.1,0.4,0.3,0.8,0c0.4-0.3,1.4-0.6,1.5-0.9c0.1-0.3,0.2-0.7-0.4-0.6c-0.5,0.1-0.7,0-1.3,0.2c-0.6,0.2-0.7,0.2-0.9,0.5
			s-0.2,0.4-0.4,0.5c-0.2,0.1-0.1,0-0.4,0.2c-0.4,0.2-0.1,0.1-0.7,0.3c-0.6,0.2-0.7,0.2-0.4-0.1c0.2-0.3,0.6-0.8,0.3-1
			c-0.3-0.2-0.1-0.3-0.7-0.3c-0.6,0-1.4,0.3-2,1c-0.6,0.7-0.7,1.9-0.2,2.2c0.6,0.4,1.2-0.3,1.5,0.2c0.3,0.6-0.3,0-0.6,0.5
			c-0.3,0.5-0.1,1-1,1c-0.9,0-1.9,0.1-2.1,0.3c-0.2,0.2-0.4-0.8-0.9-0.7c0,0-1.1,0.4-1.9,1.2c-0.7,0.8-0.8,1-1,1.3s-0.2,0.3-0.8,0.3
			c-0.6,0.1-0.7,0-1,0.5c-0.3,0.5-0.4,0.4-0.2,0.8c0.2,0.4,0.4,0.7,0,0.9c-0.4,0.3-0.6-0.5-0.7-0.2c0,0.2,0.3,0.7,0,0.9
			c-0.3,0.2-0.5-0.1-0.9-0.5c-0.5-0.4-0.3-0.6-0.9-0.6c-0.6,0-0.5-0.1-1.2,0c0,0-0.6-0.3-1.6-0.2c-1,0.1-1.9,0.5-2.1,0.8
			c-0.3,0.4-0.7,0.3-0.8,1c-0.1,0.7,0.1,1.3-0.5,1.4c-0.6,0.1-1.4-0.9-1.7-0.9c-0.2,0-0.5,0.8-0.8,0.9c-0.3,0.1-0.7-0.8-1.6-0.2
			c-0.8,0.7-2.9,3.6-3.6,4.2c-0.7,0.6-1.4,1.1-2.1,1.7c-0.7,0.6-1.4,0.3-2.1,1.1c-0.7,0.7-1.5,1.4-2,1.9c-0.5,0.5-1.1,0.4-1.5,0.6
			c-0.4,0.2-1.3,1-1.6,1.4c-0.3,0.4-0.5,0.4-0.6,0.9c-0.1,0.5-0.2,0.7,0,1c0.3,0.3,0.5,0.4,0.6,0.5c0,0.1,0.4,0.1-0.3,0.4
			c-0.7,0.3-1.1,0.8-1.6,1.3c-0.6,0.5-1,0.8-1.1,1.1c-0.1,0.3-0.1,0.5-0.4,0.2c-0.3-0.3,0.6-0.9,0.4-1.3c-0.1-0.4-0.7,0.2-1,0.1
			c-0.4-0.1-0.4-1.2-0.6-1.2c-0.2,0-0.7-0.1-0.7,0s0.2,0.6,0.1,1c-0.1,0.4-0.2,0.8-0.5,0.8s-0.1-0.5-0.7-0.3
			c-0.6,0.3-1.2-0.3-1.3,0.3c-0.1,0.6,0.2,0.5,0.8,0.7c0.6,0.2,0.9,0.2,1.1,0.5c0.2,0.3,0.6,0,0.5,0.3c-0.1,0.2-0.7,0.6-0.8,1
			c-0.1,0.5-0.3,1-0.5,1.5c-0.2,0.5-0.5,0.3-0.5,0.6c0,0.3,0.2,0.2,0.3,0.5c0.1,0.2,0.1-0.1,0.1,0.9c0,1-0.2,1.4-0.1,1.9
			c0.1,0.5,0.1,0.6-0.3,0.9c-0.4,0.3-1.5,0.8-1.4,1c0.1,0.3,0.1,0.4,1.1,0c1-0.4,1-1.2,1.4-0.9c0.4,0.3,0.6,0.7,0.2,1.2
			c-0.4,0.5-0.7,0.8-0.8,1.5s-0.8,1.8-0.7,2.9c0.1,1.2,0.2,1.3,0.6,1.6c0.3,0.3,0.3,0.1,0.2,0.9c-0.1,0.8,0,1.1,0.1,1.7
			c0.1,0.6,0.4,0.7,0.6,0.7s0.6-0.5,0.7-0.4c0.1,0.1,0.8,0.5,0.7,0.9c-0.1,0.5-1.1,0.1-1.5,0.7c-0.4,0.5-0.1,1.2-0.1,1.4
			c0.1,0.3,0.1,0.9,0,1.2c-0.1,0.3-0.6,0.1-0.8,1c-0.2,0.8-0.2,1.3,0.1,1.8c0.3,0.6,0.4,0.5,0.4,1c0,0.5,0.1,2.1-0.1,3.2"/>
		<path class="st2" d="M493.4,457.7c0,0,0-0.4,0.2,0"/>
		<path class="st2" d="M426.5,239.9c0.4,0,1.4-0.1,1.3-0.4c-0.1-0.3-0.2-0.3-0.6-0.7c-0.4-0.4-0.8-1.1-0.5-1.4s0.7,0,0.5-0.6
			c-0.1-0.5-0.5-0.5-0.4-0.9c0.1-0.5,0.4-1,0.6-0.9c0.2,0.1,0.9,0.6,1,0.3c0.2-0.3-0.4-1.1-0.2-1.4c0.3-0.2,1-1.3,1.6-1.7
			c0.5-0.4,0.8-1,1.2-1c0.4,0,0.3,0.4,0.7,0.4c0.4,0,0.6-0.6,0.9-0.6c0.3,0,0.7,0.7,0.9,0.6c0.2-0.1,0.2-0.9,0.7-0.8
			c0.5,0.1,0.5,0.9,0.7,0.8c0.3-0.1,0.1-0.9,0.4-0.8c0.3,0,0.1,0.6,0.8,0.8c0.7,0.2,1.6-0.9,2-0.8c0.4,0.1-0.3,0.9,0.3,1
			c0.6,0.1,0.7-1,1.1-0.7c0.4,0.3-0.3,0.8,0.3,1c0.7,0.1,0.6-0.5,1.2-0.2c0.6,0.3,0.3,0.4,0.6,0.5c0.3,0.2,0.8-0.3,1.1-0.2
			c0.3,0.1-0.3,0.5,0,0.7c0.3,0.2,0.9-0.4,1.3-0.3c0.4,0.1-0.5,0.4,0.3,0.7c0.8,0.3,0.7-0.5,1.1-0.2c0.4,0.3,0,1,0.7,1.5
			c0.7,0.5,1.6-0.1,2-0.3c0.4-0.2,0.4-0.6,0.9-0.3c0.5,0.2,0.4,0.7,1.1,1c0.7,0.4,1.3-0.2,1.9,0c0.6,0.2,1-0.5,0.8,0.4
			c-0.2,0.9,0.1,1-0.3,1.2c-0.4,0.2-0.3,0.2,0,0.3c0.3,0.1,0.5,0.5,0.9,0.4c0.4-0.1,0.6-0.4,0.9-0.5c0.3-0.1,0.4-0.5,0.7,0
			c0.3,0.5,0.1,0.8,0.4,1.1c0.3,0.3,0.7,0.3,0.9,0.4c0.1,0,0.5,0.1,0.8-0.1c0.3-0.2,0.3-0.3,0.5-0.5c0.2-0.2,0.8-0.5,0.9-0.5
			c0.1,0,0.7,0.3,0.6,0.5c-0.1,0.3-0.3,0.2-0.5,0.4c-0.2,0.2-0.3,0.5-0.3,0.6c0,0.1,0.1,0.2,0.1,0.4c0,0.2,0.2,0.3,0,0.5
			c-0.2,0.2-0.6-0.2-0.7,0.5c-0.2,0.7-0.3,0.9-0.2,1.1c0.1,0.2,0.5,0.4,0.6,0.6c0.1,0.1,0.1-0.4,0.2-0.6c0.1-0.2,0.8-0.4,0.8-0.4
			c0-0.1,0,0,0.5-0.2c0.5-0.2,0.7-0.3,0.8-0.4c0.1-0.1,0.3-0.1,0.4-0.3c0.1-0.2,0.2-0.4,0-0.5c-0.2-0.1-0.8,0-0.3-0.3
			c0.5-0.3,0.7,0.5,0.9,0.6c0.1,0.1,0.2-0.1,0.4-0.1c0.2,0,0.4-0.2,0.5-0.3c0.2-0.1,0.1-0.3,0.3-0.5c0.2-0.2,0.9-0.5,0.9-0.1
			c0,0.3-0.2,0.5-0.2,0.7c0,0.2,0.3,0.4,0.4,0.2c0.1-0.2,0-0.5,0.4-0.2c0.4,0.3,0.3,0.6,0.3,0.7c0,0.1-0.1,0.5,0,0.6
			s0.3-0.1,0.4,0.2c0.1,0.3,0.1,0.5,0,0.7c-0.1,0.2-0.2,0.2-0.2,0.6c0,0,0.2,0.2,0.5,0.5c0.3,0.3,0.4,0.5,0.7,0.8
			c0.3,0.4,0.6,0.5,0.7,0.9c0.1,0.5,0.7,0.4,0,0.6c-0.7,0.2-1.5,0.6-1.8,0.9c-0.3,0.3-0.7,0.4-0.3,0.7c0.4,0.4,0.3,0.5,0.9,0.1
			c0.7-0.5,1.2-1.4,1.8-1.1c0.5,0.3,0.9,1.2,0.9,1.4c0,0.2-0.6,0.9-0.6,0.9s0.3,0.3,0.2,0.5c-0.1,0.2-0.3,0.2-0.4,0.5
			c-0.1,0.3-0.2,0.1-0.3,0.7c-0.1,0.6,0,0.7,0.1,1c0.1,0.3-0.2,0.6-0.3,0.8c0,0.2-0.4,0.1-0.2,0.6c0.2,0.5,0.5,0.6,0.6,0.9
			c0.2,0.4,0.3,0.5,0.4,0.7c0.1,0.2-0.4,0.4,0.3,0.5c0.6,0.1,1.3,0.4,1.4,0c0.1-0.4-0.2-0.7-0.3-1.2c-0.1-0.5-0.1-0.7,0-0.8
			c0.1-0.1,0.1-0.4,0.2-0.6c0.1-0.2,0.2-0.8,0.2-0.8s0.5,0.2,0.7,0.4c0.2,0.2,0,0.5,0.6,0.5c0,0,1.2-0.1,1.6-0.3
			c0.4-0.3,0.7-0.9,1-1.3c0.4-0.4,1.1-1.1,1.1-1.1s0.5-0.1,0.8,0.1c0.3,0.2,0.9,0.4,1.3,0.4c0.4,0.1,0.7,0.1,0.8,0
			c0.1-0.1,0.6-0.4,0.8-0.5c0.2-0.1,0.2-0.3,0.2-0.4c0-0.1-0.4-0.5,0-0.5c0,0,1.6-0.1,2,0.1c0.4,0.2,1.2,0.5,1.8,0.9
			c0.7,0.4,1.7,1.1,2.4,1.3c0.7,0.2,1.1,0.2,1.4,0.6c0.3,0.4,0.6,0.9,0.8,1c0.2,0.1,0.9,0.4,1.5,0.5c0.6,0.1,1,0,1.2,0
			s0.7-0.1,0.8,0c0.2,0.1-0.1,0,0.2,0.1c0.3,0.1,0.4-0.1,0.4-0.1s0.1-0.1,0.3,0c0.2,0.1,0.5,0.1,0.4,0c-0.1-0.1-0.4-0.4-0.2-0.4
			c0.1,0,1,0.3,1.3,0.4c0.3,0.1,0.7,0.1,1.7,0.6c1,0.5,1.9,0.8,2.8,0.8s2.7,0.1,3.3,0.1c0.6,0,1.7,0,2.3-0.1s2-0.1,3.4-0.2
			c1.4-0.1,2.5-0.4,3.2-0.5c0.7-0.1,1.3-0.7,2.2-0.5c0.9,0.2,3.2,1.3,4.2,2c1,0.6,2.1,1.5,2.9,1.7c0.8,0.2,1.1,0,1.9,0.3
			c0.7,0.3,4,3.6,4.5,3.9c0.5,0.3,2.2,1.5,3.3,2.1c1,0.6,2.4,1.7,3.4,2.9s1.5,1.9,2,2c0.4,0.1,0.8,0,1.2,0.6
			c0.4,0.6,0.3,0.7,0.8,1.6c0.5,0.9,0.6,1.4,1,1.6c0.4,0.2,2-0.5,2.9,0s1.7,1.8,2.1,2.4c0.5,0.7,1.5,1,2.1,0.9s2.4,1.4,3,1.5
			c0.7,0,4.9,0.2,5.6,0.4c0.7,0.2,2.8-0.4,3.4-0.2c0.6,0.2,3.2,0.7,4,1.6c0.8,0.9,1.3,0.8,1.6,2.5c0.4,1.7-0.2,2.4,0.6,3.8
			c0.8,1.4,0.8,1.7,1.2,3.4s1.7,5.2,1.9,6.2c0.2,1,0.7,4.7,0.5,6.6c-0.2,1.9-1.5,8.2-1.6,9c-0.1,0.8-1.6,4.7-1.9,5.2
			c-0.3,0.6-2.4,4.1-2.8,4.9c-0.4,0.8-2.6,2.9-3.4,3.7c-0.8,0.8-2.6,2.2-2.9,2.7c-0.3,0.5,0.2,0.7-0.5,1.5c-0.6,0.7-0.2,0.6-1.2,1.6
			c-1,1-2.7,2.3-3.3,2.7c-0.6,0.4-1.9,1.5-3.3,2.2c-1.3,0.7-2.1,0.9-2.2,1.4c-0.1,0.4-0.1,0.6-0.3,0.9c-0.2,0.3-0.3,0.6-0.5,0.4
			c-0.3-0.1-0.5-0.4-0.6-0.4c-0.1,0-0.4-0.1-0.3,0.3c0.1,0.4,0.6,0.6,0.5,0.8c-0.2,0.3,0.2,0.3-0.1,0.9c-0.4,0.7-0.4,0.8-0.6,0.8
			c-0.2,0.1-0.6-0.2-0.7-0.2c-0.1,0.1-0.2,0.1-0.2,0.4c-0.1,0.3,0.2,0.3,0.3,0.6s0.3,0.2,0.1,0.6c-0.2,0.4-0.5,1.1-0.5,1.4
			c0,0.3-0.3,0.4-0.4,0.3c-0.1-0.1-0.2-0.3-0.3-0.3c-0.1,0-0.2-0.1-0.2,0.2s0.2,0.4,0.2,0.9c0.1,0.5,0.1,0.4-0.1,0.8
			c-0.2,0.4-3,4.4-3.5,5.2c-0.5,0.8-1,2-1.8,2.7c-0.7,0.7-2.1,1.8-2.4,2.3c-0.4,0.5-0.9,0.8-1.1,1c-0.2,0.1-1,0.4-1.2,0
			c-0.2-0.4-0.3-0.9,0-1c0.3-0.2,0.7-0.2,0.6-0.5c-0.1-0.3,0-0.4-0.3-0.7c-0.3-0.3-0.3,0.2-0.7,0.1c-0.5-0.1-0.2-0.9-0.7-1
			c-0.5-0.1-0.5,0.7-0.6,0.8c-0.1,0.1-0.8-0.2-0.8,0.3s-0.1,0.2,0.5,0.8c0.7,0.6,0.4,0.8,0.2,0.9c-0.2,0-1-0.2-0.7,0.3
			s0.7,0.1,0.7,0.4c0.1,0.3-0.3,1-0.6,1.1c-0.3,0.2-0.6,0-0.7,0.4s-0.4,0.5-0.5,0.6c-0.2,0.1-0.5-0.1-0.4,0.4
			c0.1,0.5,0.3,0.5,0.5,0.7c0.2,0.2,0.2,0.7-0.2,0.6c-0.4-0.1-0.5-0.1-0.6,0c0,0.2-0.5,0.2-0.1,0.5c0.3,0.3,0.7,0.2,0.8,0.8
			c0.1,0.7-0.2,0.4-0.5,0.4c-0.3,0.1-0.7,0.3-0.6,0.7c0.1,0.4,0.7,0.5,1,0.6c0.2,0.1,0.1,0.3-0.2,0.5c-0.3,0.2-0.7,0.7-0.6,1
			c0.1,0.3,0.3,0.4,0.3,0.7c0,0.3-0.2,0.6-0.3,1.4c-0.1,0.8-0.1,1.9-0.2,2.4c-0.1,0.6-0.2,1.2-0.4,1.7c-0.3,0.5-0.6,0.4-0.6,1.5
			c0,1.1,0.4,1.9,0.6,2.4c0.3,0.6,0.4,1.1,0.4,1.4s-0.1,0.4,0,0.6c0.1,0.2,0.4,0.3,0.5,0.5c0,0.2-0.9-0.2-0.9,0.5
			c0,0.7,0.6,0.7,0.3,1.4c-0.2,0.7-1,1.5-0.6,2.6s1,2.9,1.1,3.8s-0.1,2-0.5,2.6c-0.4,0.7-0.5,1.7-0.5,2.2c0,0.5-0.1,1-0.4,2.1
			c-0.2,1-0.7,1.6-0.7,3c-0.1,1.3,0.2,2.6-0.2,4c-0.4,1.4-0.9,2.2-0.7,3c0.1,0.8,0.3,0.5,0.6,1.5c0.3,1,0,1.7-0.5,2.5
			c-0.5,0.8-3.2,2-3.6,3c-0.4,1-0.7,2.8-0.7,3.4c0,0.7-0.1,7.6,0.1,8.3c0.2,0.8,0.1,1.6-0.7,2.7c-0.8,1.1-1.9,2-2.3,2.3
			c-0.4,0.3-1.2,0.4-1.8,1.1c-0.6,0.7-1.5,1.5-1.6,2.9c-0.1,1.4-1.1,3.9-1.2,4.8c-0.1,1-0.5,1.6-1,2.2c-0.6,0.6-1.6,0.8-2.1,1.6
			c-0.5,0.8-0.9,2-1.6,2.8c-0.6,0.8-0.8,1-1.6,2.3c-0.7,1.3-0.4,4.2-0.4,4.7s-0.1,0.5,0.2,1.2c0.3,0.7,0.8,0.8-0.2,1.3
			c-1,0.5-2.5,1.9-3.4,2.1c-0.8,0.2-2.9,0.2-3.4,0.8c-0.6,0.6-2,1.6-2.2,2.1"/>
		<path class="st2" d="M400.4,186.6c0.3,0.4,0.9,1.6,0.9,2.7c0,1.1-0.1,3,0.5,4.4c0.6,1.5,2.4,5.7,2.8,7.6c0.3,1.8,0.4,2.6,0.8,3.4
			c0.3,0.8,1,2.2,1,2.2s0.7,0.3,1.4,0.2c0.7-0.1,1.1-0.1,1.7,0c0.6,0.1,1.5-0.2,1.8,0.8c0.3,1-0.3,2.3,0,2.8
			c0.3,0.5,0.2,1.5,0.1,1.7c-0.1,0.3-0.6,0.1-1,0.7c-0.3,0.6-0.5,0.9-0.6,1.5c-0.1,0.6,0.1,0.6-0.4,1.2c-0.5,0.6-1.2,1.1-1.2,1.6
			c0,0.5-0.1,0.4-0.4,0.9c-0.3,0.5-0.5,0.5-1.6,1.5c-1,1-2.4,3.2-2.8,3.5c-0.3,0.3-1.7,1-2.1,1.3c-0.3,0.3-0.9,1-1.2,1.3
			c-0.3,0.3-0.7,0.9-1.1,1.2c-0.4,0.3-1.1,1.2-1.4,1.4c-0.3,0.2-1,0.6-1.6,1.1c-0.6,0.5-1.1,1.1-1.5,2c-0.3,0.9-0.9,1.3-1.1,1.9
			c-0.3,0.6-0.6,1-0.9,1.4c-0.3,0.3-0.5,0.9-0.7,1.1c-0.2,0.3-0.5,0.8-0.8,1.1c-0.3,0.3-0.7,0.5-1,0.8c-0.3,0.3-0.2,0.9-0.2,0.9
			s-1,0.4-1,0.9c-0.1,0.4-0.5,0.8,0,1.1c0.5,0.3,0.8,0.9,1.4,0.5c0.6-0.3,1.3,0.4,1.9,0.1c0.6-0.3,1.3-0.8,1.6-1.2
			c0.3-0.3,0.9-0.3,1.3-0.9c0.4-0.6,0.6-1,1.1-1.1c0.5-0.1,0.6-0.1,1.4-0.3c0.8-0.2,1.5-0.8,1.7-1c0.3-0.2,1-0.7,1.4-1
			c0.4-0.3,0.5-0.3,1.1-0.3c0.6,0,1.4-0.8,1.4-0.8s0.7,0.1,0.7,0.6c0,0.5-0.2,1,0,1.6c0.2,0.6-0.5,0.3,0.2,0.6
			c0.7,0.3,1-0.3,0.9-0.9c-0.1-0.6-0.7-1.2-0.4-1.6c0.3-0.4-0.3,0,0.3-0.4c0.5-0.4,0.9-0.4,1-0.8c0.1-0.3,0.3-0.6,0.3-1.1
			s0-1.3,0-1.6c0-0.3,0-1.2,0.3-1.7c0.3-0.5,0.3-0.9,1-1.5c0.8-0.6,1-0.7,1.2-0.9c0.3-0.2,1-0.7,1.4-0.7s0.1-0.3,1.4,0
			c1.3,0.3,1.5,0.3,2.2,0.3c0.7,0,0.3-0.1,1.3-0.1c1,0,1.6,0,2.3,0c0.7,0,1.2-0.2,1.7-0.3c0.5-0.2,1.1-0.5,1.6-0.5
			c0.5,0,0.5-0.5,0.9-0.1c0.3,0.4,0,0.4,0.8,0.6c0.8,0.2,1.3,0.3,1.6,0.3c0.3,0,0.3-0.4,1.2,0.1c1,0.5,2.1,0.9,2.1,0.9
			s-0.2,1.4-0.5,1.8c-0.3,0.4-0.7,1.2-0.7,1.6s0,0.7-0.1,1.3c-0.1,0.6-0.3,0.4-0.4,0.8s-0.5,0.3-0.5,0.9c0,0.6,0,0.8-0.3,0.9
			c-0.3,0.1-0.6,0.4-0.7,0.9c0,0.5-0.1,2-0.3,2.3c-0.1,0.3-0.5,0.6-1,0.7c-0.6,0.1-1.9,0.7-2.2,0.9c-0.3,0.3-1.2,0.9-1.5,1
			c-0.3,0.1-0.3,0-1,0.3c-0.7,0.2-0.9,0.3-1.3,0.4c-0.4,0.1-0.3,0.1-0.9,0.2c-0.5,0.1-0.6,0.2-1,0.3c-0.4,0-0.7-0.1-0.9,0
			c-0.3,0.1-0.8,0-1-0.2c-0.3-0.2,0-0.4-0.7,0c-0.7,0.4-0.9,0.6-1.3,0.6c-0.4,0-0.3-0.5-0.8,0c-0.4,0.5-0.3,0.6-0.7,0.7
			c-0.4,0-1,0.1-1.3,0c-0.2-0.1,0.1-1-0.7-0.6c-0.8,0.4-0.8,0.6-1,0.6c-0.2,0-0.8-0.2-1-0.4c-0.2-0.2-0.8-1.2-0.9-1.1
			c-0.1,0-0.5,0.6-0.7,0.8c-0.2,0.3-0.7,0.3-0.9,0.5c-0.2,0.2-0.6,0.6-0.3,0.9c0.3,0.3,0.7,0.5,1,0.2c0.3-0.3,1.6-0.3,1.8-0.3
			c0.3,0,1.6-0.3,1.6,0.1c-0.1,0.5,0,0.7-0.1,1.1c-0.1,0.3-0.2,0.8,0,0.8c0.1,0,0.3-0.8,0.7-0.8c0.4,0,0.5,0.2,0.8,0.2
			c0.3,0-0.8-1.3-0.4-1.5c0.4-0.1,0.9-0.2,1.3,0c0.4,0.2,0.7,0.2,1.3,0.2c0.5,0,1.1,0.1,1.5,0c0.3-0.1,0.5,0,0.9-0.3
			c0.4-0.3,0.1-0.5,0.7-0.6c0.6-0.1,1-0.1,1.2-0.1c0.2,0,0.7-0.3,1.2,0c0.5,0.3,0.7,0.8,1,0.3c0.3-0.5,0.8-0.9,1.2-1
			c0.4-0.1,1-0.4,1.1,0.2c0.1,0.6,0.2,0.8-0.1,1.1s-0.6,1.3-1,1.6c-0.4,0.3-0.8,0.8-1.1,1.1c-0.3,0.3-0.6,0.5-0.6,0.8
			c0,0.3,0,0.8,0,1c0.1,0.2,0.2,1,0.1,1.2c0,0.2-0.4,0.4-0.4,0.7s-0.2,0.5,0.1,0.6s0.7,0.2,1-0.3c0.3-0.5,0.5-0.4,0.3-1.1
			c-0.2-0.7-0.1-1.6,0.2-1.7c0.3-0.1,0.5-0.1,0.6-0.3c0-0.2-0.1-0.3,0-0.7c0.1-0.4,0.3-0.7,0.6-0.9c0.3-0.2,0.7-0.4,0.8-0.8
			c0.1-0.3,0.2-0.6,0.3-1c0.2-0.4,0.1-0.5,0.3-0.9c0.2-0.4,0.1-0.5,0.6-1c0.5-0.5,0.8-1.1,1.1-1.2c0.3-0.1,0.6-0.9,0.8-0.7
			c0.2,0.2,0.1,0.7,0.4,0.7s0.6-0.2,0.7-0.3c0.1-0.1,0.1-0.6,0.1-0.7c0-0.2,0-0.7,0.4-0.3c0.4,0.4,1.2,0.7,1.3,0.9"/>
		<path class="st2" d="M378.9,576.2c0.3-0.9,1.5-2.5,1.8-3.1s1-1.5,0.5-2.8c-0.4-1.3-2.8-3.7-3.6-4.9c-0.8-1.1-1.8-3-3.2-3.5
			c-1.4-0.4-2.9-0.9-3.5-1.6c-0.6-0.8-6.2-4.9-6.8-5.6c-0.5-0.7-3.2-3-3.7-3.6c-0.5-0.6-1.6-2.5-2.7-2.7c-1-0.2-1.5-0.7-2.5-0.2
			c-1,0.5-0.2,0.5-1.3,1c-1.1,0.5-1.7,1.2-1.7,0.2c0-1,0.2-1.2-0.3-1.7c-0.5-0.5-1-0.4-1.3-1.3c-0.3-0.9,0-1.7-0.7-2.1
			c-0.7-0.3-1.7-0.6-2.7-1c-1-0.4-1.5-0.6-2.1-1.3c-0.6-0.7-1.3-1.5-2.1-1.7c-0.8-0.3-1.7-0.5-2.3-0.8c-0.6-0.3-1.3-0.3-1.1-0.6
			c0.2-0.3,2.9-2.1,3.6-2.9c0.8-0.8,3.6-3,4.7-4.1c1.1-1.1,4.3-7.7,5.6-9.3c1.3-1.6,2.9-3.1,5.3-5.3c2.4-2.1,3.6-3.2,7-4.6
			c3.5-1.5,7.5-2.7,8.7-4.2c1.2-1.5,0.8-0.8,1.6-2.7c0.8-1.9,1-3.5,0.6-5.2c-0.4-1.7-1.4-2.2-0.5-3.6c0.9-1.5,0.7-2.5-0.2-4.7
			c-0.9-2.2,0.6-2.4-1.7-3c-2.3-0.5-4.5-0.8-4.9-1.2c-0.3-0.4-1.3-0.3-0.9-1.6c0.4-1.3,0.8-5.5,1-6.7c0.3-1.2,1.5-5.8,1.7-6.5
			c0.3-0.7,0.9-2.7,0.9-3c0-0.3-0.3-0.4-1.6-1.1c-1.3-0.7-2.8-2.3-4.5-1.8c-1.7,0.4-1.9,1.6-3,1.8c-1.1,0.3-0.9,1.1-1.9,0.3
			c-1-0.9-1.6,0.6-1.7-1.4c-0.2-2-1.5-12.8-1.6-13.8c-0.1-1-1.4-2.7-2.2-3s-1.6-1.9-3-1.1c-1.3,0.8-1.6,0.6-2.2,0.4
			c-0.5-0.2-0.4-0.8-2-0.6c-1.6,0.1-14.4,0.3-14.7,0c-0.3-0.3-1.4-0.9-1-2.1c0.4-1.2,2.3-6.4,2.3-7.8c0-1.4-1.4-7.1-2.4-8.1
			c-1-1,0.6-3,0.6-4.2c0-1.1-2-2.6-1.4-3.9c0.6-1.3,5.5-13.5,5.4-14.8c-0.1-1.4-4.3-6.9-4.6-7.5c-0.3-0.5-2.3,0.6-2.4-0.8
			c-0.1-1.4-2-7.8-1.7-8.7c0.3-0.9,0.9-1.6,0.7-2.4c-0.2-0.8-0.9-1.4-1.5-1.5c-0.6-0.1-3.8-1.1-5.4-1.1c-1.6,0-1,0.8-4.3,0.9
			c-3.2,0.1-6.9,0.8-7.4-0.9c-0.5-1.6-4.2-8-4.2-8s2.4,0,2.2-3.6c-0.3-3.6-0.4-10.2-1.4-12.2c-1-2-1.6-3-2.9-3.4
			c-1.3-0.4-3.1-1.6-4.1-1.7c-1-0.2-7.7-0.5-7.7-0.5s-2.2-2.3-3-2.9c-0.9-0.6-3.2-0.3-3.7-1.2s-2.7-3.6-4.1-3.9
			c-1.4-0.3-2.5,1-3.6,0c-1-1-1.6-2.3-2.9-2.4c-1.2-0.1-4.3,0.2-5.5,0c-1.2-0.2-4.3-3-5.7-3.9c-1.5-1-2.1-1.1-2.4-1.7
			c-0.3-0.6-3.8-6.2-3.6-7.3c0.3-1.1,0.7-7.3,0.4-8.1c-0.3-0.8-3.3-2.1-3.3-2.1s-7.6,0.2-8.1,0c-0.4-0.2-6.2,3.1-6.7,3.4
			c-0.5,0.3-10.2,0.2-10.3,0.6c-0.2,0.4-2.6,1.1-2.8,2.5c-0.2,1.4-1.4,3.3-1.6,3.6c-0.2,0.3-4.7-3.4-5.3-3.6
			c-0.6-0.3-6.4-0.3-8.9-0.7c-2.5-0.3-4.8,1.1-5.2,1.6c-0.4,0.5-2.3-0.7-2-2.2c0.3-1.5-0.3-5.1-1-6c-0.6-0.9-1.6-0.2-0.9-1.6
			c0.8-1.5,0.3-3.6-0.3-4.2c-0.6-0.5-0.8-1-1.8,0c-1,1-2.8,2.4-3.6,3.4c-0.9,1-1.4,1.2-1.4,2.3c0,1,0.6,1.5-1,2.1s-2.3,1.1-4.1,0.9
			c-1.7-0.3-1.7,0.1-2.4-1c-0.7-1-3.6-3.7-3.6-3.7s-3.7-0.6-4.3-0.6c-0.6,0-2.5,0-1.8-0.3c0.7-0.3,1.3-2.2,1-2.9
			c-0.3-0.7-1.3-1-1.1-2.1c0.1-1,0.7-2.1,0-2.6c-0.7-0.5-2.4-1.6-2.9-2.3c-0.5-0.8-4.1-3.9-4.1-4.4c0-0.5,0.8-1.4,0-2.2
			c-0.8-0.8-2-1.6-2-2.1c0-0.4,1.3-0.3,1.9-1c0.6-0.7,0.6-6.2,1.8-6.9c1.2-0.8,3.4-2.3,4.3-2.9c0.9-0.6,1.1-1.6,1-2.5
			c-0.2-1-1.4-1.5-0.5-2.4c0.9-1,1.4-3.5,2.2-4.5c0.8-1-0.1-3.1,1.9-4.1c2-1,1.5-1.7,4.2-2.8c2.7-1,3.9-2.6,5.6-2.9
			c1.6-0.3,4-0.3,5.5-0.7c1.5-0.4,2.6-0.6,3.3-1.6c0.7-1,0.4-0.9,1.7-0.8c1.3,0.1,5.5,0.7,5.8,0.9c0.3,0.2,1.9,0.8,2.6,0.5
			c0.7-0.3,1.6-0.4,2.1-1.4c0.5-1.1,5.3-30,5.3-30.2c0-0.3-0.3-2.6-1.3-3s-2.8-1.3-2.5-2.2c0.3-0.9,1.2-1.9,0.1-3.1
			c-1.1-1.2-3-1.6-2.7-2.6c0.3-1-0.8-5.8-0.3-6.5c0.5-0.7,0.7-1.8,1.8-1.8c1.1,0,4,1,4,1s-0.1-0.4,0.8-1c0.9-0.6,1-1.9,1-1.9
			s0.7-0.2,0.3-1.7c-0.3-1.6-0.3-1-0.8-2c-0.5-1-0.3-1.5-1-1.4c-0.8,0.1,0.5,0.5-1.4,0c-1.9-0.5-1.4-0.1-1.9-0.5
			c-0.5-0.4-1.1-0.7-0.9-1.6c0.3-0.9-0.2-1.5,1.5-1.5c1.6,0,5.6-0.5,6.9-0.5s3.8,0.4,4.4,0c0.6-0.4,0.8-1.1,1-2.2
			c0.2-1,0.7,0.5,1.1,1.6c0.4,1.1,1.6,2.2,2.8,1.9c1.1-0.3,2.1-0.3,2.4-1c0.3-0.6,1-2.3,1-2.3s1.6,0.6,1.9,1.2
			c0.3,0.6,0.6,1.3,0.6,3.1c0,1.8,0,2.7,0.4,3.4c0.4,0.7,1.3,1.6,2.1,1c0.8-0.5,1.6-1.5,2.3-0.8c0.7,0.7,2.5,2.6,4.3,3.1
			c1.7,0.5,2.8,0.3,3.9,0c1.1-0.3,2.1,1,3.3,0.3c1.2-0.7,1.4-2.1,2.9-2.8c1.5-0.7,6.2-1.4,7.1-2.4c0.9-1,1.3-1.8,2-1.5
			c0.7,0.3,2.2,0.9,2.8,0.4s1.8-2.3,2.2-3.1c0.3-0.8,0-2,0.8-2.1c0.8-0.1,2-0.7,2.3-1c0.3-0.3,1-0.8,1.6-0.7c0.5,0.1,2.7-0.6,3-1
			c0.3-0.4,1-2.2,0.4-2.5c-0.5-0.3-1.9-1.4-2.6-1.2c-0.7,0.2-2.6,0.5-3.4,0.4c-0.8-0.1-1,0.1-1.6-0.5c-0.6-0.6-0.9-0.4-1.1-1.3
			c-0.3-0.9-0.8-3-0.6-4.3c0.2-1.3-0.2-2.5,0.9-3.4c1-0.9,1.6-0.9,1-2.3c-0.5-1.5-0.1-1.6-1-2.5c-1-1-2.8-1.9-2.7-2.2
			c0.1-0.3,1-0.5,1.8,0c0.8,0.5,1.8,2.3,2.9,2.9c1,0.6,2.4,0.7,3.8,0.8c1.4,0.1,1.3,0.3,2.8,0.3c1.5,0,3.5-0.3,4.5-1.3
			c1-1,1.4-2.4,2.5-2.4c1.1,0,5.6,0.2,7-0.5c1.5-0.7,4.3-0.8,4.6-1.6c0.3-0.8-0.2-1.7,1.3-2.2c1.5-0.4,3.6-1.4,4.7-1.9
			c1-0.5,2-1.7,2.2-2.3c0.2-0.6-0.1-2.4,0.3-2.3c0.4,0.1,0.6,0.7,1.6,0.8c1,0.1,1-1.7,1.6-0.8c0.5,0.9-0.2,2.3,0,3.2
			c0.2,1-0.5,3.6-0.3,3.8c0.2,0.3,1.8,0.8,2.3,1c0.5,0.3,2.2,1,2.5,1.9c0.3,1,1.4,2.2,0.5,2.7c-0.9,0.5-1.8,0.3-2.1,1.6
			c-0.3,1.2-0.1,2.8-0.6,4c-0.5,1.2-1.3,2.8-1.4,3.6c-0.1,0.8-0.3,1.7-0.3,2.9c0,1.1,2.3,3.6,2.9,3.9c0.6,0.3,0.5,2.8,0.6,3.7
			c0.1,1,1.9,2.3,2.6,3.5c0.7,1.1,2,2.6,2.7,2.7c0.7,0.1,1.6,0.2,2,1c0.4,0.9,1.3,1.7,2.7,1.6c1.4-0.2,3.6-0.3,3.8-0.9
			c0.2-0.6-1.1-2.1,0-2.3c1.1-0.3,2-0.9,2-0.9s1.3,1.1,1.9,0.3c0.6-0.8,1.6-1,2.5-1.1c0.9-0.1,1.5-1,2.3-1c0.8-0.1,1.6-0.7,2.1-1.3
			c0.5-0.6-0.2-0.5,0.5-0.6c0.7-0.1,1.9,2.2,3.6,2.2s2.7-0.1,3.2-0.4c0.5-0.3,0.6-1.3,1-1.3c0.4,0,2.8,1,4.1,0.4
			c1.3-0.6,3.1-0.3,3.3-1.1c0.2-0.8,0.2-2.7-0.3-3c-0.5-0.3-0.3-2,0.5-1.3c0.8,0.7,2.5,0.5,4.4,0.3c1.9-0.2,0.5-1.1,2.3-0.6
			c1.8,0.5,2.4,0.1,2.8,0.4c0.3,0.3,0.9,3,2.9,4c2,1,1.6,1.3,3.8,1.5c2.2,0.2,3.3,0,4-0.4c0.7-0.4,1-1.2,3.2-1.2
			c2.2,0,3.6-0.6,4.2-0.9c0.6-0.3,4.1-3.1,4.9-4.5c0.9-1.4,1.4-3.7,1.4-3.7s2-5.8,3-6.8c1-1,1.6-1.9,1.8-2.2
			c0.3-0.3,0.3-0.8,0.7-1.7c0.3-1,0.5-1.6,0.5-1.6s1-0.7,1.7-1c0.7-0.3,0.8-1.3,0.9-1c0.1,0.3,0.1,0.3,0.1,0.3s0.5-2.3,1-1.7
			c0.5,0.5,3.1,2.5,3.1,4.5"/>
		<path class="st2" d="M426.5,518.2c-0.1,0.6-0.6,0.4-0.7,0.9c-0.1,0.5,0.2,0.7,0,1.1c-0.2,0.4-0.2,0.1-0.8,0.5
			c-0.7,0.4-0.5-0.4-0.7,0.4c-0.2,0.7,0,1.2,0,1.4s0.5,0.3-0.1,0.9c-0.5,0.7-1,0.1-1.5,0.5c-0.5,0.4-7.5,7.1-7.9,7.5
			c-0.4,0.4-1.1,0.9-1.2,1.1c-0.2,0.2-0.8,2.1-1.2,3.2s-3.4,8.9-3.4,8.9s-2.3,6.2-2.9,7.1c-0.5,0.9-1.6,2.3-2.4,3.1
			c-0.9,0.8-5.3,5.3-5.6,5.6c-0.3,0.3-1.8,1.3-2.2,1.5c-0.4,0.3-1.5,0.8-1.6,0.9c-0.1,0.1-0.3,1.3-0.6,1c-0.3-0.3,0.2-1,0-1.4
			s-0.6-0.6-0.6-0.9c0-0.4,0.1-0.8,0.5-0.6c0.4,0.2,0.4,0.6,0.8,0.5c0.5-0.1,0.4,0,0.7-0.4c0.4-0.4,0.7-0.5,0.9-0.6s0.6-0.1,0.8-0.5
			c0.2-0.4,0.2-0.5,0.7-1.2c0.5-0.7,0.5-1.4,1.1-1.6c0.7-0.2,0.7-0.2,1.2-0.4c0.6-0.2,0.4,0.1,0.8-0.3c0.4-0.4,0.3-0.7,0.5-1.2
			c0.2-0.6,0.2-0.7,0.4-1.3c0.2-0.7,0.9-1.1,1.3-1.5c0.4-0.4-0.3-0.8,0.2-1.1c0.5-0.3,1.3-0.3,1.5-0.6c0.2-0.4,0.3-0.4,0.2-1.2
			s-0.8-2.9-0.2-3c0.6-0.1,0.3,0.6,0.6,0.6c0.3,0.1,1,0,0.8-0.8c-0.2-0.8,0.2-1.4-0.4-1.6c-0.6-0.1-2,0.7-2,0.7s-0.6,1-1.2,1.2
			c-0.6,0.2-0.7,0.2-1,0.3c-0.3,0.1-1.6-0.2-1.7-0.4c-0.1-0.1-0.9-1-1-0.8c-0.1,0.1-0.7,0.6-0.4,0.8c0.3,0.2,0.5,0.5,0.8,0.7
			c0.4,0.2,0.8,0,0.9,0.6c0.1,0.6-0.2,1.1-0.5,1.5c-0.3,0.4-0.6,0.4-0.7,1.1c-0.1,0.7-0.3,1.3-0.3,1.3s-0.5,0.3-0.4-0.3
			c0.1-0.5,0.4-1.6-0.1-0.8c-0.5,0.7-1.1,1-1.1,1.3c0,0.3-0.2,1.3-0.2,2.1c0,0.7,0.3,1,0,1.3c-0.3,0.3-0.8,0.1-1,0.5
			c-0.2,0.4-0.1,0.7-0.2,0.8c-0.1,0.1-0.1,0-0.7,0c-0.6,0-1.1,0.1-1.5,0.5c-0.4,0.5-0.7,0.3-0.8,1.2c-0.1,0.9,0,0.7-0.2,1.6
			c-0.2,0.8-0.9,1.3-0.9,1.3s-0.7-0.2-0.9,0.1c-0.2,0.3-0.4,0.8,0,1.1c0.4,0.2,0.5-0.2,0.7,0.2c0.2,0.4-0.1,0.4-0.3,0.7
			c-0.2,0.3-0.6,0.6-0.4,0.9c0.2,0.3,1.1,0,1.4,0c0.3,0,1.2,0.2,0.5,0.6c-0.7,0.3-0.9,0.3-1.4,0.7c-0.5,0.5-1.2,0.3-1.5,0.8
			c-0.3,0.6-0.7,0.5-0.8,1.5c-0.1,1-0.7,3.5-1.2,4.8c-0.6,1.3-3.9,5.3-3.9,5.3s-2.4,2.1-2.7,2.4c-0.3,0.3-0.1,0.2-0.8,0.5"/>
	</g>
</g>
</svg>
