<?xml version="1.0" encoding="utf-8"?>
<!-- Generator: Adobe Illustrator 25.2.3, SVG Export Plug-In . SVG Version: 6.00 Build 0)  -->
<svg version="1.1" id="Camada_1" xmlns="http://www.w3.org/2000/svg" xmlns:xlink="http://www.w3.org/1999/xlink" x="0px" y="0px"
	 viewBox="0 0 720 716" style="enable-background:new 0 0 720 716;" xml:space="preserve">
<style type="text/css">
	.st0{fill:#5ABC29;}
	.st1{fill:#2DBC14;}
	.st2{fill:#FFFFFF;}
</style>
<g id="Layer_2_1_">
	<g id="Layer_1-2_1_">
		<rect class="st0" width="720" height="716"/>
		<circle class="st1" cx="359" cy="358" r="284.5"/>
		<g>
			<path class="st2" d="M421.3,332c-1.2-0.6-2.4-1.2-3.6-1.7c12.1-17.6,18.7-39.2,18.7-62.1c0-55.2-39-100.2-86.8-100.2
				c-47.9,0-86.8,44.9-86.8,100.2c0,22.9,6.6,44.5,18.7,62.1c-1.9,0.9-3.1,1.5-3.7,1.8c-50.9,23.4-83.8,74.4-83.8,130.1v34.7
				c0,14.9,12.2,27.1,27.1,27.1h257c14.9,0,27.1-12.2,27.1-27.1v-34.7C505.2,406.5,472.3,355.4,421.3,332z"/>
			<g>
				<path class="st1" d="M413.2,340.3c-0.4,0.5-0.9,1.1-1.3,1.6c-16.6,19.5-38.9,30.2-62.8,30.2c-23.9,0-46.2-10.7-62.8-30.2
					c-0.5-0.5-0.9-1.1-1.3-1.6c-43.7,20-74.3,64.2-74.3,115.2v32.9c0,9.3,7.5,16.8,16.8,16.8h243.3c9.3,0,16.8-7.5,16.8-16.8v-32.9
					C487.6,404.5,457,360.3,413.2,340.3z"/>
				<path class="st1" d="M349.1,357.8c19.3,0,36.8-8.7,49.9-23c14.4-15.7,23.5-38.1,23.5-63c0-47.5-32.8-85.9-73.3-85.9
					c-40.5,0-73.3,38.5-73.3,85.9c0,24.9,9,47.3,23.5,63C312.3,349,329.9,357.8,349.1,357.8z"/>
			</g>
		</g>
	</g>
</g>
</svg>
