<?xml version="1.0" encoding="utf-8"?>
<!-- Generator: Adobe Illustrator 25.2.3, SVG Export Plug-In . SVG Version: 6.00 Build 0)  -->
<svg version="1.1" id="Camada_1" xmlns="http://www.w3.org/2000/svg" xmlns:xlink="http://www.w3.org/1999/xlink" x="0px" y="0px"
	 viewBox="0 0 720 716" style="enable-background:new 0 0 720 716;" xml:space="preserve">
<style type="text/css">
	.st0{fill:#5ABC29;}
	.st1{fill:#2DBC14;}
	.st2{fill:none;stroke:#FFFFFF;stroke-width:8;stroke-miterlimit:10;}
</style>
<g id="Layer_2_1_">
	<g id="Layer_1-2_1_">
		<rect class="st0" width="720" height="716"/>
		<circle class="st1" cx="359" cy="358" r="284.5"/>
		<g>
			<path class="st2" d="M373.8,367.9c-0.3-14.6-0.4-30-0.4-47c6.7,0.8,15.4,3.4,20.2,11.1c0.5,0.9,1.4,1.4,2.4,1.4
				c1.1,0,2.2-0.6,2.7-1.6c0.5-0.9,0.4-1.8-0.1-2.7c-4.4-7.1-13.3-11.8-25.2-13.3l0-4.6c0-2.7,0-5.4,0-8.1c0-0.8-0.3-1.5-0.8-2
				c-0.5-0.5-1.3-0.8-2.1-0.8c-1.4,0-2.9,1-2.9,2.8c0,2.6,0,5.2,0,7.8v4.4c-0.7,0-1.4,0-2,0c-4.4,0-8.8,0.4-13.2,1.3l0-12.7
				c0-0.8-0.3-1.5-0.8-2c-0.5-0.5-1.3-0.8-2.1-0.8c-1.4,0-2.9,1-2.9,2.8l0,14.1c-10.7,3.2-18.5,8.7-22,15.6
				c-2.6,5.1-2.8,10.7-0.7,16.7c4.2,12,14.2,15.9,22.6,17.9l-0.1,44.9c-10.9-2.5-18.2-9.4-22.1-21.1c-0.4-1.2-1.5-2-2.8-2
				c-1,0-2,0.5-2.5,1.2c-0.5,0.7-0.6,1.5-0.3,2.4c4.9,14.5,13.9,22.9,27.6,25.5l-0.1,26c0,0.8,0.3,1.5,0.8,2
				c0.5,0.5,1.3,0.8,2.1,0.8c1.4,0,2.9-1,2.9-2.8l0-25.2c1.7,0.1,3.4,0.2,5.2,0.2c2.5,0,5.1-0.1,7.8-0.4c1.4-0.1,2.8-0.3,4.3-0.6
				l0.1,1.7c0.3,7.9,0.6,15.7,1,23.6c0.1,1.8,1.6,2.8,3,2.8c0.8,0,1.6-0.3,2.1-0.8c0.5-0.5,0.7-1.2,0.7-2
				c-0.4-8.8-0.8-17.6-1.1-26.5c6.3-1.7,17.2-5.9,22.1-14.7c2.6-4.6,3.1-9.9,1.5-15.5C395.1,374.6,384.1,370.3,373.8,367.9z
				 M375,412.2c-0.5-13.9-0.9-26.6-1.1-38.8c3.2,0.9,5.7,1.9,7.9,3.1c5.7,3.1,9.9,8.1,11.3,13.4c1.1,4,0.4,8-1.8,11.6
				C388.1,406.8,382.7,410.3,375,412.2z M362.4,365.7c-3.4-0.6-6.8-1.2-10.1-1.9l0.1-41.3c4.9-1.3,10.1-2,15.2-2h0
				c0,16.5,0.1,31.6,0.3,46.1C366.1,366.3,364.2,366,362.4,365.7z M352.3,369.4c2.3,0.4,4.7,0.8,7,1.2c2.9,0.5,5.9,0.9,8.7,1.5
				c0.3,13.3,0.6,26.8,1.2,41.3c-2.1,0.3-4.1,0.5-6.1,0.7c-1.9,0.1-3.7,0.2-5.5,0.2c-1.9,0-3.7-0.1-5.4-0.2L352.3,369.4z
				 M346.6,324.5l-0.1,37.7c-0.7-0.2-1.4-0.4-2-0.7c-5.5-2.1-12.7-7-15.1-13.9c-1.3-3.7-0.9-7.4,1.2-11
				C334.1,330.5,341.1,326.7,346.6,324.5z"/>
			<path class="st2" d="M502.1,369.1c-3-39.8-12.9-70-30.2-92.3c-19-24.4-47.3-42.4-79.7-50.8c-10.7-2.5-21.5-3.7-32.1-3.7
				c-21.3,0-42,5-61.4,14.9c-19.7,10-54.9,31.6-69.4,64.1c-13.4,30.1-17.3,64.1-10.5,91.1c6.2,24.4,20.7,48.9,40.7,68.9
				c29.2,29.2,69.2,45.9,109.9,45.9c0,0,0,0,0,0c12.6,0,25.1-1.6,37.1-4.8C465.6,486.9,506.6,429.6,502.1,369.1z M496.8,384.3
				c-0.6,13.2-5,28.9-12.8,46.4c-11.8,26.3-31.4,46.4-56.6,58.1c-17.9,8.3-37.4,12.6-57.8,12.6c-31.7,0-63.2-10.4-88.8-29.4
				c-19.2-14.2-35.1-33.1-46.1-54.8c-13.6-26.8-16-54.1-7.9-88.8c4.9-20.9,11.6-34.9,22.2-46.8c10-11.1,22.7-21.6,37.9-31.2
				c23.5-14.8,48.3-22.4,73.7-22.4c9.9,0,20,1.2,30,3.5c27.7,7.2,52.1,21.6,70.6,41.7c16.4,17.8,26.9,41.6,32.2,72.7
				C495.5,357.6,497.4,371.2,496.8,384.3z"/>
			<path class="st2" d="M358.3,256.2c-9.3,0-18.4,1.2-27.1,3.5c-47.8,12.7-85.5,64.9-82.4,114.1c2.5,20.7,13.3,44.3,29.7,64.7
				c15.4,19.2,35.1,31,60.4,36c9.5,1.9,22,4.1,34.4,4.1c13.4,0,25.3-2.5,36.4-7.6c19.8-9.2,37-24.4,48.3-42.8
				c22.7-36.6,18.1-89.5-11.1-128.7C427,272.8,393,256.2,358.3,256.2z M462,406.7c-6.8,19.2-20.5,36.8-38.4,49.4
				c-15.9,11.2-32.5,16.6-50.8,16.6c-3.8,0-7.7-0.2-11.6-0.7c-24.7-2.9-50.3-8.3-69.5-27.4c-19.7-19.6-34.2-47.4-37.1-70.9
				c-2.4-38.9,24-83.6,60.3-101.7c13.1-6.5,28.1-10,43.4-10c26.6,0,52.8,10,71.8,27.6C461.2,318.1,475.2,369.6,462,406.7z"/>
			<path class="st2" d="M310.2,294.5c-0.5,0-1,0.2-1.5,0.5c-19.4,12.5-32.3,31.8-36.3,54.3c-0.2,0.9,0.1,1.8,0.6,2.4
				c0.6,0.7,1.6,1.2,2.5,1.2c1.3,0,2.3-0.8,2.5-2.2c3.8-21.2,15.7-39.2,33.6-50.8c1.1-0.7,1.6-2,1.2-3.3
				C312.5,295.4,311.4,294.5,310.2,294.5z"/>
			<path class="st2" d="M321.6,293.2c0.5-0.5,0.7-1.2,0.7-2c0-1.4-1-2.9-2.8-2.9c-0.9,0-1.6,0.3-2.1,0.9c-0.5,0.5-0.7,1.2-0.7,2
				c0,1.4,1,2.9,2.8,2.9C320.4,294.2,321.1,293.8,321.6,293.2z"/>
		</g>
	</g>
</g>
</svg>
