<?xml version="1.0" encoding="utf-8"?>
<!-- Generator: Adobe Illustrator 25.2.3, SVG Export Plug-In . SVG Version: 6.00 Build 0)  -->
<svg version="1.1" id="Camada_1" xmlns="http://www.w3.org/2000/svg" xmlns:xlink="http://www.w3.org/1999/xlink" x="0px" y="0px"
	 viewBox="0 0 600 350" style="enable-background:new 0 0 600 350;" xml:space="preserve">
<style type="text/css">
	.st0{fill:url(#SVGID_1_);}
	.st1{fill:#FFFFFF;}
</style>
<linearGradient id="SVGID_1_" gradientUnits="userSpaceOnUse" x1="300" y1="350" x2="300" y2="-1.818989e-12" gradientTransform="matrix(-1 0 0 -1 600 350)">
	<stop  offset="0" style="stop-color:#BEDE72"/>
	<stop  offset="0.2432" style="stop-color:#BEDE72"/>
	<stop  offset="1" style="stop-color:#AFD873;stop-opacity:0"/>
</linearGradient>
<polygon class="st0" points="0,0 600,0 600,350 0,350 "/>
<g>
	<path class="st1" d="M187.4,185.32c-5.96,1.27-10.44,6.57-10.44,12.9c0,2.92,0.96,5.71,2.69,7.98l-5.51,32.62
		c-0.24,1.4,0.16,2.82,1.07,3.9c0.91,1.08,2.26,1.7,3.67,1.7h22.56c1.39,0,2.71-0.6,3.63-1.65c0.91-1.05,1.33-2.44,1.14-3.82
		l-4.7-34.01c1.21-2.03,1.85-4.35,1.85-6.73c0-4.76-2.55-8.93-6.34-11.25v-17.65l29.71,12.89v73.78c0,9.1,7.4,16.49,16.49,16.49
		h135.6c9.1,0,16.49-7.4,16.49-16.49V177.7l70.78-30.71c1.82-0.79,2.97-2.62,2.89-4.61c-0.08-1.98-1.37-3.71-3.25-4.36l-161-54.97
		c-1.06-0.36-2.21-0.34-3.26,0.05c-55.12,20.87-145.65,54.15-154.06,54.65c-2.26,0.02-4.21,1.61-4.67,3.83
		c-0.46,2.23,0.7,4.48,2.8,5.39l41.85,18.15V185.32z M184.57,234.81l4.96-29.36c0.28-1.69-0.35-3.39-1.66-4.49
		c-0.82-0.68-1.29-1.69-1.29-2.75c0-1.97,1.61-3.58,3.58-3.58c1.97,0,3.58,1.61,3.58,3.58c0,1.1-0.48,1.89-0.89,2.35
		c-0.91,1.05-1.33,2.44-1.14,3.82l4.2,30.43H184.57z M385.71,255.99c0,3.79-3.08,6.88-6.88,6.88h-135.6c-3.79,0-6.87-3.08-6.87-6.88
		v-69.6l67.57,29.31c0.61,0.27,1.26,0.4,1.91,0.4s1.3-0.13,1.91-0.4l77.96-33.82V255.99z M162.07,143.67
		c34.81-10.86,118.39-42.31,141.21-50.95l147.6,50.39l-145.05,62.93l-95.78-41.56l80.87-10.67c3.53,2.17,8.8,3.51,14.91,3.51
		c11.15,0,19.56-4.44,19.56-10.32c0-5.88-8.41-10.32-19.56-10.32c-9.62,0-17.18,3.31-19.08,7.99l-93.84,12.38L162.07,143.67z
		 M291.08,147c0-2.25,5.75-5.52,14.75-5.52c9,0,14.75,3.27,14.75,5.52c0,2.25-5.75,5.52-14.75,5.52
		C296.83,152.52,291.08,149.25,291.08,147z"/>
</g>
</svg>
