<svg xmlns="http://www.w3.org/2000/svg" viewBox="0 0 720 716"><defs><style>.cls-1{fill:#5abc29;}.cls-2{fill:#2dbc14;}.cls-3{fill:#fff;}</style></defs><g id="Layer_2" data-name="Layer 2"><g id="Layer_1-2" data-name="Layer 1"><rect class="cls-1" width="720" height="716"/><circle class="cls-2" cx="360" cy="358" r="284.5"/><path class="cls-3" d="M332,506.07a8.88,8.88,0,0,0,12.75,0L413,437.72A9,9,0,0,0,400.23,425l-61.94,61.94L319.4,468a8.81,8.81,0,0,0-12.74,0A9.19,9.19,0,0,0,304,474.3a9,9,0,0,0,2.71,6.34Z"/><path class="cls-3" d="M507,313.7h-38.9c-3.37-39.09-28.73-69.07-68.48-81.23a67.17,67.17,0,0,0,29-55.2v-8.19A67.2,67.2,0,0,0,361.47,102h-8.19a67.18,67.18,0,0,0-67.09,67.09v8.19a67.32,67.32,0,0,0,29,55.2c-39.76,12.16-65.05,42.14-68.48,81.23H207.8a8.66,8.66,0,0,0-9,9.05v33.48a9.51,9.51,0,0,0,9,9h20.34V615.75a8.64,8.64,0,0,0,9.05,9H477.63a8.67,8.67,0,0,0,9.05-9V365.34H507a8.67,8.67,0,0,0,9.05-9V322.81C516.13,317.46,512.36,313.7,507,313.7Zm-38.44,51.64V606.77H246.3V365.34ZM357.44,243.77c43.06,0,87.9,21.46,92.52,69.27h-185C269.55,265.16,314.45,243.77,357.44,243.77Zm-53.09-67.16v-8.19c0-26.55,22.45-49,49-49h8.19c26.54,0,49,22.45,49,49v8.19c0,26.54-22.46,49-49,49h-8.19C326.8,225.61,304.35,203.22,304.35,176.61Zm193,155.25v15.32H216.92V331.86Z"/></g></g></svg>