<svg xmlns="http://www.w3.org/2000/svg" viewBox="0 0 720 716"><defs><style>.cls-1{fill:#5abc29;}.cls-2{fill:#2dbc14;}.cls-3{fill:#fff;}</style></defs><g id="Layer_2" data-name="Layer 2"><g id="Layer_1-2" data-name="Layer 1"><rect class="cls-1" width="720" height="716"/><circle class="cls-2" cx="359" cy="358" r="284.5"/><path class="cls-3" d="M515.76,366.8H600a14,14,0,0,1,14,14V587.28a14,14,0,0,1-14,14H515.76a14,14,0,0,1-14-14V380.83A14,14,0,0,1,515.76,366.8Zm-287.6-12.6c0,18.46-28,18.46-28,0V336.63c-23.21-2.47-37.67-10.62-55.73-23.74-14.87-10.79,1.58-33.45,16.43-22.67,16.86,12.25,29.57,19,52,19,18.95,0,43.45-9.35,43.45-26.38,0-43.43-113.57-5.48-113.57-80.57,0-29.92,28.28-49.16,57.47-53.42V134.2c0-18.46,28-18.46,28,0v14.48c26.65,3.16,42.08,14.66,54.36,23.57,14.14,10.26.11,35.86-19.42,20.45-38.72-30.55-92.41-14.66-92.41,9.59,0,43.43,113.57,5.48,113.57,80.57,0,29.45-27.47,48.6-56.1,53.2V354.2Zm308.77-30.87c0,18.46-28,18.46-28,0V297.05c-116,113.81-384.21,144.72-385,144.82-18.32,2.17-21.6-25.66-3.29-27.82.82-.1,268-30.94,372.9-141H458.58c-18.46,0-18.46-28,0-28h64.33a14,14,0,0,1,14,14v64.34Zm-419.82,180h84.22a14,14,0,0,1,14,14v69.95a14,14,0,0,1-14,14H117.11a14,14,0,0,1-14-14V517.33A14,14,0,0,1,117.11,503.31ZM199.31,516H116.68v74h82.63ZM250,461.21h84.21a14,14,0,0,1,14,14v112a14,14,0,0,1-14,14H250a14,14,0,0,1-14-14v-112A14,14,0,0,1,250,461.21ZM329.68,475H252V588h77.68Zm53.2-71.52H467.1a14,14,0,0,1,14,14V587.28a14,14,0,0,1-14,14H382.88a14,14,0,0,1-14-14V417.5a14,14,0,0,1,14-14Zm80.12,17H385.91V590H463ZM599,385H517V584h82Z"/></g></g></svg>