<?xml version="1.0" encoding="utf-8"?>
<!-- Generator: Adobe Illustrator 25.2.1, SVG Export Plug-In . SVG Version: 6.00 Build 0)  -->
<svg version="1.1" id="Layer_1" xmlns="http://www.w3.org/2000/svg" xmlns:xlink="http://www.w3.org/1999/xlink" x="0px" y="0px"
	 viewBox="0 0 100 100" style="enable-background:new 0 0 100 100;" xml:space="preserve">
<style type="text/css">
	.st0{fill:#C7A968;}
</style>
<g>
	<g>
		<g>
			<path class="st0" d="M65.8,53.3L65.8,53.3h-7.6v-7.6c0-1.5-1.3-2.8-2.7-2.8l0,0H44.6c-1.5,0-2.8,1.3-2.8,2.8v7.6h-7.6
				c-1.5,0-2.8,1.3-2.8,2.7l0,0v10.9c0,1.5,1.3,2.8,2.8,2.8h7.6v7.6c0,1.5,1.3,2.8,2.7,2.8l0,0h10.9c1.5,0,2.8-1.3,2.8-2.8l0,0v-7.6
				h7.6c1.5,0,2.8-1.3,2.8-2.7l0,0V56.1C68.5,54.6,67.3,53.3,65.8,53.3z M64.9,66h-8.5c-1,0-1.9,0.8-1.9,1.9v8.5h-9v-8.5
				c0-1-0.8-1.9-1.9-1.9h-8.5v-9h8.5c1,0,1.9-0.8,1.9-1.9v-8.5h9v8.5c0,1,0.8,1.9,1.9,1.9h8.5V66z"/>
		</g>
	</g>
	<g>
		<g>
			<path class="st0" d="M82.2,29.2L82.2,29.2H66.9v-6.5c0.1-3-2.2-5.5-5.2-5.6c-0.2,0-0.3,0-0.5,0H38.8c-3-0.2-5.5,2.2-5.7,5.1
				c0,0.2,0,0.3,0,0.5v6.5H17.8C11.9,29.1,5,32.5,5,41.9v40.2c0,9.5,6.9,12.8,12.8,12.8h64.4c5.8,0,12.8-3.3,12.8-12.8V42
				C95,32.5,88.2,29.2,82.2,29.2z M36.8,22.6c0-0.5,0-2,2-2h22.6c2,0,2,1.4,2,2v6.5H36.8V22.6z M91.3,82.2c0,8.2-6.3,9.1-9.1,9.1
				H17.8c-2.7,0-9.1-0.9-9.1-9.1V42c0-8.2,6.3-9.1,9.1-9.1h64.4c2.7,0,9.1,0.9,9.1,9.1L91.3,82.2L91.3,82.2z"/>
		</g>
	</g>
</g>
</svg>
