<?xml version="1.0" encoding="utf-8"?>
<!-- Generator: Adobe Illustrator 25.2.1, SVG Export Plug-In . SVG Version: 6.00 Build 0)  -->
<svg version="1.1" id="Layer_1" xmlns="http://www.w3.org/2000/svg" xmlns:xlink="http://www.w3.org/1999/xlink" x="0px" y="0px"
	 viewBox="0 0 100 100" style="enable-background:new 0 0 100 100;" xml:space="preserve">
<style type="text/css">
	.st0{fill:#C7A968;}
</style>
<g id="syringe-medical-coronavirus-covid19-drug">
	<path class="st0" d="M24.5,77.2h3.2v3.2c0,0.9,0.7,1.6,1.6,1.6h6.4c0.9,0,1.6-0.7,1.6-1.6v-3.2h3.2c0.9,0,1.6-0.7,1.6-1.6v-6.4
		c0-0.9-0.7-1.6-1.6-1.6h-3.2v-3.2c0-0.9-0.7-1.6-1.6-1.6h-6.4c-0.9,0-1.6,0.7-1.6,1.6v3.2h-3.2c-0.9,0-1.6,0.7-1.6,1.6v6.4
		C22.9,76.4,23.6,77.2,24.5,77.2z M26.1,70.8h3.2c0.9,0,1.6-0.7,1.6-1.6V66H34v3.2c0,0.9,0.7,1.6,1.6,1.6h3.2V74h-3.2
		c-0.9,0-1.6,0.7-1.6,1.6v3.2h-3.2v-3.2c0-0.9-0.7-1.6-1.6-1.6h-3.2V70.8z"/>
	<path class="st0" d="M42,43.6v-3.2h1.6c0.9,0,1.6-0.7,1.6-1.6v-6.4c0-2.6-2.1-4.8-4.8-4.8h-16c-2.6,0-4.8,2.1-4.8,4.8v6.4
		c0,0.9,0.7,1.6,1.6,1.6h1.6v3.2c-6.2,0-11.2,5-11.2,11.2v38.3c0,2.6,2.1,4.8,4.8,4.8h31.9c2.6,0,4.8-2.1,4.8-4.8V54.8
		C53.2,48.6,48.2,43.6,42,43.6z M22.9,32.4c0-0.9,0.7-1.6,1.6-1.6h16c0.9,0,1.6,0.7,1.6,1.6v4.8H22.9V32.4z M50,93.1
		c0,0.9-0.7,1.6-1.6,1.6H16.5c-0.9,0-1.6-0.7-1.6-1.6v-4.8H50V93.1z M50,85.1H14.9V59.6H50V85.1z M50,56.4H14.9v-1.6
		c0-4.4,3.6-8,8-8c1.8,0,3.2-1.4,3.2-3.2v-3.2h12.8v3.2c0,1.8,1.4,3.2,3.2,3.2c4.4,0,8,3.6,8,8V56.4z"/>
	<path class="st0" d="M83.6,81.9c2.6,0,4.8-2.2,4.8-4.8c0-2-1.3-3.8-3.2-4.5V26c0-2.6-2.1-4.8-4.8-4.8h-1.6v-1.6
		c0-2.6-2.1-4.8-4.8-4.8V3.7c0-0.9-0.7-1.6-1.6-1.6s-1.6,0.7-1.6,1.6v11.2c-2.6,0-4.8,2.1-4.8,4.8v1.6h-1.6c-2.6,0-4.8,2.1-4.8,4.8
		v46.6c-2.5,0.9-3.8,3.7-2.9,6.1c0.7,1.9,2.5,3.1,4.5,3.2H66v6.4h-1.6c-2.6,0-4.8,2.1-4.8,4.8s2.1,4.8,4.8,4.8h16
		c2.6,0,4.8-2.1,4.8-4.8s-2.1-4.8-4.8-4.8h-1.6v-6.4H83.6z M69.2,19.6c0-0.9,0.7-1.6,1.6-1.6H74c0.9,0,1.6,0.7,1.6,1.6v1.6h-6.4
		V19.6z M62.8,26c0-0.9,0.7-1.6,1.6-1.6h16c0.9,0,1.6,0.7,1.6,1.6v1.6h-4.8c-0.9,0-1.6,0.7-1.6,1.6c0,0.9,0.7,1.6,1.6,1.6H82V34h-8
		c-0.9,0-1.6,0.7-1.6,1.6s0.7,1.6,1.6,1.6h8v3.2h-4.8c-0.9,0-1.6,0.7-1.6,1.6c0,0.9,0.7,1.6,1.6,1.6H82v3.2h-8
		c-0.9,0-1.6,0.7-1.6,1.6S73.1,50,74,50h8v3.2h-4.8c-0.9,0-1.6,0.7-1.6,1.6s0.7,1.6,1.6,1.6H82v3.2h-8c-0.9,0-1.6,0.7-1.6,1.6
		s0.7,1.6,1.6,1.6h8v9.6H62.8V26z M80.4,91.5c0.9,0,1.6,0.7,1.6,1.6s-0.7,1.6-1.6,1.6h-16c-0.9,0-1.6-0.7-1.6-1.6s0.7-1.6,1.6-1.6
		H80.4z M69.2,88.3v-6.4h6.4v6.4H69.2z M61.2,78.8c-0.9,0-1.6-0.7-1.6-1.6s0.7-1.6,1.6-1.6h22.4c0.9,0,1.6,0.7,1.6,1.6
		s-0.7,1.6-1.6,1.6H61.2z"/>
</g>
<g>
</g>
<g>
</g>
<g>
</g>
<g>
</g>
<g>
</g>
<g>
</g>
<g>
</g>
<g>
</g>
<g>
</g>
<g>
</g>
<g>
</g>
<g>
</g>
<g>
</g>
<g>
</g>
<g>
</g>
</svg>
