<?xml version="1.0" encoding="utf-8"?>
<!-- Generator: Adobe Illustrator 25.2.1, SVG Export Plug-In . SVG Version: 6.00 Build 0)  -->
<svg version="1.1" id="Layer_1" xmlns="http://www.w3.org/2000/svg" xmlns:xlink="http://www.w3.org/1999/xlink" x="0px" y="0px"
	 viewBox="0 0 100 100" style="enable-background:new 0 0 100 100;" xml:space="preserve">
<style type="text/css">
	.st0{fill:#C7A968;}
</style>
<g>
	<path class="st0" d="M94.7,76.3c-15.2,0-30.1,6.2-40.9,17.1c-0.7,0.7-0.7,1.9,0,2.6c0.4,0.4,0.8,0.5,1.3,0.5c0.5,0,0.9-0.2,1.3-0.5
		c10.1-10.2,24.1-16,38.3-16c1,0,1.8-0.8,1.8-1.8C96.5,77.2,95.7,76.3,94.7,76.3z"/>
	<path class="st0" d="M56.8,74.7c-0.6-0.8-1.7-1.1-2.5-0.5C46.5,79.4,40,86,34.8,93.7c-0.6,0.8-0.3,2,0.5,2.5c0.3,0.2,0.7,0.3,1,0.3
		c0.6,0,1.2-0.3,1.5-0.8c4.9-7.3,11.1-13.6,18.5-18.5C57.2,76.6,57.4,75.5,56.8,74.7z"/>
	<path class="st0" d="M94.7,61.7c-8.1,0-16.2,1.4-23.9,4.1c-0.9,0.3-1.4,1.4-1.1,2.3c0.3,0.7,1,1.2,1.7,1.2c0.2,0,0.4,0,0.6-0.1
		c7.3-2.6,15-3.9,22.7-3.9c1,0,1.8-0.8,1.8-1.8S95.7,61.7,94.7,61.7z"/>
	<path class="st0" d="M29.5,84.1c12-15.6,29.3-26.4,48.4-30.5c0,0,0,0,0,0c5.5-1.2,11.1-1.8,16.8-1.8c1,0,1.8-0.8,1.8-1.8
		c0-1-0.8-1.8-1.8-1.8c-5.2,0-10.3,0.5-15.4,1.4v-3.9c6.6-5.6,10.2-12.8,10.2-20.6c0-8-3.9-15.5-10.9-21.2c-0.7-0.5-1.6-0.5-2.3,0
		C69.4,9.5,65.5,17,65.5,25c0,7.8,3.6,15,10.2,20.6v4.7c-3.5,0.8-6.9,1.8-10.2,3V42.7c0-0.5-0.2-1-0.5-1.3v0L54.8,31.2
		c-0.3-0.3-0.8-0.5-1.3-0.5H32.7c-0.5,0-0.9,0.2-1.3,0.5L21.3,41.4v0c-0.3,0.3-0.5,0.8-0.5,1.3v6.9c-1.3-0.2-2.5-0.4-3.8-0.6v-6.5
		c5-4.3,7.7-9.8,7.7-15.8c0-6.2-3-12-8.4-16.3c-0.7-0.5-1.6-0.5-2.3,0c-5.4,4.3-8.4,10.1-8.4,16.3c0,5.9,2.7,11.5,7.7,15.8v6.1
		c-2.6-0.2-5.3-0.4-8-0.4c-1,0-1.8,0.8-1.8,1.8s0.8,1.8,1.8,1.8c14.5,0,28.7,3.8,41.3,11.1c-3,2-5.9,4.3-8.6,6.7
		c-10.2-5.2-21.4-7.9-32.7-7.9c-1,0-1.8,0.8-1.8,1.8s0.8,1.8,1.8,1.8c10.2,0,20.5,2.4,29.8,6.9c-2.8,2.7-5.3,5.5-7.7,8.6
		c-7.1-3-14.5-4.5-22.1-4.5c-1,0-1.8,0.8-1.8,1.8S4.3,80,5.3,80c6.8,0,13.5,1.3,19.8,3.8c-1.3,1.7-2.4,3.5-3.6,5.4l-2.8,4.5
		c-0.5,0.9-0.3,2,0.6,2.5c0.3,0.2,0.6,0.3,0.9,0.3c0.6,0,1.2-0.3,1.6-0.9l2.8-4.5c1.4-2.4,3-4.6,4.7-6.8
		C29.4,84.2,29.5,84.1,29.5,84.1z M69.2,25c0-6.5,3-12.6,8.4-17.4c5.4,4.8,8.4,10.9,8.4,17.4c0,5.7-2.3,11.1-6.5,15.6V26.7
		c0-1-0.8-1.8-1.8-1.8s-1.8,0.8-1.8,1.8v13.9C71.5,36.2,69.2,30.7,69.2,25z M9.2,26.7c0-4.6,2.1-9,5.9-12.5
		c3.8,3.5,5.9,7.9,5.9,12.5c0,3.8-1.4,7.5-4.1,10.6V25.3c0-1-0.8-1.8-1.8-1.8c-1,0-1.8,0.8-1.8,1.8v12.1
		C10.7,34.2,9.2,30.6,9.2,26.7z M59.3,40.9H43.7l-6.6-6.6h15.7L59.3,40.9z M32.7,35l5.8,5.8H26.9L32.7,35z M24.4,44.5h16.7V56
		c-0.8-0.4-1.7-0.8-2.5-1.1v-6.1c0-1-0.8-1.8-1.8-1.8h-8c-1,0-1.8,0.8-1.8,1.8V51c-0.8-0.2-1.7-0.4-2.5-0.6V44.5z M34.9,53.5
		c-1.4-0.5-2.9-1-4.4-1.5v-1.4h4.4V53.5z M44.7,57.8V44.5h17.1v10.2c-3.1,1.3-6.2,2.8-9.1,4.4c-0.9,0.5-1.9,1.1-2.8,1.6
		C48.3,59.7,46.5,58.7,44.7,57.8z"/>
	<path class="st0" d="M77.5,21.6c0.5,0,0.9-0.2,1.3-0.5c0.3-0.3,0.5-0.8,0.5-1.3c0-0.5-0.2-0.9-0.5-1.3C78.5,18.2,78,18,77.5,18
		s-0.9,0.2-1.3,0.5c-0.3,0.3-0.5,0.8-0.5,1.3c0,0.5,0.2,0.9,0.5,1.3C76.6,21.5,77,21.6,77.5,21.6z"/>
	<path class="st0" d="M61.7,69.9c-0.3,0.3-0.5,0.8-0.5,1.3c0,0.5,0.2,0.9,0.5,1.3c0.3,0.3,0.8,0.5,1.3,0.5c0.5,0,0.9-0.2,1.3-0.5
		c0.3-0.3,0.5-0.8,0.5-1.3c0-0.5-0.2-0.9-0.5-1.3c-0.3-0.3-0.8-0.5-1.3-0.5C62.5,69.3,62.1,69.5,61.7,69.9z"/>
</g>
<g>
</g>
<g>
</g>
<g>
</g>
<g>
</g>
<g>
</g>
<g>
</g>
<g>
</g>
<g>
</g>
<g>
</g>
<g>
</g>
<g>
</g>
<g>
</g>
<g>
</g>
<g>
</g>
<g>
</g>
</svg>
