<svg xmlns="http://www.w3.org/2000/svg" viewBox="0 0 720 716"><defs><style>.cls-1{fill:#5abc29;}.cls-2{fill:#2dbc14;}.cls-3{fill:#fff;}</style></defs><g id="Layer_2" data-name="Layer 2"><g id="Layer_1-2" data-name="Layer 1"><rect class="cls-1" width="720" height="716"/><circle class="cls-2" cx="359" cy="358" r="284.5"/><path class="cls-3" d="M316.45,273.35a6.63,6.63,0,0,0-6.64,6.63v7.1a6.64,6.64,0,0,0,13.27,0V280A6.63,6.63,0,0,0,316.45,273.35Z"/><path class="cls-3" d="M401.55,273.35a6.63,6.63,0,0,0-6.63,6.63v7.1a6.64,6.64,0,0,0,13.27,0V280A6.63,6.63,0,0,0,401.55,273.35Z"/><path class="cls-3" d="M385,325a6.62,6.62,0,0,0-9.38-.06c-2.42,2.38-8.23,5.18-16.62,5.18s-14.19-2.8-16.62-5.18a6.63,6.63,0,1,0-9.32,9.44c5.72,5.64,15.41,9,25.94,9s20.22-3.37,25.94-9A6.63,6.63,0,0,0,385,325Z"/><path class="cls-3" d="M323.54,252.07H309.35a6.64,6.64,0,0,0,0,13.27h14.19a6.64,6.64,0,0,0,0-13.27Z"/><path class="cls-3" d="M408.65,252.07H394.46a6.64,6.64,0,0,0,0,13.27h14.19a6.64,6.64,0,0,0,0-13.27Z"/><path class="cls-3" d="M501.12,447.57l-47.83-14.7a15.23,15.23,0,0,0-8.43-14.54l-29.58-14.79V382.45A99,99,0,0,0,456.88,315h3.95c12.93,0,24-9.61,25.25-21.88A24.33,24.33,0,0,0,472,268.5V194.87a49.24,49.24,0,0,0-49.19-49.19h-1.12c-11.95-8.81-29.5-14.18-49-14.18-41.45,0-60.49,8.63-82.54,18.63-11.78,5.34-24,10.87-41.22,15.92a6.62,6.62,0,0,0-4.26,8.92c.2.49,3.17,7.37,10.81,15.73-3.3,4.07-9.55,14.46-9.55,34.91v43.18A24.21,24.21,0,0,0,256.16,315h4.95a99,99,0,0,0,41.61,67.47v21.08l-29.58,14.79a15.23,15.23,0,0,0-8.43,14.54l-47.83,14.7a48.94,48.94,0,0,0-34.73,47v83.27a6.64,6.64,0,1,0,13.27,0V494.59a35.73,35.73,0,0,1,25.36-34.33L270.53,445l8.78,11.71-10,10a20.77,20.77,0,0,0-3.9,24l19,38H266.34v-7.55a6.64,6.64,0,0,0-13.27,0v7.55H224.25a6.64,6.64,0,0,0-6.64,6.64v42.55a6.64,6.64,0,0,0,6.64,6.64h70.92a6.64,6.64,0,0,0,6.64-6.64V563.42l8.7,17.41a6.64,6.64,0,1,0,11.87-5.94l-45.07-90.15a7.53,7.53,0,0,1,1.41-8.71l14-14a6.64,6.64,0,0,0,.62-8.67l-15-20.05a2,2,0,0,1-.35-1.69,2,2,0,0,1,1.08-1.37l26.13-13.07,18.45,63.26a6.63,6.63,0,1,0,12.74-3.71l-2.91-10a77.65,77.65,0,0,0,51,0L359,554.16l-14.32-49.1a6.64,6.64,0,0,0-12.74,3.72l20.69,70.94a6.63,6.63,0,0,0,12.74,0l47.42-162.59,26.14,13.07a2.1,2.1,0,0,1,1.08,1.36,2,2,0,0,1-.36,1.7l-15,20.05a6.64,6.64,0,0,0,.61,8.67l14,14a7.55,7.55,0,0,1,1.42,8.71l-45.08,90.15a6.64,6.64,0,0,0,3,8.91,6.53,6.53,0,0,0,3,.7,6.63,6.63,0,0,0,5.94-3.67l45.07-90.15a20.79,20.79,0,0,0-3.89-24l-10-10L447.47,445l49.75,15.3a35.73,35.73,0,0,1,25.36,34.33v83.27a6.64,6.64,0,1,0,13.27,0V494.59A48.94,48.94,0,0,0,501.12,447.57ZM288.53,571.23H230.88V541.94h22.19v.46a6.64,6.64,0,1,0,13.27,0v-.46h22.19v29.29Zm7.15-409c21.5-9.75,38.48-17.45,77.06-17.45,24.48,0,46.36,10.25,50.89,23.83a6.63,6.63,0,0,0,12.59-4.19,31.57,31.57,0,0,0-1.35-3.37,36,36,0,0,1,23.88,33.83v71.38H451.2a7.55,7.55,0,0,1-7.55-7.54v-7.1c0-30.76-22.27-53.39-23.22-54.34a6.65,6.65,0,0,0-6.69-1.63c-36.84,11.63-88.77,21.44-127,2.09a71.48,71.48,0,0,1-25.87-21.48A326,326,0,0,0,295.68,162.22ZM402,406.7l-12.67,43.45a64.38,64.38,0,0,1-60.67,0L316,406.7V390.24a98.69,98.69,0,0,0,86,0Zm-43-19.87a85.66,85.66,0,0,1-85.56-85.57,6.64,6.64,0,0,0-13.28,0v.46h-4a11.1,11.1,0,0,1-11-12.27c.55-5.56,5.85-9.92,12.05-9.92h9.62a20.84,20.84,0,0,0,20.82-20.82v-25a6.64,6.64,0,1,0-13.27,0v25a7.55,7.55,0,0,1-7.55,7.54h-7.55V225.61c0-15.44,4.15-23.12,6.07-25.84A91.74,91.74,0,0,0,279.69,209c15,7.84,32.94,12.18,53.2,12.9,23.75.86,50.89-3.31,80.73-12.36,5.26,6.38,16.76,22.54,16.76,42v7.1a20.84,20.84,0,0,0,20.82,20.82h10.64a11.1,11.1,0,0,1,11,12.26c-.56,5.57-5.85,9.93-12.05,9.93h-3v-.39a6.63,6.63,0,0,0-6.63-6.64h0a6.65,6.65,0,0,0-6.64,6.63A85.68,85.68,0,0,1,359,386.83Z"/><path class="cls-3" d="M493.76,532.22h-11.1v-11.1a6.64,6.64,0,0,0-13.27,0v11.1h-11.1a6.64,6.64,0,0,0,0,13.27h11.1v11.09a6.64,6.64,0,1,0,13.27,0V545.49h11.1a6.64,6.64,0,0,0,0-13.27Z"/></g></g></svg>