<?xml version="1.0" encoding="utf-8"?>
<!-- Generator: Adobe Illustrator 25.2.1, SVG Export Plug-In . SVG Version: 6.00 Build 0)  -->
<svg version="1.1" id="Layer_1" xmlns="http://www.w3.org/2000/svg" xmlns:xlink="http://www.w3.org/1999/xlink" x="0px" y="0px"
	 viewBox="0 0 100 100" style="enable-background:new 0 0 100 100;" xml:space="preserve">
<style type="text/css">
	.st0{fill:#C7A968;}
</style>
<path class="st0" d="M50,29.2c-11.5,0-20.8,9.3-20.8,20.8S38.5,70.8,50,70.8S70.8,61.5,70.8,50C70.7,38.5,61.5,29.3,50,29.2z
	 M44.5,32.4c-2,1.9-3.6,4.1-4.7,6.6c-1-0.6-1.9-1.4-2.7-2.2C39.2,34.8,41.7,33.3,44.5,32.4z M35.5,38.6c1,1,2.2,1.9,3.4,2.7
	c-0.8,2.4-1.2,5-1.3,7.5h-6C31.9,45.1,33.2,41.6,35.5,38.6z M31.6,51.2h6c0.1,2.5,0.5,5.1,1.3,7.5c-1.2,0.8-2.4,1.7-3.4,2.7
	C33.2,58.4,31.9,54.9,31.6,51.2z M37.1,63.1c0.8-0.8,1.7-1.6,2.7-2.2c1.1,2.5,2.7,4.8,4.7,6.6C41.7,66.7,39.2,65.2,37.1,63.1
	L37.1,63.1z M48.8,67.9c-3.1-1.8-5.4-4.6-6.9-8.1c2.2-1,4.5-1.7,6.9-1.8V67.9z M48.8,55.6c-2.7,0.1-5.3,0.8-7.8,2
	c-0.6-2.1-1-4.2-1-6.4h8.8V55.6z M48.8,48.8H40c0.1-2.2,0.4-4.3,1-6.4c2.4,1.1,5.1,1.8,7.8,2L48.8,48.8z M48.8,42.1
	c-2.4-0.1-4.8-0.8-6.9-1.8c1.5-3.5,3.9-6.3,6.9-8.1V42.1z M62.8,36.8c-0.8,0.8-1.7,1.6-2.7,2.2c-1.1-2.5-2.7-4.7-4.6-6.6
	C58.3,33.3,60.8,34.8,62.8,36.8L62.8,36.8z M51.2,32.1c3.1,1.8,5.4,4.6,6.9,8.1c-2.2,1.1-4.5,1.7-6.9,1.8V32.1z M51.2,44.4
	c2.7-0.2,5.3-0.8,7.7-2c0.6,2.1,1,4.2,1.1,6.4h-8.8V44.4z M51.2,51.2H60c-0.1,2.2-0.4,4.3-1.1,6.4c-2.4-1.2-5.1-1.8-7.7-2V51.2z
	 M51.2,67.9v-9.9c2.4,0.2,4.8,0.8,6.9,1.8C56.6,63.3,54.2,66.1,51.2,67.9z M55.5,67.6c2-1.9,3.6-4.1,4.6-6.6c1,0.6,1.9,1.4,2.7,2.2
	C60.8,65.2,58.3,66.7,55.5,67.6z M64.4,61.4c-1-1-2.2-1.9-3.4-2.7c0.8-2.4,1.2-5,1.3-7.5h6C68.1,54.9,66.8,58.5,64.4,61.4L64.4,61.4
	z M62.3,48.8c-0.1-2.6-0.5-5.1-1.3-7.5c1.2-0.8,2.4-1.7,3.4-2.7c2.3,2.9,3.7,6.5,3.9,10.2H62.3z"/>
<path class="st0" d="M91.8,43.6c-3.1,0-5.7,2.2-6.2,5.2h-9.2c-0.3-6.2-2.8-12.2-7-16.7l6.5-6.5c1.1,0.8,2.4,1.2,3.7,1.2
	c1.7,0,3.3-0.7,4.5-1.9v0c2.5-2.5,2.5-6.5,0-9c-2.5-2.5-6.5-2.5-9,0c-2.1,2.1-2.5,5.5-0.8,8l-6.5,6.5c-4.6-4.2-10.5-6.6-16.8-6.8
	v-9.2c2.9-0.5,5.4-3.1,5.4-6.3c0-3.5-2.8-6.3-6.3-6.3c-3.5,0-6.3,2.8-6.3,6.3c0,0,0,0,0,0c0,3,2,5.6,5,6.2v9.3
	c-6.2,0.3-12,2.8-16.5,7l-6.5-6.5c2-2.8,1.4-6.8-1.5-8.8c-2.8-2-6.8-1.4-8.8,1.5s-1.4,6.8,1.5,8.8c2.1,1.5,5,1.6,7.1,0.2l6.5,6.5
	c-4.2,4.6-6.6,10.5-6.8,16.8h-9.1c-0.5-2.9-3.1-5.4-6.3-5.4c-3.5,0-6.3,2.8-6.3,6.3s2.8,6.3,6.3,6.3c0,0,0,0,0,0c3,0,5.6-2,6.2-4.9
	h9.2c0.3,6.2,2.8,12,7,16.5l-6.5,6.5c-2.5-1.7-6-1.5-8.2,0.7v0c-2.5,2.5-2.5,6.5,0,9c2.5,2.5,6.5,2.5,9,0c2.1-2.1,2.5-5.5,0.8-8
	l6.5-6.5c4.6,4.2,10.4,6.6,16.6,6.9v9.1c-3.4,0.6-5.7,4-5.1,7.4c0.6,3.4,4,5.7,7.4,5.1c3.4-0.6,5.7-4,5.1-7.4
	c-0.5-2.6-2.5-4.6-5.1-5.1v-9.1c6.2-0.3,12.1-2.7,16.7-7l6.5,6.5c-2,2.9-1.3,6.8,1.6,8.8c2.9,2,6.8,1.3,8.8-1.6
	c2-2.9,1.3-6.8-1.6-8.8c-2.1-1.5-5-1.5-7.2-0.1l-6.5-6.5c4.2-4.6,6.6-10.4,6.9-16.6h9.2c0.7,3.4,4,5.7,7.4,5c3.4-0.7,5.7-4,5-7.4
	C97.5,45.8,94.9,43.6,91.8,43.6z M76.7,17.6c1.6-1.6,4.1-1.6,5.7,0c1.6,1.6,1.6,4.1,0,5.7s-4.1,1.6-5.7,0c-0.7-0.7-1.2-1.8-1.2-2.8
	C75.6,19.4,76,18.4,76.7,17.6z M23.3,23.3c-1.6,1.6-4.1,1.6-5.7,0c-1.6-1.6-1.6-4.1,0-5.7c1.6-1.6,4.1-1.6,5.7,0
	c0.7,0.7,1.2,1.8,1.2,2.8C24.4,21.5,24,22.5,23.3,23.3z M8.2,54c-2.2,0-4-1.8-4-4c0-2.2,1.8-4,4-4s4,1.8,4,4v0
	C12.2,52.2,10.4,54,8.2,54z M23.3,82.4c-1.5,1.6-4.1,1.6-5.7,0.1C16,81,16,78.4,17.5,76.8c0,0,0.1-0.1,0.1-0.1l0,0
	c1.5-1.5,4-1.6,5.5-0.1c0.1,0.1,0.2,0.3,0.4,0.4C24.8,78.6,24.7,80.9,23.3,82.4L23.3,82.4z M76.7,76.7c1.6-1.6,4.1-1.6,5.7,0
	s1.6,4.1,0,5.7s-4.1,1.6-5.7,0c-0.7-0.7-1.2-1.8-1.2-2.8C75.6,78.5,76,77.5,76.7,76.7z M46,8.2c0-2.2,1.8-4,4-4c2.2,0,4,1.8,4,4
	s-1.8,4-4,4C47.8,12.2,46,10.4,46,8.2z M54,91.8c0,2.2-1.8,4-4,4c-2.2,0-4-1.8-4-4c0-2.1,1.6-3.9,3.7-4c0.2,0,0.3,0,0.5,0
	C52.4,88,54,89.7,54,91.8L54,91.8z M50,74.1c-13.3,0-24.1-10.8-24.1-24.1S36.7,26,50,26S74.1,36.7,74.1,50
	C74.1,63.3,63.3,74.1,50,74.1z M91.8,54c-2.2,0-4-1.8-4-4s1.8-4,4-4c2.2,0,4,1.8,4,4c0,0,0,0,0,0C95.8,52.2,94,54,91.8,54z"/>
<g>
</g>
<g>
</g>
<g>
</g>
<g>
</g>
<g>
</g>
<g>
</g>
<g>
</g>
<g>
</g>
<g>
</g>
<g>
</g>
<g>
</g>
<g>
</g>
<g>
</g>
<g>
</g>
<g>
</g>
</svg>
