<?xml version="1.0" encoding="utf-8"?>
<!-- Generator: Adobe Illustrator 25.2.1, SVG Export Plug-In . SVG Version: 6.00 Build 0)  -->
<svg version="1.1" id="Layer_1" xmlns="http://www.w3.org/2000/svg" xmlns:xlink="http://www.w3.org/1999/xlink" x="0px" y="0px"
	 viewBox="0 0 100 100" style="enable-background:new 0 0 100 100;" xml:space="preserve">
<style type="text/css">
	.st0{fill:#C7A968;}
</style>
<g>
	<path class="st0" d="M88.8,57.7C88.8,57.7,88.8,57.7,88.8,57.7l-2.2-0.9c2.3-3.1,1.7-8.1-0.8-9.4c-1.3-0.7-1.6-1.2-1.6-2v-0.9
		c1.1-0.8,1.9-2,1.9-3.5c0-1.5-0.8-2.8-1.9-3.5v-2.7c0-10.8-12.5-16.7-20.8-10c-0.5-0.4-0.6-0.8-0.6-1.3v-0.9c1.1-0.8,1.9-2,1.9-3.5
		c0-1.5-0.8-2.8-1.9-3.5v-2.7C62.8,5.7,57.1,0,50,0c-0.1,0-0.1,0-0.2,0c-7,0.1-12.6,5.9-12.6,13v2.5c-1.2,0.7-2,2.1-2,3.6
		s0.8,2.8,2,3.6v0.9c0,0.6-0.2,1.1-1.1,1.7c-0.6-2.1-2.2-3.2-4.7-3.2h-8.8c-4,0-7.3,3.3-7.3,7.3v6.4c0,0.5,0.1,1.1,0.3,1.5
		c-1.1,0.8-1.8,2.1-1.8,3.5c0,2.4,1.9,4.4,4.2,4.4h0.8c0.3,2.7,1.7,5,3.7,6.6v1.6l-11.3,4.4c0,0,0,0,0,0c-2.6,1.1-5.4,4.2-5.4,8.4
		v8.3c0,1.6,1.3,3,3,3h29.6l-5.7,2.2c0,0,0,0,0,0c-2.6,1.1-5.4,4.2-5.4,8.4v8.3c0,1.6,1.3,3,3,3h16.5c0.8,0,1.5-0.7,1.5-1.5
		s-0.6-1.5-1.5-1.5H38c0-2.7,0-4.6,0-7.5c0-0.8-0.6-1.5-1.5-1.5s-1.5,0.7-1.5,1.5v2h-5v-2.8c0-3.1,2.2-5.1,3.6-5.7l7.6-3
		c1.7,3.3,5,5.3,8.9,5.3c3.7,0,7-2.1,8.6-5.3l7.6,2.9c1.8,0.7,3.6,2.9,3.6,5.7v2.8h-5v-2c0-0.8-0.6-1.5-1.5-1.5
		c-0.8,0-1.5,0.7-1.5,1.5v7.5h-8.6c-0.8,0-1.5,0.7-1.5,1.5s0.6,1.5,1.5,1.5h16.5c1.6,0,3-1.3,3-3c0-6.1,0-1.5,0-8.3
		c0-3.6-2.2-7.1-5.4-8.4c0,0,0,0,0,0l-5.7-2.2h29.6c1.6,0,3-1.3,3-3c0-0.8,0-7.4,0-8.3C94.2,62.5,92,59,88.8,57.7L88.8,57.7z
		 M30.1,96v-2.4h5v2.7h-5c0,0-0.1,0-0.1-0.1L30.1,96z M64.9,96.2v-2.7h5v2.6c0,0,0,0.1-0.1,0.1L64.9,96.2z M91.3,66.1v2.8h-5v-2
		c0-0.8-0.6-1.5-1.5-1.5c-0.8,0-1.5,0.7-1.5,1.5v7.5H56.1c0-0.4,0-0.3,0-0.8c2.1-1.6,3.4-4,3.7-6.6h0.8c2.3,0,4.2-2,4.2-4.4
		c0,0,0,0,0,0c0-1.8-1.1-3.4-2.7-4.1c0-0.1,0-0.3,0-0.8l0.7-0.3c1,1.9,2.6,3.5,4.5,4.4c0.7,0.3,1.6,0,1.9-0.7c0.3-0.7,0-1.6-0.7-1.9
		c-1.3-0.6-2.3-1.6-3-2.8l0.7-0.3c0.6-0.2,2.1-0.7,2.1-2.4v-0.5c2.2,0.7,4.7,0.6,6.4,0l0,0.5c0,0.9,0.6,1.8,1.5,2.1l1.3,0.5
		c-0.7,1.3-1.9,2.3-3.3,2.9c-0.7,0.3-1.1,1.2-0.8,1.9c0.3,0.7,1.2,1.1,1.9,0.8c2.1-0.9,3.8-2.5,4.8-4.5c1,0.4,6.7,2.6,7.7,3
		C89.5,61.1,91.3,63.3,91.3,66.1L91.3,66.1z M43.1,65.5v-4.1h7.5c1.8,0,3.5-0.7,4.8-1.8c0.4,0.6,0.9,1,1.5,1.3v4.6
		c0,4.5-3.3,7.2-6.8,7.2C46.2,72.7,43.1,69.9,43.1,65.5L43.1,65.5z M39.4,64c-0.7,0-1.3-0.6-1.3-1.4c0-0.7,0.5-1.3,1-1.4
		c0.3,0.1,0.7,0.2,1,0.2V64L39.4,64L39.4,64z M36.9,49.3c-0.2,0.6-0.2,1.3-0.2,1.8v3c0,0-1.4-0.5-2-0.8l0-1.6
		C35.5,51.1,36.3,50.2,36.9,49.3L36.9,49.3z M38.9,26.6c0.9-1,1.2-2.1,1.2-3.3h0.3c0.3,2.7,1.6,4.9,3.5,6.4v1.6
		c-0.4,0.1-1.7,0.7-3.3,1.3v-2.7C40.6,28.5,40,27.3,38.9,26.6z M38.1,19c0-0.7,0.6-1.3,1.3-1.3h0.9v2.6h-0.9
		C38.7,20.3,38.1,19.8,38.1,19z M50,15.4c1,1.2,2.5,2.1,4.2,2.2c1.8,0.2,1.4,0.1,2.6,0.1v4.1c0,4.5-3.4,7.1-6.7,7.1
		c-3.8,0-6.9-2.7-6.9-7.1v-4.1C46,17.7,48.2,17.6,50,15.4L50,15.4z M60.5,17.7c0.7,0,1.3,0.6,1.3,1.3c0,0.7-0.6,1.3-1.3,1.3h-0.8
		v-2.6H60.5z M71.4,37.4c0.5,0.6,1.1,1.1,1.8,1.5c1.2,0.7,2.2,0.7,3,0.8c1.1,0.1,0.8,0.1,2,0.1v4.1c0,6.1-6.2,8.8-10.6,5.9
		c0,0-3-1.8-3-5.5c0-1.8,0-2.7,0-4.5C67.4,39.7,69.6,39.6,71.4,37.4L71.4,37.4z M81.9,39.7c0.7,0,1.3,0.6,1.3,1.3
		c0,0.7-0.6,1.3-1.3,1.3h-0.8v-2.6L81.9,39.7L81.9,39.7z M54.4,56.2c-0.8,1.4-2.2,2.3-3.9,2.3c-4.6,0-7,0-10,0c-0.5,0-1-0.4-1-1
		c0,0,0,0,0,0c0-3.1,0-3.6,0-6.4c0-2.4,2-4.4,4.4-4.4h8.8c1.6,0,1.8,0.6,2,1.4c0.3,1.5,1.7,2.5,3.2,2.4h0c0.5,0,1.2,0.4,1.2,1.2v5
		v1.7v0c0,0.1-0.1,0.1-0.1,0.1c-0.9,0-1.6-0.7-1.6-1.6c0-0.7-0.5-1.4-1.2-1.6C55.5,55.2,54.8,55.5,54.4,56.2z M62,54.6v-2.9
		c0-1.3-0.6-2.5-1.6-3.2c0.8-1,1.1-2,1.1-3.2h0.3c0.2,1.8,0.9,3.4,1.9,4.7c0.5,0.6,1,1.2,1.7,1.7v1.6C64.9,53.5,63.6,54,62,54.6
		L62,54.6z M56.6,41c0,1.5,0.8,2.8,2,3.6v0.9c0,0.8-0.4,1.3-1.1,1.7c-0.6-2.4-2.4-3.4-4.8-3.4H44c0,0,0,0,0,0
		c-0.7,0-1.5,0.1-2.2,0.3c2.6-2.1,1.9-6.3-1.2-7.5c0-0.1,0-0.9,0-1l0.7-0.3c3.4,6.8,13.5,7.3,17.3,0.1v1.9
		C57.4,38.2,56.6,39.6,56.6,41L56.6,41z M38,46.9c0.2-0.6,0.3-1.3,0.4-1.8h0.8c0.2,0,0.5,0,0.8-0.1C39.2,45.5,38.5,46.2,38,46.9z
		 M53.2,31.3l0,0.5c0,1,0.6,1.8,1.5,2.1c0.5,0.2,0.8,0.3,1.3,0.5c-2.7,4.8-9.5,4.4-11.9,0c1.2-0.5,2.8-0.8,2.8-2.6v-0.5
		C48.8,31.9,51.2,32,53.2,31.3z M38.9,39.3h0.3c0.7,0,1.3,0.6,1.3,1.4c0,0.8-0.6,1.4-1.3,1.4h-0.7v-2.7
		C38.5,39.4,38.8,39.4,38.9,39.3z M59.8,61.3c0.1,0,0.4-0.1,0.5-0.2h0.3c0.7,0,1.3,0.6,1.3,1.4c0,0.8-0.6,1.4-1.3,1.4h-0.7
		L59.8,61.3z M61.7,42.3h-0.9c-0.7,0-1.3-0.6-1.3-1.3c0-0.7,0.6-1.3,1.3-1.3h0.9V42.3z M58.8,32.4l-2.8-1.1l0-1.7
		c2-1.6,3.2-3.9,3.5-6.4h0.3c0,1.4,0.3,2.6,1.5,3.7C60.1,28.6,59.2,30.5,58.8,32.4L58.8,32.4z M84.5,50c0.8,0.4,1.3,4-0.8,5.7
		c-3.5-1.4-2.4-0.9-6.2-2.4l0-1.7c2-1.6,3.2-3.9,3.5-6.4h0.3C81.3,47.6,82.3,48.9,84.5,50z M78.4,27.8c1.9,1.9,2.9,4.4,2.9,7v2h-1.7
		h-2.2c-0.2,0-0.2,0-1.6-0.1c-1.3-0.1-2.5-1.2-2.9-2.5c-0.4-1.6-2.7-1.6-3.1,0c-0.3,1.3-1.5,2.4-2.9,2.5c-2,0.2-0.8,0.1-5.5,0.1V35
		C61.5,26.1,72.1,21.6,78.4,27.8z M40.1,13c0-5.5,4.4-10,9.8-10.1c5.5-0.1,10,4.4,10,9.9v2c-4.8,0-3.7,0-5.5-0.1
		c-1.3-0.1-2.5-1.2-2.9-2.5C51.4,11.5,50.7,11,50,11c-0.7,0-1.4,0.5-1.5,1.2c-0.3,1.2-1.4,2.4-2.9,2.5c-1.8,0.2-1.1,0.1-5.4,0.1
		L40.1,13L40.1,13z M18.2,29.3c0-2.4,2-4.4,4.4-4.4h8.8c1.6,0,1.8,0.6,2,1.4c0.3,1.5,1.7,2.5,3.2,2.4c0.5,0,1.2,0.5,1.2,1.2v4.8v1.9
		c0,0.1-0.1,0.1-0.1,0.1c-0.9,0-1.6-0.7-1.6-1.6c0-0.6-0.4-1.2-1-1.5c-0.8-0.3-1.7,0-2.1,0.7c0,0,0,0,0,0c-0.8,1.4-2.2,2.3-3.9,2.3
		c-4.6,0-7,0-10,0c-0.5,0-1-0.4-1-1L18.2,29.3L18.2,29.3z M16.7,40.7c0-0.7,0.5-1.3,1-1.4c0.3,0.1,0.7,0.2,1,0.2v2.6H18
		C17.3,42.2,16.7,41.5,16.7,40.7z M21.7,43.6v-4.1h7.5c1.8,0,3.5-0.6,4.8-1.8c0.4,0.6,0.9,1,1.5,1.3v4.6c0,4.4-3,7.2-6.8,7.2
		C24.9,50.9,21.7,48.2,21.7,43.6L21.7,43.6z M31.8,53.3l0,0.5c0,1,0.6,1.8,1.5,2.1c0.6,0.2,0.3,0.1,1.4,0.5
		c-1.2,2.1-3.4,3.4-5.9,3.4c-2.7,0-4.9-1.3-6.2-3.4l1.6-0.6c0.7-0.3,1.3-1,1.3-2v-0.5C27.4,53.9,29.7,54,31.8,53.3L31.8,53.3z
		 M12.3,60.4l7.6-3c1.7,3.3,5,5.3,8.9,5.3c3.3,0,6.3-1.7,8.1-4.3c0,0.2,0.1,0.3,0.2,0.6c-1.1,0.8-1.8,2.1-1.8,3.5
		c0,2.4,1.9,4.4,4.2,4.4h0.8c0.3,2.7,1.7,5.1,3.7,6.6v0.9H16.6c0-2.7,0-4.6,0-7.5c0-0.8-0.6-1.5-1.5-1.5c-0.8,0-1.5,0.7-1.5,1.5v2
		h-5v-2.8C8.7,63,10.8,61,12.3,60.4L12.3,60.4z M8.7,74.3v-0.2v-2.4h5v2.7L8.7,74.3C8.7,74.4,8.7,74.4,8.7,74.3L8.7,74.3z
		 M50.1,81.6c-2.7,0-4.9-1.3-6.2-3.4l1.6-0.6c0.7-0.3,1.3-1.1,1.3-2v-0.5c2,0.7,4.3,0.7,6.4,0c0,0.4-0.1,1.7,1.1,2.4
		c0.2,0.1,0.2,0.1,1.7,0.7C54.8,80.3,52.6,81.6,50.1,81.6L50.1,81.6z M91.3,74.3C91.3,74.4,91.3,74.4,91.3,74.3l-5,0.1v-2.7h5V74.3z
		"/>
</g>
<g>
</g>
<g>
</g>
<g>
</g>
<g>
</g>
<g>
</g>
<g>
</g>
<g>
</g>
<g>
</g>
<g>
</g>
<g>
</g>
<g>
</g>
<g>
</g>
<g>
</g>
<g>
</g>
<g>
</g>
</svg>
