<svg xmlns="http://www.w3.org/2000/svg" viewBox="0 0 720 716"><defs><style>.cls-1{fill:#5abc29;}.cls-2{fill:#2dbc14;}.cls-3{fill:#fff;}</style></defs><g id="Layer_2" data-name="Layer 2"><g id="Layer_1-2" data-name="Layer 1"><rect class="cls-1" width="720" height="716"/><circle class="cls-2" cx="359" cy="358" r="284.5"/><path class="cls-3" d="M573.61,455.24c-8.41-12.36-22.67-15.37-38.16-8.08l-8.22,3.61c12.95-27.59,14.56-58.36,8.11-87.41-7.4-33.38-25.28-65.71-53.14-96.09a6.6,6.6,0,1,0-9.73,8.92c26.27,28.65,43.09,58.94,50,90,7.27,32.74,3,66.51-15.49,93.49L424.8,495.87l.07-9.28a5.58,5.58,0,0,0,0-.7,41.35,41.35,0,0,0-35.45-36.95l-.17,0-73-8.41c-28.09-4-35.32-20.82-73.35-30.42-2.63-22.3.88-46,10.48-69.84,14.46-35.84,42.74-70.66,81.95-101,14.62,10.36,79.82,11.65,94.41-1.71,7.47,5.67,14.61,11.52,21.25,17.44a6.6,6.6,0,1,0,8.79-9.85c-7.29-6.49-15.13-12.9-23.34-19.08a23.5,23.5,0,0,0-7.89-23.42c20.67-31.35,26.68-51.87,18.38-62.61-5.7-7.39-12.8-3.92-15.83-2.44-5.13,2.5-7.93,2.64-12.66-.46-9-5.89-18.49-6.08-27.79,0-4.79,3.14-8.56,3.14-13.34,0-9-5.89-18.49-6.08-27.79,0-4.78,3.13-7.59,2.94-12.65.43-3-1.51-10.11-5-15.85,2.36-8.12,10.44-2.69,30.31,16.59,60.59a21.41,21.41,0,0,0-3.36,2.25c-7.66-8.1-20.22-16.54-38.38-14.51A48.34,48.34,0,0,1,263,180.5a6.6,6.6,0,1,0-7.35,11,61.44,61.44,0,0,0,41.65,9.92c14-1.58,23.55,5.59,29.48,12.89-.08.28-.16.57-.23.85a113.41,113.41,0,0,0-20.93,2.28c-20,4.16-34.86,13.67-42.95,27.5A6.6,6.6,0,0,0,274,251.58c12-20.57,41.42-23.09,53.09-23.24l.16.43c-41.64,32.12-70.63,68-86.2,106.54-9.85,24.4-13.78,48.84-11.78,72.07a137.72,137.72,0,0,0-19.17-1.48v-4A19.18,19.18,0,0,0,191,382.75h-30.3a19.18,19.18,0,0,0-19.16,19.16V555.64a19.17,19.17,0,0,0,19.16,19.15H191a19.17,19.17,0,0,0,19.15-19.15v-1.88l66.1,24.6a79.18,79.18,0,0,0,27.67,5h98.49A79.17,79.17,0,0,0,444.84,571c131.39-83.29,123.41-78.1,124.17-78.78a28.31,28.31,0,0,0,4.6-37ZM417.29,229.74a142.94,142.94,0,0,1-71.75,0c-10.36-2.61-7.36-21.09,3.78-18.3a128.77,128.77,0,0,0,64.2,0C424.46,208.69,427.82,227.08,417.29,229.74Zm-86.51-80.42.16.08c8.93,4.44,16.76,4.68,25.74-1.2,11.25-7.36,12.47,4.44,27.24,4.44a22.86,22.86,0,0,0,13.89-4.44c4.79-3.13,8.56-3.13,13.34,0,9,5.91,16.67,5.62,25.86,1.18,1.36,4.9-1.71,19.5-21.29,48.64-9.72-.17-23.82,9.38-63.75.49-19.53-29.52-22.55-44.25-21.19-49.19ZM560.6,482.05,437.78,559.88a66.08,66.08,0,0,1-35.39,10.26H303.9A65.77,65.77,0,0,1,280.84,566l-70.71-26.32V468.59a6.6,6.6,0,1,0-13.2,0v87.05a6,6,0,0,1-6,6h-30.3a6,6,0,0,1-6-6V401.91a6,6,0,0,1,6-6H191a6,6,0,0,1,6,6v35.82a6.6,6.6,0,0,0,13.2,0V419.1c54.6.42,66.88,29.2,104.29,34.49l.17,0,73,8.4a28.19,28.19,0,0,1,24.05,24.85l-.09,12.55h-68.1a6.61,6.61,0,0,0,0,13.21h74.65a6.94,6.94,0,0,0,2.64-.55L540.84,459.2c8.64-3.83,16.51-4.38,21.85,3.46A15.09,15.09,0,0,1,560.6,482.05Z"/><path class="cls-3" d="M383.16,432.14a6.61,6.61,0,0,0,6.6-6.6v-11c18.53-3,29.34-18,31.69-32,2.94-17.48-6.22-32.68-23.32-38.73-3-1.07-5.81-2.09-8.37-3.08V298.71a27.07,27.07,0,0,1,12.83,5.63,6.6,6.6,0,0,0,8.92-9.73,40.91,40.91,0,0,0-21.75-9.23V276a6.6,6.6,0,1,0-13.2,0v9.92a47.78,47.78,0,0,0-4.9,1.2c-11.2,3.37-19.57,13-21.84,25.05-2.07,11,1.41,21.51,9.07,27.52,4.4,3.45,9.93,6.61,17.67,10v52.2c-7.64-.32-12.34-1.75-20.53-7.12a6.6,6.6,0,1,0-7.23,11.05c10.77,7,18,8.89,27.76,9.27v10.48a6.6,6.6,0,0,0,6.6,6.6ZM367,329.29c-3.76-3-5.39-8.58-4.24-14.68,1.07-5.66,5-12.54,12.68-14.86.36-.11.72-.21,1.09-.3V335.1A55.1,55.1,0,0,1,367,329.29Zm26.7,27c16.42,5.8,15.41,19.91,14.7,24.09-1.45,8.66-7.81,17.91-18.67,20.69V354.89l4,1.43Z"/></g></g></svg>