<?xml version="1.0" encoding="utf-8"?>
<!-- Generator: Adobe Illustrator 25.2.3, SVG Export Plug-In . SVG Version: 6.00 Build 0)  -->
<svg version="1.1" id="Camada_1" xmlns="http://www.w3.org/2000/svg" xmlns:xlink="http://www.w3.org/1999/xlink" x="0px" y="0px"
	 viewBox="0 0 600 600" style="enable-background:new 0 0 600 600;" xml:space="preserve">
<style type="text/css">
	.st0{fill:#5ABC29;}
	.st1{fill:#2CBC13;}
	.st2{fill:#FFFFFF;}
</style>
<polygon class="st0" points="0,0 600,0 600,600 0,600 "/>
<circle class="st1" cx="300" cy="300" r="264.7"/>
<g>
	<path class="st2" d="M154.1,309.5c-7.3,1.6-12.9,8.1-12.9,15.9c0,3.6,1.2,7,3.3,9.8l-6.8,40.2c-0.3,1.7,0.2,3.5,1.3,4.8
		c1.1,1.3,2.8,2.1,4.5,2.1h27.8c1.7,0,3.3-0.7,4.5-2c1.1-1.3,1.6-3,1.4-4.7l-5.8-41.9c1.5-2.5,2.3-5.4,2.3-8.3
		c0-5.9-3.1-11-7.8-13.9v-21.8l36.6,15.9v90.9c0,11.2,9.1,20.3,20.3,20.3H390c11.2,0,20.3-9.1,20.3-20.3v-96.5l87.2-37.8
		c2.2-1,3.7-3.2,3.6-5.7c-0.1-2.4-1.7-4.6-4-5.4l-198.4-67.7c-1.3-0.4-2.7-0.4-4,0.1c-67.9,25.7-179.5,66.7-189.9,67.4
		c-2.8,0-5.2,2-5.8,4.7c-0.6,2.7,0.9,5.5,3.5,6.6l51.6,22.4L154.1,309.5L154.1,309.5z M150.6,370.5l6.1-36.2c0.3-2.1-0.4-4.2-2-5.5
		c-1-0.8-1.6-2.1-1.6-3.4c0-2.4,2-4.4,4.4-4.4c2.4,0,4.4,2,4.4,4.4c0,1.4-0.6,2.3-1.1,2.9c-1.1,1.3-1.6,3-1.4,4.7l5.2,37.5H150.6z
		 M398.5,396.6c0,4.7-3.8,8.5-8.5,8.5H222.9c-4.7,0-8.5-3.8-8.5-8.5v-85.8l83.3,36.1c0.8,0.3,1.6,0.5,2.4,0.5s1.6-0.2,2.4-0.5
		l96.1-41.7V396.6z M122.9,258.1c42.9-13.4,145.9-52.1,174-62.8l181.9,62.1L300,335l-118-51.2l99.7-13.1c4.4,2.7,10.8,4.3,18.4,4.3
		c13.7,0,24.1-5.5,24.1-12.7s-10.4-12.7-24.1-12.7c-11.9,0-21.2,4.1-23.5,9.8l-115.6,15.3L122.9,258.1z M281.8,262.2
		c0-2.8,7.1-6.8,18.2-6.8s18.2,4,18.2,6.8s-7.1,6.8-18.2,6.8S281.8,265,281.8,262.2z"/>
</g>
</svg>
