<?xml version="1.0" encoding="utf-8"?>
<!-- Generator: Adobe Illustrator 25.2.3, SVG Export Plug-In . SVG Version: 6.00 Build 0)  -->
<svg version="1.1" id="Camada_1" xmlns="http://www.w3.org/2000/svg" xmlns:xlink="http://www.w3.org/1999/xlink" x="0px" y="0px"
	 viewBox="0 0 600 350" style="enable-background:new 0 0 600 350;" xml:space="preserve">
<style type="text/css">
	.st0{fill:url(#SVGID_1_);}
	.st1{fill:#FFFFFF;}
</style>
<linearGradient id="SVGID_1_" gradientUnits="userSpaceOnUse" x1="300" y1="350" x2="300" y2="-1.818989e-12" gradientTransform="matrix(-1 0 0 -1 600 350)">
	<stop  offset="0" style="stop-color:#BEDE72"/>
	<stop  offset="0.2432" style="stop-color:#BEDE72"/>
	<stop  offset="1" style="stop-color:#AFD873;stop-opacity:0"/>
</linearGradient>
<polygon class="st0" points="0,0 600,0 600,350 0,350 "/>
<g>
	<path class="st1" d="M-407.6,189.32c-5.96,1.27-10.44,6.57-10.44,12.9c0,2.92,0.96,5.71,2.69,7.98l-5.51,32.62
		c-0.24,1.4,0.16,2.82,1.07,3.9c0.91,1.08,2.26,1.7,3.67,1.7h22.56c1.39,0,2.71-0.6,3.63-1.65c0.91-1.05,1.33-2.44,1.14-3.82
		l-4.7-34.01c1.21-2.03,1.85-4.35,1.85-6.73c0-4.76-2.55-8.93-6.34-11.25v-17.65l29.71,12.89v73.78c0,9.1,7.4,16.49,16.49,16.49
		h135.6c9.1,0,16.49-7.4,16.49-16.49V181.7l70.78-30.71c1.82-0.79,2.97-2.62,2.89-4.61c-0.08-1.98-1.37-3.71-3.25-4.36l-161-54.97
		c-1.06-0.36-2.21-0.34-3.26,0.05c-55.12,20.87-145.65,54.15-154.06,54.65c-2.26,0.02-4.21,1.61-4.67,3.83
		c-0.46,2.23,0.7,4.48,2.8,5.39l41.85,18.15V189.32z M-410.43,238.81l4.96-29.36c0.28-1.69-0.35-3.39-1.66-4.49
		c-0.82-0.68-1.29-1.69-1.29-2.75c0-1.97,1.61-3.58,3.58-3.58c1.97,0,3.58,1.61,3.58,3.58c0,1.1-0.48,1.89-0.89,2.35
		c-0.91,1.05-1.33,2.44-1.14,3.82l4.2,30.43H-410.43z M-209.29,259.99c0,3.79-3.08,6.88-6.88,6.88h-135.6
		c-3.79,0-6.87-3.08-6.87-6.88v-69.6l67.57,29.31c0.61,0.27,1.26,0.4,1.91,0.4s1.3-0.13,1.91-0.4l77.96-33.82V259.99z
		 M-432.93,147.67c34.81-10.86,118.39-42.31,141.21-50.95l147.6,50.39l-145.05,62.93l-95.78-41.56l80.87-10.67
		c3.53,2.17,8.8,3.51,14.91,3.51c11.15,0,19.56-4.44,19.56-10.32c0-5.88-8.41-10.32-19.56-10.32c-9.62,0-17.18,3.31-19.08,7.99
		l-93.84,12.38L-432.93,147.67z M-303.92,151c0-2.25,5.75-5.52,14.75-5.52c9,0,14.75,3.27,14.75,5.52c0,2.25-5.75,5.52-14.75,5.52
		C-298.17,156.52-303.92,153.25-303.92,151z"/>
</g>
<g id="XMLID_1913_">
	<path id="XMLID_1917_" class="st1" d="M359,46.16c-3.83,4.53-1.15,11.87,4.37,19.21l-14.11,16.71c-10.87-1.71-22.36,2.1-29.96,11.1
		l-83.16,98.51c-5.61,6.64-8.29,15.07-7.56,23.73c0.62,7.31,3.63,14.03,8.53,19.32l-40.21,47.63c-1.44,1.7-1.22,4.24,0.48,5.68
		c0.76,0.64,1.68,0.95,2.6,0.95c1.15,0,2.29-0.49,3.08-1.43l40.22-47.64c5.41,3.52,11.56,5.28,17.71,5.28
		c9.26,0,18.47-3.92,24.89-11.54l83.16-98.51c5.61-6.64,8.29-15.07,7.56-23.73c-0.22-2.65-0.8-5.22-1.63-7.68l14.07-16.67
		c1.5,0.77,2.96,1.45,4.37,2.01c3.46,1.37,6.22,1.9,8.42,1.9c3.54,0,5.65-1.37,6.9-2.84c6.04-7.16-4.1-21.3-16.08-31.41
		C380.68,46.63,365.04,39,359,46.16L359,46.16z M387.46,62.9c11.37,9.6,15.23,17.84,15.05,19.99c-1.09,0.28-3.98-0.25-8.1-2.16
		l0.48-0.58c0.69-0.82,1.03-1.87,0.94-2.94c-0.09-1.06-0.6-2.05-1.42-2.74l-19.54-16.5c-1.7-1.44-4.24-1.22-5.68,0.48l-0.49,0.57
		c-2.57-3.74-3.58-6.51-3.49-7.62C367.31,50.88,376.1,53.3,387.46,62.9z M368.56,112.12c0.55,6.52-1.47,12.86-5.69,17.86l-2.06,2.44
		l-7.15-6.04c-1.28-1.08-3.19-0.92-4.26,0.36c-1.08,1.28-0.92,3.18,0.36,4.26l7.15,6.04l-7.03,8.32l-12.88-10.88
		c-1.28-1.08-3.19-0.91-4.26,0.36c-1.08,1.28-0.92,3.18,0.36,4.26l12.88,10.88l-7.76,9.19l-7.15-6.04
		c-1.28-1.08-3.19-0.91-4.26,0.36c-1.08,1.28-0.92,3.18,0.36,4.26l7.15,6.04l-3.51,4.16l-3.51,4.16l-12.88-10.88
		c-1.28-1.08-3.18-0.91-4.26,0.36c-1.08,1.28-0.92,3.18,0.36,4.26l12.88,10.88l-5.93,7.03l-7.15-6.04
		c-1.28-1.08-3.19-0.91-4.26,0.36c-1.08,1.27-0.92,3.18,0.36,4.26l7.15,6.03l-7.03,8.32l-12.88-10.88
		c-1.28-1.08-3.19-0.91-4.26,0.36c-1.08,1.28-0.92,3.18,0.36,4.26l12.88,10.88l-7.76,9.19l-7.15-6.04
		c-1.28-1.08-3.19-0.92-4.26,0.36c-1.08,1.28-0.92,3.18,0.36,4.26l7.15,6.04l-7.03,8.32l-12.89-10.88
		c-1.28-1.08-3.18-0.92-4.26,0.36c-1.08,1.28-0.92,3.18,0.36,4.26l12.89,10.88l-0.35,0.41c-8.71,10.31-24.19,11.62-34.5,2.91
		c-5-4.22-8.05-10.13-8.6-16.65c-0.55-6.52,1.47-12.86,5.69-17.86l51.11-60.54l32.05-37.97c4.22-5,10.13-8.05,16.65-8.6
		c0.7-0.06,1.41-0.09,2.1-0.09c5.77,0,11.3,2.01,15.75,5.78C364.96,99.69,368.01,105.61,368.56,112.12z M365.16,89.31
		c-2.32-1.96-4.85-3.5-7.48-4.71l15.08-17.86l13.38,11.29l-15.07,17.85C369.42,93.47,367.46,91.25,365.16,89.31z"/>
	<g id="XMLID_1914_">
		<g id="XMLID_1915_">
			<path id="XMLID_1916_" class="st1" d="M288.94,137.09c13.84,11.51,27.67,23.03,41.51,34.54c2.61,2.17,6.38-1.56,3.75-3.75
				c-13.84-11.51-27.67-23.03-41.51-34.54C290.08,131.16,286.31,134.9,288.94,137.09L288.94,137.09z"/>
		</g>
	</g>
</g>
</svg>
