<?xml version="1.0" encoding="utf-8"?>
<!-- Generator: Adobe Illustrator 25.0.1, SVG Export Plug-In . SVG Version: 6.00 Build 0)  -->
<svg version="1.1" id="Camada_1" xmlns="http://www.w3.org/2000/svg" xmlns:xlink="http://www.w3.org/1999/xlink" x="0px" y="0px"
	 viewBox="0 0 600 600" style="enable-background:new 0 0 600 600;" xml:space="preserve">
<style type="text/css">
	.st0{fill:#5ABC29;}
	.st1{fill:#2CBC13;}
	.st2{fill:#FFFFFF;}
</style>
<polygon class="st0" points="0,0 600,0 600,600 0,600 "/>
<circle class="st1" cx="300" cy="300" r="264.7"/>
<g>
	<path class="st2" d="M-407.6,422c-6,1.3-10.4,6.6-10.4,12.9c0,2.9,1,5.7,2.7,8l-5.5,32.6c-0.2,1.4,0.2,2.8,1.1,3.9s2.3,1.7,3.7,1.7
		h22.6c1.4,0,2.7-0.6,3.6-1.6s1.3-2.4,1.1-3.8l-4.7-34c1.2-2,1.9-4.4,1.9-6.7c0-4.8-2.5-8.9-6.3-11.2V406l29.7,12.9v73.8
		c0,9.1,7.4,16.5,16.5,16.5H-216c9.1,0,16.5-7.4,16.5-16.5v-78.3l70.8-30.7c1.8-0.8,3-2.6,2.9-4.6s-1.4-3.7-3.2-4.4l-161-55
		c-1.1-0.4-2.2-0.3-3.3,0.1c-55.1,20.9-145.6,54.1-154.1,54.6c-2.3,0-4.2,1.6-4.7,3.8c-0.5,2.2,0.7,4.5,2.8,5.4l41.9,18.1
		L-407.6,422L-407.6,422z M-410.4,471.5l5-29.4c0.3-1.7-0.4-3.4-1.7-4.5c-0.8-0.7-1.3-1.7-1.3-2.8c0-2,1.6-3.6,3.6-3.6
		s3.6,1.6,3.6,3.6c0,1.1-0.5,1.9-0.9,2.4c-0.9,1.1-1.3,2.4-1.1,3.8l4.2,30.4h-11.4L-410.4,471.5L-410.4,471.5z M-209.3,492.6
		c0,3.8-3.1,6.9-6.9,6.9h-135.6c-3.8,0-6.9-3.1-6.9-6.9V423l67.6,29.3c0.6,0.3,1.3,0.4,1.9,0.4s1.3-0.1,1.9-0.4l78-33.8
		L-209.3,492.6L-209.3,492.6z M-432.9,380.3c34.8-10.9,118.4-42.3,141.2-51l147.6,50.4l-145.1,62.9L-385,401l80.9-10.7
		c3.5,2.2,8.8,3.5,14.9,3.5c11.1,0,19.6-4.4,19.6-10.3s-8.4-10.3-19.6-10.3c-9.6,0-17.2,3.3-19.1,8l-93.8,12.4L-432.9,380.3z
		 M-303.9,383.6c0-2.2,5.8-5.5,14.8-5.5s14.8,3.3,14.8,5.5s-5.8,5.5-14.8,5.5S-303.9,385.9-303.9,383.6z"/>
</g>
<g>
	<path class="st2" d="M388.1,376.4H193.3c-6.1,0-11,4.9-11,11V407h216.7v-19.7C399.1,381.3,394.2,376.4,388.1,376.4z"/>
	<path class="st2" d="M420.1,309.8l-29.4-80.9c4.7-0.8,8.3-5,8.3-9.9c0-5.6-4.5-10.1-10.1-10.1c-2.5,0-4.7,0.9-6.4,2.4h-80
		c-2.5-3.8-6.8-6.3-11.7-6.3c-4.9,0-9.2,2.5-11.7,6.3h-77.3c-1.8-1.5-4-2.4-6.4-2.4c-5.6,0-10.1,4.5-10.1,10.1c0,5.3,4.1,9.6,9.2,10
		l-29.4,80.8H153c0,13.3,22.8,24,50.9,24c28.1,0,50.9-10.7,50.9-24h-12.7l-30.2-83.1H279c1,1.6,2.4,2.9,4,4v145.5h15.5V230.7
		c1.6-1,2.9-2.4,4-4h70.7l-30.2,83.1h-12.7c0,13.3,22.8,24,50.9,24c28.1,0,50.9-10.7,50.9-24H420.1z M175.2,309.8l28.3-77.7
		l28.3,77.7H175.2z M353.2,309.8l28.3-77.7l28.3,77.7H353.2z"/>
</g>
</svg>
