<?xml version="1.0" encoding="utf-8"?>
<!-- Generator: Adobe Illustrator 25.0.1, SVG Export Plug-In . SVG Version: 6.00 Build 0)  -->
<svg version="1.1" id="Camada_1" xmlns="http://www.w3.org/2000/svg" xmlns:xlink="http://www.w3.org/1999/xlink" x="0px" y="0px"
	 viewBox="0 0 600 600" style="enable-background:new 0 0 600 600;" xml:space="preserve">
<style type="text/css">
	.st0{fill:#5ABC29;}
	.st1{fill:#2CBC13;}
	.st2{fill:none;stroke:#FFFFFF;stroke-width:10;stroke-miterlimit:10;}
	.st3{fill:none;stroke:#FFFFFF;stroke-width:16;stroke-miterlimit:10;}
</style>
<polygon class="st0" points="0,0 600,0 600,600 0,600 "/>
<circle class="st1" cx="300" cy="300" r="264.7"/>
<image style="overflow:visible;" width="170" height="170" xlink:href="F1B1994A.jpg"  transform="matrix(2.2794 0 0 2.2794 -436 65)">
</image>
<path class="st2" d="M413,393.2H171.5V286.5c0-5.6,4.5-10.1,10.1-10.1h218c7.4,0,13.4,6,13.4,13.4V393.2z"/>
<path class="st2" d="M404,276.4H180.5c-3.6,0-5.6-4.2-3.4-7l36.6-45.8c0.8-1,2.1-1.6,3.4-1.6h150.3c1.3,0,2.6,0.6,3.4,1.6l36.6,45.8
	C409.7,272.2,407.6,276.4,404,276.4z"/>
<rect x="244.3" y="173.5" class="st1" width="105.4" height="73.7"/>
<path class="st2" d="M239.5,247.8c0-23.3,0-46.7,0-70c35.1,0,70.3,0,105.4,0c0,23,0,46,0,69"/>
<line class="st2" x1="220.5" y1="261.2" x2="367.9" y2="261.2"/>
<path class="st3" d="M257.8,192.4c14.6,4.9,37.6,39.7,39.3,34.2c9.7-31.8,22.6-53.1,67.4-107.2"/>
</svg>
