<?xml version="1.0" encoding="utf-8"?>
<!-- Generator: Adobe Illustrator 25.2.1, SVG Export Plug-In . SVG Version: 6.00 Build 0)  -->
<svg version="1.1" id="Layer_1" xmlns="http://www.w3.org/2000/svg" xmlns:xlink="http://www.w3.org/1999/xlink" x="0px" y="0px"
	 viewBox="0 0 100 100" style="enable-background:new 0 0 100 100;" xml:space="preserve">
<style type="text/css">
	.st0{fill:#C7A968;}
</style>
<g>
	<g>
		<g>
			<path class="st0" d="M76.4,41.9H64.2c-1.1,0-2,0.9-2,2l0,2h-6.1c-1.1,0-2,0.9-2,2c0,1.1,0.9,2,2,2h6.1l0,2c0,0.5,0.2,1.1,0.6,1.4
				c0.4,0.4,0.9,0.6,1.4,0.6h12.2c5.6,0,10.2,4.6,10.2,10.2c0,5.6-4.6,10.2-10.2,10.2H3.2c-1.1,0-2,0.9-2,2s0.9,2,2,2h73.2
				c7.8,0,14.2-6.4,14.2-14.2S84.3,50,76.4,50H66.3l0-4.1h10.2c10.1,0,18.3,8.2,18.3,18.3s-8.2,18.3-18.3,18.3H3.2c-1.1,0-2,0.9-2,2
				c0,1.1,0.9,2,2,2h73.2c12.3,0,22.4-10,22.4-22.4S88.8,41.9,76.4,41.9z"/>
			<path class="st0" d="M96.8,21.5H23.6c-7.8,0-14.2,6.4-14.2,14.2S15.7,50,23.6,50h10.2l0,4.1H23.6c-10.1,0-18.3-8.2-18.3-18.3
				s8.2-18.3,18.3-18.3h73.2c1.1,0,2-0.9,2-2c0-1.1-0.9-2-2-2H23.6c-12.3,0-22.4,10-22.4,22.4s10,22.4,22.4,22.4h12.2
				c0.5,0,1.1-0.2,1.4-0.6s0.6-0.9,0.6-1.4l0-2h6.1c1.1,0,2-0.9,2-2c0-1.1-0.9-2-2-2h-6.1l0-2c0-1.1-0.9-2-2-2H23.6
				c-5.6,0-10.2-4.6-10.2-10.2S18,25.6,23.6,25.6h73.2c1.1,0,2-0.9,2-2C98.8,22.5,97.9,21.5,96.8,21.5z"/>
			<path class="st0" d="M48,66.3c0,1.1,0.9,2,2,2c1.1,0,2-0.9,2-2v-4.1c0-1.1-0.9-2-2-2s-2,0.9-2,2L48,66.3L48,66.3z"/>
			<path class="st0" d="M60.2,66.3c0.5,0,1-0.2,1.4-0.6c0.8-0.8,0.8-2.1,0-2.9l-4.1-4.1c-0.8-0.8-2.1-0.8-2.9,0
				c-0.8,0.8-0.8,2.1,0,2.9l4.1,4.1C59.1,66.1,59.6,66.3,60.2,66.3z"/>
			<path class="st0" d="M41.3,65.7l4.1-4.1c0.8-0.8,0.8-2.1,0-2.9c-0.8-0.8-2.1-0.8-2.9,0l-4.1,4.1c-0.8,0.8-0.8,2.1,0,2.9
				c0.4,0.4,0.9,0.6,1.4,0.6C40.4,66.3,40.9,66.1,41.3,65.7z"/>
			<path class="st0" d="M50,41.9c1.1,0,2-0.9,2-2v-4.1c0-1.1-0.9-2-2-2s-2,0.9-2,2v4.1C48,41,48.9,41.9,50,41.9z"/>
			<path class="st0" d="M56.1,43.9c0.5,0,1-0.2,1.4-0.6l4.1-4.1c0.8-0.8,0.8-2.1,0-2.9c-0.8-0.8-2.1-0.8-2.9,0l-4.1,4.1
				c-0.8,0.8-0.8,2.1,0,2.9C55.1,43.7,55.6,43.9,56.1,43.9z"/>
			<path class="st0" d="M38.4,36.4c-0.8,0.8-0.8,2.1,0,2.9l4.1,4.1c0.4,0.4,0.9,0.6,1.4,0.6s1-0.2,1.4-0.6c0.8-0.8,0.8-2.1,0-2.9
				l-4.1-4.1C40.5,35.6,39.2,35.6,38.4,36.4z"/>
		</g>
	</g>
</g>
<g>
</g>
<g>
</g>
<g>
</g>
<g>
</g>
<g>
</g>
<g>
</g>
<g>
</g>
<g>
</g>
<g>
</g>
<g>
</g>
<g>
</g>
<g>
</g>
<g>
</g>
<g>
</g>
<g>
</g>
</svg>
