<?xml version="1.0" encoding="utf-8"?>
<!-- Generator: Adobe Illustrator 25.2.3, SVG Export Plug-In . SVG Version: 6.00 Build 0)  -->
<svg version="1.1" id="Layer_1" xmlns="http://www.w3.org/2000/svg" xmlns:xlink="http://www.w3.org/1999/xlink" x="0px" y="0px"
	 viewBox="0 0 200 200" style="enable-background:new 0 0 200 200;" xml:space="preserve">
<path fill="#ffffff" d="M62.3,55.2c-0.3-0.8,0.2-1.7,1-2l3.4-1.1c0.8-0.3,1.7,0.2,2,1c0.3,0.8-0.2,1.7-1,2l-3.4,1.1c-0.2,0.1-0.3,0.1-0.5,0.1
	C63.1,56.2,62.5,55.8,62.3,55.2z M78.4,48.1l-5.9,2c-0.8,0.3-1.3,1.2-1,2c0.2,0.7,0.8,1.1,1.5,1.1c0.2,0,0.3,0,0.5-0.1l5.9-2
	c0.8-0.3,1.3-1.2,1-2C80.1,48.3,79.2,47.8,78.4,48.1z M87.7,45l-3.4,1.1c-0.8,0.3-1.3,1.2-1,2c0.2,0.7,0.8,1.1,1.5,1.1
	c0.2,0,0.3,0,0.5-0.1l3.4-1.1c0.8-0.3,1.3-1.2,1-2C89.4,45.2,88.5,44.7,87.7,45z M67.7,68l-3.4-1.1c-0.8-0.3-1.7,0.2-2,1
	c-0.3,0.8,0.2,1.7,1,2l3.4,1.1c0.2,0.1,0.3,0.1,0.5,0.1c0.7,0,1.3-0.4,1.5-1.1C68.9,69.2,68.5,68.3,67.7,68z M79.4,71.9l-5.9-2
	c-0.8-0.3-1.7,0.2-2,1c-0.3,0.8,0.2,1.7,1,2l5.9,2c0.2,0.1,0.3,0.1,0.5,0.1c0.7,0,1.3-0.4,1.5-1.1C80.7,73.1,80.2,72.2,79.4,71.9z
	 M88.7,75l-3.4-1.1c-0.8-0.3-1.7,0.2-2,1c-0.3,0.8,0.2,1.7,1,2l3.4,1.1c0.2,0.1,0.3,0.1,0.5,0.1c0.7,0,1.3-0.4,1.5-1.1
	C89.9,76.2,89.5,75.3,88.7,75z M67.3,59.9h-3.6c-0.9,0-1.6,0.7-1.6,1.6s0.7,1.6,1.6,1.6h3.6c0.9,0,1.6-0.7,1.6-1.6
	S68.2,59.9,67.3,59.9z M77.8,63.1c0.9,0,1.6-0.7,1.6-1.6s-0.7-1.6-1.6-1.6h-5.2c-0.9,0-1.6,0.7-1.6,1.6s0.7,1.6,1.6,1.6H77.8z
	 M88.1,61.5c0-0.9-0.7-1.6-1.6-1.6H83c-0.9,0-1.6,0.7-1.6,1.6s0.7,1.6,1.6,1.6h3.6C87.4,63.1,88.1,62.4,88.1,61.5z M31,115.9
	c0-7.2,5.9-13,13-13s13,5.9,13,13s-5.9,13-13,13S31,123.1,31,115.9z M34.1,115.9c0,2.2,0.7,4.1,1.9,5.8l13.8-13.8
	c-1.6-1.2-3.6-1.9-5.8-1.9C38.6,106,34.1,110.5,34.1,115.9z M44,125.8c5.4,0,9.9-4.4,9.9-9.9c0-2.2-0.7-4.1-1.9-5.8l-13.8,13.8
	C39.9,125.1,41.9,125.8,44,125.8z M64.1,78.5v2.8c0,1.2-0.7,2.3-1.8,2.8v67.5c0,1.7-1.4,3.2-3.2,3.2H28.9c-1.7,0-3.2-1.4-3.2-3.2
	V84.1c-1.1-0.5-1.8-1.6-1.8-2.8v-2.8c0-1.7,1.4-3.2,3.2-3.2h1l0.9-5.5c0.3-1.6,1.7-2.8,3.3-2.8h3.3V59c0-1.7,1.4-3.2,3.2-3.2h10.4
	c1.7,0,3.2,1.4,3.2,3.2V67h3.3c1.7,0,3.1,1.2,3.3,2.8l0.9,5.5h1C62.7,75.3,64.1,76.8,64.1,78.5z M59.1,84.4H28.9v67.2h30.3
	L59.1,84.4z M32.1,70.4l-0.8,5h25.5l-0.8-5c0-0.1-0.1-0.2-0.2-0.2H32.3C32.2,70.2,32.1,70.3,32.1,70.4z M49.2,67l0-8.1H38.8V67H49.2
	z M60.9,81.3l0-2.8H27.1v2.8H60.9z M175.8,100.7c-0.9,3.1-4,5.2-7.7,5.2c-0.3,0-0.6,0-1,0c-3-0.3-6.2-0.8-9.6-1.4
	c-7.5-1.3-12.6-2.7-16.1-4c0,0.1-0.1,0.2-0.1,0.2c0,0,0.1,0,0.1,0.1l12.6,11.7c0.3,0.3,0.5,0.7,0.5,1.2l-0.2,11.8l12.7,9.5
	c0.7,0.5,0.8,1.5,0.3,2.2c-0.3,0.4-0.8,0.6-1.3,0.6c-0.3,0-0.7-0.1-0.9-0.3l-13.3-10c-0.4-0.3-0.6-0.8-0.6-1.3l0.2-11.9l-11.7-10.8
	c0,0.1-0.1,0.1-0.1,0.2v28.1c0,3.2-2.6,5.8-5.8,5.8c-3.2,0-5.8-2.6-5.8-5.8v-28.1c0-0.1-0.1-0.1-0.1-0.2l-11.7,10.8l0.2,11.9
	c0,0.5-0.2,1-0.6,1.3l-13.3,10c-0.3,0.2-0.6,0.3-0.9,0.3c-0.5,0-1-0.2-1.3-0.6c-0.5-0.7-0.4-1.7,0.3-2.2l12.7-9.5l-0.2-11.8
	c0-0.4,0.2-0.9,0.5-1.2l12.6-11.7c0,0,0.1,0,0.1-0.1c0-0.1-0.1-0.2-0.1-0.2c-3.4,1.3-8.5,2.6-16.1,4c-3.4,0.6-6.7,1.1-9.6,1.4
	c-0.3,0-0.6,0-1,0c-3.6,0-6.8-2.1-7.7-5.2c-1-3.5,1.2-7.3,5.2-8.9c3.2-1.2,6.6-2.1,10.3-2.8c0,0,0,0,0,0c7.2-1.3,13.6-1.1,18.1,0
	c0.3-1.1,0.7-2,1.2-2.9l-6.1-0.8c-0.6-0.1-1.1-0.5-1.3-1.1l-4.5-14l-10.3-15.7c-0.5-0.7-0.3-1.7,0.5-2.2c0.7-0.5,1.7-0.3,2.2,0.5
	l10.4,15.9c0.1,0.1,0.1,0.2,0.2,0.4l4.2,13.2l6.9,0.9c0,0,0,0,0.1-0.1c-2.5-1.3-4.2-3.5-4.2-6c0-3.5,3.3-6.5,7.6-7.1V41.8
	c0-0.9,0.7-1.6,1.6-1.6s1.6,0.7,1.6,1.6V70c4.3,0.6,7.6,3.5,7.6,7.1c0,2.5-1.7,4.8-4.2,6c0,0,0,0,0.1,0.1l6.9-0.9L150,69
	c0-0.1,0.1-0.3,0.2-0.4l10.4-15.9c0.5-0.7,1.5-0.9,2.2-0.5c0.7,0.5,0.9,1.5,0.5,2.2l-10.3,15.7l-4.5,14c-0.2,0.6-0.7,1-1.3,1.1
	L141,86c0.5,0.9,0.9,1.9,1.2,2.9c4.5-1,10.9-1.2,18.1,0c3.7,0.6,7.1,1.6,10.3,2.8C174.6,93.3,176.8,97.2,175.8,100.7z M172.8,99.8
	c0.6-1.9-0.9-4.1-3.3-5c0,0,0,0,0,0c-2.9-1.1-6.3-2-9.7-2.6c-3.3-0.6-6.3-0.8-9.1-0.8c-3.1,0-5.8,0.3-7.9,0.8
	c0.1,0.6,0.1,1.1,0.1,1.7c0,1.3-0.1,2.5-0.4,3.7c3,1.1,7.8,2.5,15.7,3.9c3.4,0.6,6.5,1,9.4,1.3C170,102.9,172.2,101.7,172.8,99.8z
	 M136.4,131.8v-1.3h-5.3v1.3c0,1.5,1.2,2.7,2.7,2.7C135.2,134.5,136.4,133.3,136.4,131.8z M100,102.7c2.9-0.3,6-0.7,9.4-1.3
	c7.9-1.4,12.7-2.7,15.7-3.9c-0.2-1.2-0.4-2.4-0.4-3.7c0-0.6,0-1.2,0.1-1.7c-4-0.9-9.9-1.2-17,0h0c-3.4,0.6-6.8,1.5-9.7,2.6
	c-2.5,0.9-3.9,3.1-3.3,5C95.3,101.7,97.5,102.9,100,102.7z M133.8,81c3.2,0,6-1.8,6-4c0-2.2-2.7-4-6-4c-3.2,0-6,1.8-6,4
	C127.8,79.2,130.5,81,133.8,81z M127.9,93.8c0,5.2,2.7,9.6,5.9,9.6s5.9-4.4,5.9-9.6c0-5.2-2.7-9.6-5.9-9.6S127.9,88.6,127.9,93.8z
	 M136.4,113h-5.3v5.6h5.3V113z M131.1,127.3h5.3v-5.6h-5.3V127.3z M136.4,106.1c-0.8,0.4-1.7,0.5-2.7,0.5c-0.9,0-1.8-0.2-2.7-0.5
	v3.7h5.3V106.1z"/>
</svg>
