<?xml version="1.0" encoding="utf-8"?>
<!-- Generator: Adobe Illustrator 25.2.3, SVG Export Plug-In . SVG Version: 6.00 Build 0)  -->
<svg version="1.1" xmlns="http://www.w3.org/2000/svg" xmlns:xlink="http://www.w3.org/1999/xlink" x="0px" y="0px"
	 viewBox="0 0 200 200" style="enable-background:new 0 0 200 200;" xml:space="preserve">
<g id="Layer_2">
</g>
<g id="Layer_1" fill="#ffffff">
	<g>
		<path d="M157.3,46.9h-19.9l-1.2-16.7c0-0.7-0.4-1.5-1-2.1c-0.6-0.6-1.5-0.9-2.2-0.7l-90.6,6.3c-1.6,0.1-2.9,1.5-2.8,3.2l8,114.5
			c0.1,1.6,1.5,2.8,3.1,2.8h0.1l12.7-0.9v11.2c0,1.6,1.3,3.1,3.1,3.1h90.9c1.6,0,3.1-1.3,3.1-3.1V49.8
			C160.3,48.2,159,46.9,157.3,46.9z M63.5,49.8v97.3l-10,0.7L46,39.5l84.5-5.9l0.9,13.1H66.5C64.8,46.9,63.5,48.2,63.5,49.8z
			 M154.2,161.5H69.6V52.9h84.8v108.6H154.2z"/>
		<path d="M132.9,110c-0.5,1.6-2,2.6-3.9,2.6c-0.2,0-0.3,0-0.5,0c-1.5-0.2-3.1-0.4-4.8-0.7c-3.8-0.7-6.3-1.3-8.1-2
			c0,0,0,0.1-0.1,0.1c0,0,0,0,0,0l6.3,5.9c0.2,0.2,0.3,0.4,0.3,0.6l-0.1,6l6.4,4.8c0.4,0.3,0.4,0.8,0.2,1.1
			c-0.2,0.2-0.4,0.3-0.6,0.3c-0.2,0-0.3-0.1-0.5-0.2l-6.7-5c-0.2-0.2-0.3-0.4-0.3-0.6l0.1-6l-5.9-5.4c0,0,0,0.1-0.1,0.1v14.1
			c0,1.6-1.3,2.9-2.9,2.9s-2.9-1.3-2.9-2.9v-14.1c0,0,0-0.1-0.1-0.1l-5.9,5.4l0.1,6c0,0.3-0.1,0.5-0.3,0.6l-6.7,5
			c-0.1,0.1-0.3,0.2-0.5,0.2c-0.2,0-0.5-0.1-0.6-0.3c-0.3-0.4-0.2-0.9,0.2-1.1l6.4-4.8l-0.1-6c0-0.2,0.1-0.4,0.3-0.6l6.3-5.9
			c0,0,0,0,0,0c0,0,0-0.1-0.1-0.1c-1.7,0.7-4.3,1.3-8.1,2c-1.7,0.3-3.4,0.5-4.8,0.7c-0.2,0-0.3,0-0.5,0c-1.8,0-3.4-1.1-3.9-2.6
			c-0.5-1.8,0.6-3.7,2.6-4.5c1.6-0.6,3.3-1.1,5.2-1.4c0,0,0,0,0,0c3.6-0.6,6.8-0.5,9.1,0c0.2-0.5,0.4-1,0.6-1.5l-3.1-0.4
			c-0.3,0-0.6-0.3-0.7-0.5l-2.3-7l-5.2-7.9c-0.2-0.4-0.1-0.9,0.2-1.1c0.4-0.2,0.9-0.1,1.1,0.2l5.2,8c0,0.1,0.1,0.1,0.1,0.2l2.1,6.7
			l3.5,0.4c0,0,0,0,0,0c-1.3-0.6-2.1-1.8-2.1-3c0-1.8,1.6-3.3,3.8-3.6V80.4c0-0.4,0.4-0.8,0.8-0.8c0.4,0,0.8,0.4,0.8,0.8v14.2
			c2.2,0.3,3.8,1.8,3.8,3.6c0,1.3-0.8,2.4-2.1,3c0,0,0,0,0,0l3.5-0.4l2.1-6.7c0-0.1,0.1-0.1,0.1-0.2l5.2-8c0.2-0.4,0.7-0.5,1.1-0.2
			c0.4,0.2,0.5,0.7,0.2,1.1l-5.2,7.9l-2.3,7c-0.1,0.3-0.4,0.5-0.7,0.5l-3.1,0.4c0.2,0.4,0.4,0.9,0.6,1.5c2.3-0.5,5.5-0.6,9.1,0
			c1.8,0.3,3.6,0.8,5.2,1.4C132.2,106.3,133.4,108.2,132.9,110z"/>
		<path d="M112,66.9c-22.3,0-40.4,18.1-40.4,40.4c0,22.3,18.1,40.4,40.4,40.4c22.3,0,40.4-18.1,40.4-40.4
			C152.3,85,134.2,66.9,112,66.9z M112,72.9c8.4,0,16.1,3,22.1,8.1l-48.4,48.4c-5-6-8.1-13.7-8.1-22.1C77.6,88.3,93,72.9,112,72.9z
			 M112,141.6c-8.4,0-16.1-3-22.1-8.1l48.4-48.4c5,6,8.1,13.7,8.1,22.1C146.3,126.2,130.9,141.6,112,141.6z"/>
	</g>
</g>
</svg>
